<?xml version="1.0" encoding="UTF-8"?>
<svg width="980px" height="680px" viewBox="0 0 980 680" version="1.1" xmlns="http://www.w3.org/2000/svg" xmlns:xlink="http://www.w3.org/1999/xlink">
    <title>DE Sofortüberweisung heritage</title>
    <defs>
        <linearGradient x1="50%" y1="0%" x2="50%" y2="100%" id="linearGradient-1">
            <stop stop-color="#FFFFFF" offset="0%"></stop>
            <stop stop-color="#EDEDED" offset="100%"></stop>
        </linearGradient>
        <rect id="path-2" x="5.68434189e-14" y="-2.84217094e-14" width="900" height="600" rx="80"></rect>
        <filter x="-6.7%" y="-10.0%" width="113.3%" height="120.0%" filterUnits="objectBoundingBox" id="filter-3">
            <feMorphology radius="2.5" operator="dilate" in="SourceAlpha" result="shadowSpreadOuter1"></feMorphology>
            <feOffset dx="0" dy="0" in="shadowSpreadOuter1" result="shadowOffsetOuter1"></feOffset>
            <feGaussianBlur stdDeviation="17.5" in="shadowOffsetOuter1" result="shadowBlurOuter1"></feGaussianBlur>
            <feColorMatrix values="0 0 0 0 0   0 0 0 0 0   0 0 0 0 0  0 0 0 0.5 0" type="matrix" in="shadowBlurOuter1"></feColorMatrix>
        </filter>
    </defs>
    <g id="DE-Sofortüberweisung-heritage" stroke="none" stroke-width="1" fill="none" fill-rule="evenodd">
        <g transform="translate(40, 40)">
            <g id="Rectangle">
                <use fill="black" fill-opacity="1" filter="url(#filter-3)" xlink:href="#path-2"></use>
                <use fill="url(#linearGradient-1)" fill-rule="evenodd" xlink:href="#path-2"></use>
            </g>
            <g id="Logo" transform="translate(49.8927, 175.0202)" fill-rule="nonzero">
                <path d="M620.168816,47.3987112 C615.99453,58.7447707 608.501095,65.763881 594.245428,65.763881 L594.192475,65.763881 L586.816776,65.7520511 L599.423008,31.4164336 L606.595908,31.4164336 C619.719278,31.425447 624.620262,35.2977876 620.168816,47.3987112 M657.999342,16.0335408 C651.589757,6.70871467 638.540183,2.12939302 618.100826,2.10967642 L570.780982,2.10967642 L519.598373,144.087801 L563.075734,144.087801 L581.679193,94.1107214 C582.587283,96.1606847 593.56774,144.087801 593.56774,144.087801 L639.26688,144.087801 C639.26688,144.087801 630.955488,108.870006 624.842214,94.6447596 C623.26883,90.993245 621.631225,86.8905017 619.444935,83.4716429 C632.35255,78.6247388 651.056282,68.2267663 658.799273,47.1423954 C663.561677,34.1835179 663.283955,23.7224522 657.999342,16.0335408 M221.159998,2.02686669 L140.561909,2.02686669 C127.852024,2.02686669 115.514501,2.02686669 104.451234,7.69116478 C93.3896571,13.3639128 83.6310658,24.7099723 76.1122804,47.3958946 C74.4831258,52.2794152 73.6189753,56.4796148 73.5102523,60.1226795 C73.3981493,63.7916575 74.0251373,66.8978673 75.3945961,69.6029851 C77.0857172,72.8950943 79.8274516,76.0052474 83.2553237,78.6230488 C86.6860124,81.2329636 90.7960789,83.3691166 95.2216111,84.7295622 C95.3951172,84.775192 97.7194229,85.4478098 100.535517,86.2545005 C103.263898,87.050747 105.98839,87.860264 108.708894,88.6830225 C109.923436,89.0587646 111.266982,89.5477364 112.481524,90.2823206 C113.694377,91.0090182 114.779354,91.9847084 115.467181,93.3457172 C115.917134,94.2599543 116.162065,95.2614027 116.184866,96.2801109 C116.213596,97.3363575 116.037836,98.4759771 115.623224,99.6730565 C114.594018,102.762366 113.029646,104.73797 110.052439,105.960963 C107.081992,107.166492 102.69702,107.561951 96.0553417,107.617157 L13.114357,107.617157 L0,143.993724 L88.7832955,143.993724 C97.1318682,143.993724 112.406601,143.993724 127.082513,137.695115 C141.758988,131.396506 155.836079,118.807737 161.793309,93.620623 C164.038185,84.1498941 163.347541,76.444646 159.66955,70.3860159 C155.992122,64.3228791 149.32453,59.9390334 139.632412,57.1251927 C139.632412,57.1251927 137.461896,56.4886281 134.908314,55.7450305 C132.359239,55.0093196 129.424846,54.1620691 127.917934,53.7232338 C125.435895,53.0055495 123.531272,51.5521543 122.402919,49.704427 C121.278509,47.864023 120.938257,45.6214004 121.581581,43.3303312 C122.243496,40.9598324 123.853497,39.0563353 126.17893,37.7499695 C128.516192,36.4464205 131.585222,35.7281728 135.163503,35.7281728 L186.768048,35.7281728 C187.127453,35.1913179 187.457002,34.6234798 187.824294,34.0894415 C197.253337,20.6213124 208.663052,9.72366478 221.159998,2.02686669" id="path442" fill="#EE7F00"></path>
                <path d="M259.018691,72.3576761 C246.975227,105.655637 238.228942,114.040826 225.070082,114.040826 L225.044732,114.040826 C212.222744,114.021109 207.728485,105.83027 219.728573,72.6911683 C228.68329,47.9468328 240.290172,32.118908 254.321633,32.118908 L254.330646,32.118908 C267.683292,32.1391879 270.743309,39.951469 259.018691,72.3576761 M300.352575,15.3276864 C293.326141,5.17870635 281.308591,0.0168999446 264.583842,-1.45601778e-14 C253.638312,-1.45601778e-14 243.02064,2.53780834 233.059812,7.28387611 C218.826116,14.0877938 205.916811,25.4451199 195.377443,40.5142371 C188.537472,50.2987417 182.681078,61.6273379 178.083166,74.308493 C169.428704,98.2433212 169.530667,117.665301 178.377225,130.463629 C183.398762,137.692862 193.814198,146.337747 215.010108,146.354083 L215.092355,146.354083 C253.704785,146.354083 282.540034,120.791791 300.793664,70.3730592 C305.612401,57.022103 311.97692,32.130738 300.352575,15.3276864 M454.660336,2.02686669 L372.519282,2.02686669 C349.5562,2.02686669 332.46416,13.7604982 324.38824,35.7281728 L285.373591,143.993161 L328.113551,143.993161 L348.159702,88.332067 L385.933331,88.3630502 L396.674936,58.5577446 L359.026929,58.5318314 L365.086123,41.2713547 C366.356999,38.1826081 369.372512,35.7191595 373.795228,35.7191595 C376.25248,35.7191595 403.974585,35.7276095 418.330525,35.7366228 C418.697817,35.2025846 419.029056,34.6229165 419.396911,34.0888782 C428.819194,20.6213124 442.162827,9.72366478 454.660336,2.02686669 M492.019917,72.3576761 C479.984903,105.655637 471.238055,114.040826 458.079758,114.040826 L458.052155,114.040826 C445.22397,114.021109 440.746611,105.83027 452.738249,72.6911683 C461.683953,47.9468328 473.298158,32.118908 487.329619,32.118908 L487.348209,32.118908 C500.692405,32.1391879 503.752985,39.951469 492.019917,72.3576761 M533.362814,15.3276864 C526.327367,5.17870635 514.318267,0.0168999446 497.582252,-1.45601778e-14 C486.648551,-1.45601778e-14 476.030316,2.53780834 466.077938,7.28387611 C451.835792,14.0877938 438.934374,25.4451199 428.387119,40.5142371 C421.537008,50.2987417 415.687374,61.6273379 411.092842,74.308493 C402.437254,98.2433212 402.540343,117.665301 411.395914,130.463629 C416.403931,137.692862 426.824437,146.337747 448.037247,146.354083 L448.093581,146.354083 C486.722911,146.354083 515.558723,120.791791 533.794326,70.3730592 C538.630527,57.022103 544.986596,32.130738 533.362814,15.3276864" id="path444" fill="#EE7F00"></path>
                <path d="M659.947906,2.10742309 C662.696964,4.30610588 665.069716,6.81236766 667.048136,9.68366825 C672.096713,17.0419041 674.0357,25.7926954 672.887067,35.8177425 L698.771585,35.8177425 L659.74567,144.112024 L698.734405,144.112024 L737.769897,35.8177425 L787.851193,35.8177425 L800,2.10742309 L659.947906,2.10742309 L659.947906,2.10742309 Z" id="path440" fill="#EE7F00"></path>
                <path d="M70.5127654,165.68931 C69.5928451,168.227118 68.4430856,170.010063 67.0736267,171.024059 C65.7036045,172.042563 63.634488,172.551251 60.8679671,172.551251 C58.1020095,172.551251 56.4080717,172.062842 55.8109403,171.078139 C55.2109923,170.102449 55.3585851,168.385415 56.2430156,165.910699 C57.1820892,163.327261 58.3104421,161.540937 59.6624377,160.541587 C61.0144333,159.548433 63.0756632,159.043688 65.8421841,159.043688 C68.6109583,159.043688 70.3020795,159.52928 70.9279407,160.487507 C71.5532387,161.451367 71.4157858,163.180232 70.5127654,165.68931 M46.9441027,165.68931 C46.0269991,168.227118 44.8958294,170.010063 43.5348206,171.024059 C42.182825,172.042563 40.1215951,172.551251 37.3556375,172.551251 C34.5778499,172.551251 32.8957421,172.062842 32.2783308,171.078139 C31.6552862,170.102449 31.7927391,168.385415 32.6844928,165.910699 C33.6134264,163.327261 34.763186,161.540937 36.1236315,160.541587 C37.4846404,159.548433 39.5424903,159.043688 42.272958,159.043688 C45.0783488,159.043688 46.7891866,159.52928 47.3891346,160.487507 C47.9941526,161.451367 47.8465598,163.180232 46.9441027,165.68931 M59.5717413,222.995895 C58.0152564,227.316085 55.9844464,231.179975 53.4911413,234.591511 C51.0107927,238.013186 48.1242822,240.89857 44.8225964,243.252732 C41.5293605,245.618161 37.8603825,247.409555 33.8241124,248.650011 C29.778829,249.882017 25.4282199,250.496049 20.7570753,250.496049 C16.3698497,250.496049 12.6276386,249.947364 9.53889205,248.833657 C6.44845552,247.731218 4.10555987,246.048546 2.50344512,243.795784 C0.913160339,241.541331 0.0861897174,238.748334 0.0129566242,235.380738 C-0.0518264967,232.027789 0.730640937,228.100242 2.34683897,223.593027 L17.7973316,180.723501 C17.9347845,180.356772 18.1550471,180.03511 18.4761461,179.742177 C18.790485,179.457695 19.2670635,179.216589 19.8929248,179.033506 C20.5103361,178.857747 21.2922402,178.709027 22.2296238,178.601994 C23.1670074,178.490455 24.3336669,178.432432 25.7419956,178.432432 C27.1131444,178.432432 28.2240341,178.490455 29.0797346,178.601994 C29.9354352,178.708464 30.6057996,178.857747 31.0851947,179.033506 C31.5516332,179.216589 31.8575222,179.457695 31.9837085,179.742177 C32.1127114,180.035673 32.1127114,180.356772 31.9837085,180.723501 L16.9878243,222.334544 C15.9777709,225.137682 15.4420427,227.566204 15.3885262,229.607154 C15.3327564,231.668384 15.7000485,233.359505 16.4909659,234.70305 C17.2903333,236.054483 18.4491062,237.057213 19.9836211,237.725324 C21.5209528,238.397942 23.3883966,238.736504 25.5842628,238.736504 C27.8094221,238.736504 29.9354352,238.389492 31.9392053,237.697157 C33.9542259,237.011302 35.8381286,235.988204 37.5105537,234.671504 C39.2039281,233.347675 40.7384431,231.719647 42.1095919,229.77052 C43.4700375,227.829843 44.6012071,225.624963 45.4929608,223.150248 L60.776144,180.723501 C60.9152869,180.356772 61.1349862,180.03511 61.4549585,179.742177 C61.7794374,179.457695 62.2368626,179.216589 62.8430073,179.033506 C63.4519686,178.857747 64.2338727,178.709027 65.1881562,178.601994 C66.1356798,178.490455 67.3029026,178.432432 68.6633482,178.432432 C70.032807,178.432432 71.1397534,178.490455 71.9847506,178.601994 C72.8201712,178.708464 73.4815224,178.857747 73.9513408,179.033506 C74.4312993,179.216589 74.716345,179.457695 74.8256313,179.742177 C74.9377343,180.035673 74.9377343,180.356772 74.7985914,180.723501 L59.5717413,222.995895 Z M120.700531,198.423376 C121.205839,197.004907 121.444128,195.747551 121.416525,194.616382 C121.396809,193.482396 121.085286,192.557969 120.488155,191.811554 C119.89046,191.06852 119.015043,190.496739 117.84782,190.09114 C116.672147,189.696245 114.99849,189.494009 112.800933,189.494009 L105.626907,189.494009 L99.0364919,207.790452 L106.961439,207.790452 C109.011403,207.790452 110.73069,207.551599 112.130569,207.055304 C113.536081,206.567459 114.78724,205.898221 115.898693,205.043084 C117.008648,204.197972 117.9848,203.190295 118.794217,202.054047 C119.587663,200.933602 120.228711,199.712694 120.700531,198.423376 M113.435808,228.60217 C114.014349,226.966256 114.283059,225.513424 114.196869,224.216071 C114.123636,222.929986 113.721417,221.853459 113.003733,220.979732 C112.269149,220.107695 111.180792,219.433387 109.72796,218.965259 C108.276818,218.4853 106.262908,218.258841 103.678907,218.258841 L95.2644243,218.258841 L88.0470213,238.294289 L98.290641,238.294289 C100.268498,238.294289 101.997362,238.094306 103.497514,237.676877 C104.976399,237.269059 106.386163,236.642877 107.68025,235.81901 C108.956196,235.001053 110.095816,233.982549 111.099109,232.768007 C112.092262,231.553464 112.86628,230.167669 113.435808,228.60217 M128.331419,228.114889 C127.428399,230.614954 126.270189,232.885743 124.844397,234.930073 C123.430435,236.95187 121.84015,238.753967 120.073543,240.318339 C118.30692,241.870458 116.373352,243.221537 114.308408,244.346722 C112.225098,245.475872 110.039103,246.404293 107.77996,247.11944 C105.487729,247.854592 103.137108,248.39339 100.753526,248.730004 C98.3548608,249.079833 95.743256,249.246579 92.9389919,249.246579 L74.3907394,249.246579 C73.2043633,249.246579 72.3311995,248.89675 71.769558,248.178503 C71.2203098,247.477718 71.2372097,246.330212 71.8067379,244.721901 L93.9501719,183.278772 C94.5287134,181.685671 95.347234,180.537038 96.4130572,179.81879 C97.4805703,179.112936 98.6038533,178.76198 99.7879761,178.76198 L117.314909,178.76198 C121.589468,178.76198 125.08494,179.120823 127.786678,179.84752 C130.491232,180.573655 132.596965,181.667644 134.09599,183.149206 C135.595579,184.609925 136.477192,186.476242 136.744212,188.729568 C137.021371,190.98402 136.606759,193.630552 135.504319,196.682118 C134.893291,198.375298 134.090184,199.992854 133.110724,201.503109 C132.149217,202.993226 131.024212,204.371235 129.756648,205.611486 C128.468753,206.852442 127.050498,207.950556 125.526592,208.886695 C123.980247,209.833655 122.325179,210.586829 120.579415,211.165934 C122.419819,211.533226 124.010103,212.168101 125.362662,213.078445 C126.703391,213.991605 127.734288,215.157138 128.460422,216.592506 C129.186556,218.027875 129.563425,219.707166 129.590465,221.630943 C129.610182,223.55472 129.19557,225.71397 128.331419,228.114889 M180.490281,243.640868 C180.114539,244.688101 179.746684,245.573095 179.405305,246.278949 C179.05604,246.988183 178.723111,247.556585 178.377225,247.987533 C178.044296,248.432002 177.704044,248.745214 177.362665,248.94576 C177.02523,249.149123 176.692301,249.249959 176.363315,249.249959 L141.30776,249.249959 C140.132087,249.249959 139.259487,248.891117 138.706858,248.181883 C138.145217,247.473212 138.15423,246.325142 138.732208,244.725844 L160.875642,183.282152 C161.445734,181.680038 162.274958,180.531405 163.330078,179.824987 C164.396464,179.116316 165.529324,178.75691 166.71401,178.75691 L201.547612,178.75691 C201.876598,178.75691 202.126154,178.857747 202.308673,179.032943 C202.504149,179.216026 202.594282,179.540505 202.624702,179.979903 C202.642166,180.439018 202.558792,181.027136 202.394863,181.725667 C202.227554,182.443352 201.951521,183.336232 201.556626,184.421772 C201.189334,185.443092 200.829928,186.307806 200.489676,187.016477 C200.139284,187.720078 199.810861,188.291296 199.468919,188.732948 C199.12754,189.167276 198.799118,189.480489 198.475766,189.681035 C198.15523,189.881581 197.831315,189.985234 197.499512,189.985234 L172.590121,189.985234 L166.393474,207.196701 L187.477845,207.196701 C187.802324,207.196701 188.057513,207.300354 188.259749,207.491886 C188.453535,207.693559 188.571272,208.008461 188.601128,208.41913 C188.627041,208.843882 188.553808,209.403833 188.389316,210.113631 C188.221443,210.822865 187.96569,211.677439 187.597835,212.697069 C187.210263,213.753316 186.851421,214.61803 186.512858,215.310364 C186.181619,215.999318 185.849254,216.558707 185.510692,216.972192 C185.187903,217.38793 184.849341,217.689313 184.516975,217.876339 C184.175596,218.057168 183.855624,218.151245 183.523822,218.151245 L162.448464,218.151245 L155.284577,238.028959 L180.407472,238.028959 C180.735894,238.028959 180.995026,238.130359 181.198389,238.325272 C181.392175,238.525818 181.500898,238.83903 181.518361,239.277865 C181.547091,239.711631 181.473858,240.291862 181.305985,240.997153 C181.134733,241.699064 180.866587,242.589691 180.490281,243.640868 M247.02142,199.565812 C247.857967,197.249393 248.052317,195.279423 247.582498,193.688575 C247.11437,192.089277 245.806877,190.96712 243.666781,190.306896 C243.02233,190.12325 242.258452,189.985234 241.375712,189.872567 C240.503111,189.764408 239.251389,189.708638 237.633501,189.708638 L231.268982,189.708638 L224.070169,209.699019 L231.299402,209.699019 C233.313875,209.699019 235.150336,209.46073 236.843147,208.964435 C238.534268,208.476026 240.03442,207.783692 241.358812,206.894192 C242.67102,206.031175 243.827244,204.951715 244.778234,203.701792 C245.723504,202.471476 246.471045,201.093004 247.02142,199.565812 M248.070343,247.393219 C247.922187,247.797127 247.728964,248.136253 247.490675,248.403272 C247.249006,248.670855 246.828761,248.90013 246.221489,249.08603 C245.615908,249.267423 244.785557,249.396426 243.710721,249.471349 C242.642644,249.535005 241.211219,249.572185 239.405742,249.572185 C237.901083,249.572185 236.704567,249.535568 235.831403,249.471349 C234.96669,249.396426 234.305338,249.258973 233.853546,249.05561 C233.402318,248.862951 233.126286,248.598748 233.017563,248.294549 C232.914473,247.99035 232.88011,247.614608 232.88856,247.179716 L232.308892,231.436291 C232.188339,229.653347 232.024972,228.070949 231.803583,226.69304 C231.573744,225.312314 231.186735,224.163682 230.653824,223.237001 C230.101195,222.306941 229.328868,221.617987 228.355995,221.146478 C227.379741,220.6699 226.120695,220.431047 224.622233,220.431047 L220.197828,220.431047 L210.516976,247.279989 C210.386283,247.650098 210.149684,247.980773 209.816192,248.264693 C209.47594,248.557625 209.008375,248.787464 208.399977,248.97449 C207.802282,249.157573 207.029954,249.304039 206.082994,249.413325 C205.145611,249.516978 203.978951,249.571058 202.579072,249.571058 C201.209614,249.571058 200.089147,249.516415 199.21542,249.413325 C198.331553,249.304039 197.661189,249.157573 197.190243,248.97449 C196.704652,248.787464 196.419043,248.557625 196.309193,248.264693 C196.199907,247.980773 196.208357,247.650098 196.337923,247.279989 L219.399024,183.279336 C219.977565,181.680038 220.796649,180.531405 221.864726,179.82217 C222.919846,179.116316 224.052705,178.75691 225.236828,178.75691 L243.307375,178.75691 C245.136513,178.75691 246.634975,178.803104 247.793747,178.87521 C248.841643,178.932409 249.887505,179.02221 250.929814,179.144483 C253.596625,179.538251 255.866851,180.238472 257.762461,181.211909 C259.655819,182.193796 261.09851,183.474248 262.093354,185.056647 C263.087071,186.638481 263.609842,188.503672 263.665612,190.656725 C263.710115,192.824988 263.225087,195.29914 262.22292,198.092137 C261.36722,200.466579 260.299143,202.608366 259.002917,204.558619 C257.731268,206.471954 256.224189,208.21788 254.517109,209.755352 C252.814721,211.281417 250.921364,212.605809 248.822954,213.736416 C246.727361,214.858572 244.475162,215.769479 242.064666,216.457307 C242.914126,216.951033 243.680772,217.575109 244.336582,218.306724 C244.998497,219.033422 245.540985,219.914472 245.974187,220.954382 C246.415275,221.984152 246.755528,223.169965 246.993817,224.484781 C247.231543,225.820439 247.397162,227.318338 247.481662,228.992559 L248.354262,242.876427 C248.389752,244.246449 248.389752,245.257066 248.336799,245.890814 C248.290042,246.528505 248.199909,247.03325 248.070343,247.393219 M336.259324,245.595065 C335.736552,246.471608 335.182234,247.167886 334.604256,247.694601 C334.043178,248.216809 333.333944,248.621281 332.478243,248.888301 C331.623106,249.166586 330.584886,249.347416 329.372033,249.439802 C328.156927,249.535005 326.622976,249.577818 324.794402,249.577818 C322.741622,249.577818 321.113594,249.535005 319.910881,249.439802 C318.705352,249.347979 317.785431,249.16715 317.16802,248.888301 C316.544975,248.620718 316.165853,248.216809 316.031217,247.694601 C315.901651,247.167886 315.901651,246.471608 316.031217,245.595065 L320.966001,200.935271 L320.858405,200.935271 L294.190292,245.595065 C293.710897,246.433302 293.214039,247.122256 292.70028,247.636015 C292.184832,248.17287 291.524607,248.575088 290.72524,248.859007 C289.912916,249.154756 288.893849,249.347416 287.652267,249.439239 C286.420261,249.534442 284.809696,249.577818 282.834656,249.577818 C280.755963,249.577818 279.101458,249.534442 277.895365,249.439239 C276.683639,249.347416 275.772169,249.166586 275.155321,248.887737 C274.532276,248.620155 274.153154,248.216246 274.026968,247.694038 C273.889515,247.167323 273.867545,246.471045 273.971198,245.594501 L280.276004,184.105743 C280.425287,182.793744 280.607243,181.760594 280.846096,181.02601 C281.078752,180.281849 281.482097,179.704997 282.091058,179.305595 C282.67805,178.91239 283.504457,178.662834 284.562957,178.571011 C285.61188,178.481441 287.064712,178.431868 288.893849,178.431868 C290.586097,178.431868 291.909926,178.458345 292.885616,178.515241 C293.85004,178.571011 294.549697,178.699451 294.990223,178.891547 C295.413285,179.104486 295.652137,179.388405 295.698894,179.775977 C295.746214,180.152283 295.690444,180.685758 295.551301,181.375275 L288.332771,235.354262 L288.396991,235.354262 L320.435343,181.751017 C320.820098,181.073893 321.216683,180.502111 321.611015,180.071726 C321.998587,179.638524 322.514036,179.296582 323.15736,179.067306 C323.801812,178.828454 324.618079,178.662834 325.629259,178.571011 C326.633116,178.481441 327.937228,178.431868 329.558496,178.431868 C331.286234,178.431868 332.647806,178.469611 333.649409,178.544535 C334.649886,178.619458 335.3794,178.774374 335.854852,179.00365 C336.325234,179.241939 336.602393,179.582754 336.701539,180.014266 C336.793926,180.448032 336.784912,181.033333 336.664359,181.751017 L330.513906,235.354262 L330.626009,235.354262 L362.254819,181.530191 C362.570284,180.961227 362.890257,180.464932 363.230509,180.039616 C363.552171,179.629511 364.012413,179.296582 364.601658,179.066743 C365.188649,178.82789 365.971117,178.662271 366.938357,178.570448 C367.90278,178.480878 369.225483,178.431868 370.927307,178.431868 C372.500692,178.431868 373.715235,178.480878 374.570372,178.570448 C375.413116,178.662271 375.966307,178.911263 376.22544,179.305032 C376.462602,179.704434 376.424859,180.298749 376.094747,181.082343 C375.754495,181.85467 375.184403,182.91993 374.375459,184.262912 L336.259324,245.595065 Z M409.404537,243.640868 C409.087341,244.537621 408.7258,245.418066 408.321251,246.278949 C407.970859,246.988183 407.63793,247.556585 407.288664,247.987533 C406.958552,248.432002 406.6183,248.745214 406.276358,248.94576 C405.938922,249.149123 405.606557,249.249959 405.274754,249.249959 L370.223706,249.249959 C369.046343,249.249959 368.173743,248.891117 367.612665,248.181883 C367.060036,247.473212 367.068486,246.325142 367.648154,244.725844 L389.790462,183.282152 C390.35999,181.680038 391.189777,180.531405 392.244897,179.824987 C393.312974,179.116316 394.444143,178.75691 395.628266,178.75691 L430.462432,178.75691 C430.792544,178.75691 431.0421,178.857747 431.224619,179.032943 C431.418405,179.216026 431.517552,179.540505 431.538958,179.979903 C431.547972,180.439018 431.474738,181.027136 431.306302,181.725667 C431.14181,182.443352 430.865777,183.336232 430.470882,184.421772 C430.164253,185.307259 429.805151,186.173695 429.395482,187.016477 C429.062553,187.720078 428.725681,188.291296 428.383739,188.732948 C428.043486,189.167276 427.710557,189.480489 427.390022,189.681035 C427.070613,189.881581 426.737121,189.985234 426.414332,189.985234 L401.50494,189.985234 L395.29928,207.196701 L416.383651,207.196701 C416.71658,207.196701 416.963883,207.300354 417.174569,207.491886 C417.368355,207.693559 417.477641,208.008461 417.507498,208.41913 C417.542424,208.843882 417.468628,209.403833 417.304135,210.113631 C417.137389,210.822865 416.881073,211.677439 416.513218,212.697069 C416.125645,213.753316 415.766803,214.61803 415.429368,215.310364 C415.087989,215.999318 414.756187,216.558707 414.425511,216.972192 C414.094272,217.38793 413.7743,217.689313 413.432358,217.876339 C413.092105,218.057168 412.761993,218.151245 412.438641,218.151245 L391.354833,218.151245 L384.190384,238.028959 L409.313841,238.028959 C409.642263,238.028959 409.900833,238.130359 410.104759,238.325272 C410.295728,238.525818 410.407831,238.83903 410.433181,239.277865 C410.463601,239.711631 410.388678,240.291862 410.222495,240.997153 C410.058002,241.699064 409.780843,242.589691 409.404537,243.640868 M439.487566,247.286186 C439.357999,247.653478 439.12816,247.97852 438.786781,248.270889 C438.446529,248.554808 437.9784,248.793097 437.370002,248.968294 C436.764421,249.152503 436.000544,249.298969 435.05471,249.410509 C434.115636,249.519795 432.948977,249.577255 431.552478,249.577255 C430.183019,249.577255 429.0603,249.519795 428.186009,249.410509 C427.304959,249.298969 426.631778,249.152503 426.155199,248.968294 C425.675241,248.792534 425.372732,248.554808 425.251616,248.270889 C425.114163,247.977957 425.122613,247.653478 425.251616,247.286186 L449.235454,180.717867 C449.37009,180.361842 449.602746,180.031166 449.941308,179.744431 C450.28156,179.451498 450.770532,179.221659 451.384563,179.038576 C452.010424,178.85155 452.783879,178.705084 453.730275,178.595798 C454.668786,178.493271 455.818545,178.432432 457.188004,178.432432 C458.584503,178.432432 459.716236,178.493271 460.579823,178.595798 C461.436087,178.705084 462.105888,178.85155 462.576833,179.038576 C463.056228,179.221659 463.359301,179.451498 463.488303,179.744431 C463.61449,180.031166 463.61449,180.361842 463.476474,180.717867 L439.487566,247.286186 Z M508.553132,228.114889 C507.209023,231.820483 505.35172,235.067526 502.989107,237.864467 C500.607342,240.669294 497.923631,242.994163 494.90699,244.861044 C491.898237,246.735248 488.652321,248.145266 485.187832,249.08941 C481.752665,250.023816 478.208448,250.496612 474.648464,250.496612 C472.241348,250.496612 470.070832,250.293249 468.148745,249.899481 C466.225531,249.502895 464.5699,249.025753 463.192554,248.464112 C461.820842,247.894584 460.710516,247.306466 459.873405,246.689618 C459.035168,246.075023 458.454937,245.529155 458.171018,245.052576 C457.876959,244.585011 457.776686,243.904507 457.905125,243.011626 C458.022861,242.119309 458.382267,240.841674 458.990665,239.167452 C459.39401,238.045296 459.769752,237.098336 460.120145,236.342908 C460.468847,235.573961 460.810789,234.955986 461.142028,234.487858 C461.472703,234.007899 461.803942,233.676097 462.154335,233.486254 C462.49177,233.282892 462.842162,233.178675 463.200441,233.178675 C463.705186,233.178675 464.305697,233.486254 465.010425,234.074372 C465.710646,234.679954 466.648593,235.344122 467.827083,236.070256 C469.003882,236.78794 470.485444,237.456615 472.258248,238.053746 C474.033306,238.653131 476.241565,238.95733 478.861056,238.95733 C480.589357,238.95733 482.206119,238.745517 483.72655,238.320765 C485.252052,237.90728 486.613061,237.318598 487.844504,236.554721 C489.062031,235.797363 490.143345,234.840405 491.0431,233.72398 C491.954262,232.597386 492.670043,231.325966 493.160663,229.962616 C493.740331,228.360501 493.794974,227.002872 493.342619,225.854803 C492.893644,224.703353 492.139906,223.690483 491.07352,222.808869 C490.007133,221.906976 488.736821,221.081132 487.266526,220.296411 C485.733839,219.491164 484.212507,218.664488 482.702977,217.816626 C481.161178,216.955518 479.697528,215.961404 478.328708,214.845615 C476.975121,213.75591 475.855233,212.404381 475.036036,210.871875 C474.207375,209.330037 473.74826,207.507096 473.636157,205.39404 C473.537574,203.294503 474.015279,200.768525 475.082792,197.825681 C476.294518,194.449636 477.978316,191.480879 480.149396,188.914904 C482.309208,186.356252 484.746744,184.234746 487.460312,182.549258 C490.170499,180.859264 493.10433,179.598528 496.267999,178.762544 C499.379103,177.932384 502.585243,177.511385 505.805201,177.511385 C507.460269,177.511385 509.059567,177.640387 510.631262,177.890507 C512.196197,178.145132 513.609596,178.487638 514.896808,178.92929 C516.167684,179.360239 517.270124,179.848084 518.190607,180.399585 C519.110528,180.942073 519.689069,181.393302 519.910458,181.751017 C520.139734,182.118309 520.269301,182.431522 520.303101,182.687274 C520.34197,182.936267 520.32507,183.278772 520.268737,183.688314 C520.212404,184.11363 520.083401,184.636401 519.882292,185.271276 C519.637173,186.068806 519.373462,186.860502 519.091374,187.645718 C518.703802,188.692951 518.35341,189.585832 518.042451,190.301263 C517.719099,191.035847 517.42504,191.635795 517.130981,192.10336 C516.829599,192.574869 516.52709,192.924697 516.210497,193.145523 C515.899925,193.357291 515.531817,193.468588 515.155941,193.464369 C514.759355,193.464369 514.217994,193.21763 513.536363,192.712321 C512.866562,192.198563 512.001848,191.644245 510.952361,191.047114 C509.914705,190.438716 508.652842,189.899044 507.17466,189.410636 C505.702112,188.914341 503.973247,188.675488 501.997081,188.675488 C500.451299,188.675488 499.02607,188.868711 497.749561,189.247833 C496.453335,189.632588 495.303576,190.154796 494.292396,190.826851 C493.280652,191.497779 492.405235,192.307286 491.698818,193.252556 C490.990296,194.157757 490.431513,195.170718 490.04375,196.25286 C489.482108,197.808781 489.417888,199.16641 489.849964,200.305466 C490.282039,201.445086 491.042536,202.468096 492.149483,203.360413 C493.241783,204.242027 494.548148,205.080828 496.074213,205.861605 C497.620322,206.661231 499.153167,207.486248 500.672125,208.33632 C502.227129,209.209525 503.712022,210.202091 505.11343,211.305077 C506.509929,212.418783 507.632649,213.742049 508.479899,215.286704 C509.326586,216.831359 509.794715,218.643033 509.915268,220.729613 C510.022864,222.817319 509.565439,225.284148 508.553132,228.114889 M582.786702,222.995895 C581.222331,227.316085 579.199407,231.179975 576.719059,234.591511 C574.225754,238.013186 571.33868,240.89857 568.037557,243.252732 C564.744321,245.618161 561.085483,247.409555 557.040763,248.650011 C552.99548,249.882017 548.644871,250.496049 543.96415,250.496049 C539.587064,250.496049 535.844853,249.947364 532.754416,248.833657 C529.66567,247.731218 527.321084,246.048546 525.718969,243.795784 C524.128685,241.541331 523.294954,238.748334 523.239184,235.380738 C523.165388,232.027789 523.946729,228.100242 525.564617,223.593027 L541.012856,180.723501 C541.142422,180.356772 541.363248,180.03511 541.692234,179.742177 C542.015023,179.457695 542.482588,179.216589 543.099999,179.033506 C543.72586,178.857747 544.508328,178.709027 545.445711,178.601994 C546.393235,178.490455 547.559894,178.432432 548.95921,178.432432 C550.329232,178.432432 551.440122,178.490455 552.295822,178.601994 C553.150959,178.708464 553.821324,178.857747 554.301282,179.033506 C554.768847,179.216589 555.07023,179.457695 555.191346,179.742177 C555.330489,180.035673 555.330489,180.356772 555.191346,180.723501 L540.204475,222.334544 C539.192732,225.137682 538.658694,227.566204 538.602924,229.607154 C538.549407,231.668384 538.917263,233.359505 539.707617,234.70305 C540.498534,236.054483 541.66632,237.057213 543.200272,237.725324 C544.737604,238.397942 546.603921,238.736504 548.799787,238.736504 C551.016496,238.736504 553.141946,238.389492 555.155856,237.697157 C557.170448,237.010322 559.054191,235.98731 560.727205,234.671504 C562.429029,233.347675 563.964107,231.719647 565.325116,229.77052 C566.685562,227.829843 567.818421,225.624963 568.708485,223.150248 L584.001808,180.723501 C584.130811,180.356772 584.351637,180.03511 584.671609,179.742177 C584.994398,179.457695 585.454077,179.216589 586.058532,179.033506 C586.66693,178.857747 587.449397,178.709027 588.404807,178.601994 C589.359654,178.490455 590.518427,178.432432 591.878872,178.432432 C593.250021,178.432432 594.355278,178.490455 595.201965,178.601994 C596.035695,178.708464 596.69761,178.857747 597.167992,179.033506 C597.64795,179.216589 597.931869,179.457695 598.041719,179.742177 C598.161709,180.035673 598.152695,180.356772 598.024256,180.723501 L582.786702,222.995895 Z M652.741206,244.234619 C652.438134,245.072293 652.033662,245.816454 651.50075,246.468228 C651.007044,247.096838 650.42046,247.646571 649.761183,248.09851 C649.13213,248.533146 648.432696,248.855801 647.693756,249.05223 C646.947905,249.255593 646.249938,249.356429 645.559293,249.356429 L639.519253,249.356429 C638.260207,249.356429 637.21917,249.226863 636.3922,248.971674 C635.584382,248.734902 634.872409,248.248157 634.358573,247.581371 C633.827352,246.91833 633.412176,246.011367 633.101217,244.86048 C632.798145,243.720861 632.520986,242.238736 632.280443,240.427625 L626.783455,207.46372 C626.467622,205.35878 626.206898,203.24594 626.001551,201.127367 C625.776165,198.925994 625.637853,196.716574 625.586939,194.504279 L625.477652,194.504279 C624.679285,197.120268 623.848494,199.726252 622.985474,202.32163 C622.082969,205.01161 621.150787,207.691541 620.189096,210.360934 L606.901233,247.234923 C606.774484,247.593765 606.553658,247.92106 606.256219,248.216246 C605.954836,248.500165 605.521071,248.741834 604.959993,248.94238 C604.409618,249.14349 603.694187,249.301786 602.838487,249.410509 C601.964196,249.522612 600.879783,249.577255 599.584121,249.577255 C598.330708,249.577255 597.310515,249.522612 596.519597,249.410509 C595.73882,249.301786 595.142252,249.14349 594.74454,248.94238 C594.350771,248.741834 594.121495,248.500165 594.039249,248.216246 C593.966016,247.92106 593.991929,247.593765 594.121495,247.234923 L616.952194,183.884917 C617.569605,182.176333 618.516565,180.89588 619.813354,180.04018 C621.10958,179.196309 622.487489,178.765924 623.922857,178.765924 L631.527832,178.765924 C632.888841,178.765924 634.000294,178.87521 634.846982,179.113499 C635.693669,179.351225 636.392763,179.747247 636.934125,180.290299 C637.469853,180.832787 637.890098,181.588215 638.195424,182.552075 C638.490046,183.508612 638.728336,184.694424 638.905222,186.121906 L643.205694,211.876859 C643.43835,213.440667 643.666499,214.974055 643.896339,216.484347 C644.126178,217.991259 644.337427,219.49986 644.510933,221.009025 C644.687256,222.507487 644.852312,223.986232 645.007792,225.449767 C645.176228,226.894713 645.313681,228.344728 645.439867,229.79756 L645.487187,229.79756 C646.295567,227.262568 647.168168,224.612657 648.106678,221.845009 C649.010106,219.208134 649.933244,216.578054 650.876016,213.954988 L662.79442,180.887994 C662.923423,180.520701 663.151572,180.198476 663.473234,179.90329 C663.787573,179.619371 664.236549,179.363619 664.82523,179.142229 C665.412221,178.929853 666.129906,178.7755 666.985606,178.680297 C667.849757,178.588474 668.926283,178.542845 670.222509,178.542845 C671.436488,178.542845 672.447668,178.588474 673.238586,178.680297 C674.038516,178.7755 674.618184,178.929853 674.98604,179.142229 C675.361782,179.363619 675.582045,179.619371 675.656404,179.90329 C675.740341,180.198476 675.702034,180.520701 675.573031,180.887994 L652.741206,244.234619 Z M748.682755,189.709201 C748.30645,190.769954 747.932961,191.668468 747.560035,192.431782 C747.198376,193.192843 746.850801,193.812508 746.538152,194.260356 C746.205223,194.714401 745.894827,195.032684 745.590628,195.218583 C745.289246,195.391526 744.98223,195.483349 744.663385,195.483349 C744.193003,195.483349 743.560945,195.153237 742.743551,194.502026 C741.942494,193.858138 740.807944,193.149467 739.366942,192.376576 C737.914674,191.624528 736.103,190.907971 733.957833,190.252253 C731.799147,189.598225 729.140786,189.278816 725.969793,189.278816 C722.622952,189.272309 719.302475,189.870602 716.168388,191.04486 C713.013169,192.222223 710.078775,193.893628 707.349434,196.054567 C704.625726,198.213817 702.198331,200.818098 700.075698,203.843752 C697.941235,206.877855 696.204484,210.225171 694.880655,213.891895 C693.429513,217.928165 692.681972,221.47997 692.638595,224.551254 C692.591276,227.611834 693.152354,230.186822 694.311127,232.248052 C695.469336,234.324492 697.197637,235.880413 699.49772,236.94004 C701.795549,237.992906 704.561506,238.521875 707.798409,238.521875 C709.371231,238.521875 711.017848,238.334848 712.693196,237.976006 C714.380253,237.606722 716.023044,237.058306 717.593617,236.340092 L723.475924,219.998409 L710.264111,219.998409 C709.620786,219.998409 709.262508,219.59619 709.197161,218.766403 C709.123928,217.951262 709.452914,216.570536 710.162148,214.600566 C710.52944,213.58995 710.878142,212.734249 711.220084,212.045295 C711.551323,211.348454 711.890449,210.802585 712.213238,210.380087 C712.554617,209.967728 712.875716,209.654516 713.197941,209.461293 C713.519604,209.260747 713.851406,209.157094 714.171378,209.157094 L737.741731,209.157094 C738.310696,209.157094 738.786711,209.260747 739.165269,209.461293 C739.542138,209.654516 739.826057,209.946885 740.029983,210.354737 C740.230529,210.759209 740.313902,211.235787 740.285172,211.796302 C740.268273,212.358507 740.130256,213.001832 739.872251,213.736416 L729.761014,241.782437 C729.370625,242.875864 728.830953,243.835217 728.169039,244.641908 C727.486844,245.459865 726.483551,246.103753 725.140569,246.582021 C723.80998,247.05015 722.180262,247.538558 720.277891,248.052317 C718.349024,248.560652 716.401711,248.996227 714.440087,249.358119 C712.484315,249.710745 710.514703,249.981755 708.536373,250.170443 C706.587246,250.351272 704.656146,250.446475 702.743072,250.446475 C697.172287,250.446475 692.471286,249.633588 688.655278,248.025277 C684.830258,246.397812 681.943184,244.063366 679.994057,240.99997 C678.044367,237.931503 677.059663,234.187602 677.030375,229.77221 C677.00333,225.359634 677.998737,220.354997 680.010957,214.765622 C682.089087,208.989785 684.821244,203.812768 688.1956,199.216547 C691.578969,194.616945 695.430466,190.718128 699.752909,187.499252 C704.086055,184.284882 708.783112,181.827067 713.877319,180.117919 C718.973779,178.416095 724.258955,177.560394 729.766647,177.560394 C732.78385,177.560394 735.459675,177.77277 737.785107,178.195269 C740.113356,178.608191 742.096847,179.116316 743.736141,179.711194 C745.372619,180.308325 746.676168,180.962353 747.651858,181.642858 C748.616282,182.343079 749.259606,182.93176 749.564369,183.446082 C749.868568,183.950827 749.960391,184.669074 749.839274,185.595191 C749.719285,186.529195 749.334529,187.898091 748.682755,189.709201" id="path446" fill="#3A3A3A"></path>
            </g>
        </g>
    </g>
</svg>