<svg viewBox="0 0 600 200" xmlns="http://www.w3.org/2000/svg" preserveAspectRatio="xMidYMid meet" class="hero-image">
<defs>
<style>
.candle-group { opacity: 0; animation: appear 0.4s ease-out forwards; }
@keyframes appear { from { opacity: 0; } to { opacity: 1; } }
</style>
<filter id="dropShadow" x="-50%" y="-50%" width="200%" height="200%">
<feGaussianBlur in="SourceAlpha" stdDeviation="5"/>
<feOffset dx="6" dy="8" result="offsetblur"/>
<feComponentTransfer><feFuncA type="linear" slope="0.25"/></feComponentTransfer>
<feMerge><feMergeNode/><feMergeNode in="SourceGraphic"/></feMerge>
</filter>
<linearGradient id="fadeGradient" x1="0" x2="1" y1="0" y2="0">
<stop offset="0%" stop-color="white" stop-opacity="0"/>
<stop offset="15%" stop-color="white" stop-opacity="1"/>
<stop offset="85%" stop-color="white" stop-opacity="1"/>
<stop offset="100%" stop-color="white" stop-opacity="0"/>
</linearGradient>
<mask id="fadeMask">
<rect x="0" y="0" width="600" height="200" fill="url(#fadeGradient)"/>
</mask>
</defs>
<g mask="url(#fadeMask)" filter="url(#dropShadow)">
<g class="candle-group" style="animation-delay: 0.000s">
<line x1="22.9" y1="135.0" x2="22.9" y2="171.1" stroke="#1e293b" stroke-width="1" />
<rect x="21.0" y="149.2" width="3.8" height="19.6" fill="#475569" fill-opacity="0.9" rx="1" />
</g>
<g class="candle-group" style="animation-delay: 0.040s">
<line x1="28.8" y1="141.8" x2="28.8" y2="180.0" stroke="#1e293b" stroke-width="1" />
<rect x="26.9" y="154.4" width="3.8" height="14.4" fill="#3DA7E2" fill-opacity="0.9" rx="1" />
</g>
<g class="candle-group" style="animation-delay: 0.080s">
<line x1="34.7" y1="149.1" x2="34.7" y2="173.7" stroke="#1e293b" stroke-width="1" />
<rect x="32.8" y="154.4" width="3.8" height="8.5" fill="#475569" fill-opacity="0.9" rx="1" />
</g>
<g class="candle-group" style="animation-delay: 0.120s">
<line x1="40.6" y1="126.7" x2="40.6" y2="171.0" stroke="#1e293b" stroke-width="1" />
<rect x="38.7" y="136.6" width="3.8" height="26.3" fill="#3DA7E2" fill-opacity="0.9" rx="1" />
</g>
<g class="candle-group" style="animation-delay: 0.160s">
<line x1="46.5" y1="130.6" x2="46.5" y2="151.4" stroke="#1e293b" stroke-width="1" />
<rect x="44.6" y="136.6" width="3.8" height="4.0" fill="#475569" fill-opacity="0.9" rx="1" />
</g>
<g class="candle-group" style="animation-delay: 0.200s">
<line x1="52.4" y1="132.6" x2="52.4" y2="151.9" stroke="#1e293b" stroke-width="1" />
<rect x="50.5" y="140.6" width="3.8" height="1.9" fill="#475569" fill-opacity="0.9" rx="1" />
</g>
<g class="candle-group" style="animation-delay: 0.240s">
<line x1="58.3" y1="133.1" x2="58.3" y2="145.9" stroke="#1e293b" stroke-width="1" />
<rect x="56.4" y="133.7" width="3.8" height="8.8" fill="#3DA7E2" fill-opacity="0.9" rx="1" />
</g>
<g class="candle-group" style="animation-delay: 0.280s">
<line x1="64.2" y1="112.5" x2="64.2" y2="146.2" stroke="#1e293b" stroke-width="1" />
<rect x="62.3" y="121.0" width="3.8" height="12.7" fill="#3DA7E2" fill-opacity="0.9" rx="1" />
</g>
<g class="candle-group" style="animation-delay: 0.320s">
<line x1="70.1" y1="117.6" x2="70.1" y2="150.1" stroke="#1e293b" stroke-width="1" />
<rect x="68.2" y="121.0" width="3.8" height="21.6" fill="#475569" fill-opacity="0.9" rx="1" />
</g>
<g class="candle-group" style="animation-delay: 0.360s">
<line x1="76.0" y1="124.9" x2="76.0" y2="154.0" stroke="#1e293b" stroke-width="1" />
<rect x="74.1" y="127.8" width="3.8" height="14.8" fill="#3DA7E2" fill-opacity="0.9" rx="1" />
</g>
<g class="candle-group" style="animation-delay: 0.400s">
<line x1="81.9" y1="123.2" x2="81.9" y2="143.0" stroke="#1e293b" stroke-width="1" />
<rect x="80.0" y="127.8" width="3.8" height="2.8" fill="#475569" fill-opacity="0.9" rx="1" />
</g>
<g class="candle-group" style="animation-delay: 0.440s">
<line x1="87.8" y1="116.6" x2="87.8" y2="154.0" stroke="#1e293b" stroke-width="1" />
<rect x="85.9" y="130.6" width="3.8" height="18.7" fill="#475569" fill-opacity="0.9" rx="1" />
</g>
<g class="candle-group" style="animation-delay: 0.480s">
<line x1="93.7" y1="146.3" x2="93.7" y2="161.7" stroke="#1e293b" stroke-width="1" />
<rect x="91.8" y="149.3" width="3.8" height="5.3" fill="#475569" fill-opacity="0.9" rx="1" />
</g>
<g class="candle-group" style="animation-delay: 0.520s">
<line x1="99.6" y1="131.6" x2="99.6" y2="163.0" stroke="#1e293b" stroke-width="1" />
<rect x="97.7" y="134.9" width="3.8" height="19.8" fill="#3DA7E2" fill-opacity="0.9" rx="1" />
</g>
<g class="candle-group" style="animation-delay: 0.560s">
<line x1="105.5" y1="130.3" x2="105.5" y2="138.1" stroke="#1e293b" stroke-width="1" />
<rect x="103.6" y="134.9" width="3.8" height="1.3" fill="#475569" fill-opacity="0.9" rx="1" />
</g>
<g class="candle-group" style="animation-delay: 0.600s">
<line x1="111.4" y1="117.7" x2="111.4" y2="143.2" stroke="#1e293b" stroke-width="1" />
<rect x="109.5" y="123.9" width="3.8" height="12.2" fill="#3DA7E2" fill-opacity="0.9" rx="1" />
</g>
<g class="candle-group" style="animation-delay: 0.640s">
<line x1="117.3" y1="115.0" x2="117.3" y2="136.1" stroke="#1e293b" stroke-width="1" />
<rect x="115.3" y="116.6" width="3.8" height="7.3" fill="#3DA7E2" fill-opacity="0.9" rx="1" />
</g>
<g class="candle-group" style="animation-delay: 0.680s">
<line x1="123.2" y1="90.5" x2="123.2" y2="128.8" stroke="#1e293b" stroke-width="1" />
<rect x="121.2" y="94.3" width="3.8" height="22.4" fill="#3DA7E2" fill-opacity="0.9" rx="1" />
</g>
<g class="candle-group" style="animation-delay: 0.720s">
<line x1="129.1" y1="77.5" x2="129.1" y2="98.3" stroke="#1e293b" stroke-width="1" />
<rect x="127.1" y="82.0" width="3.8" height="12.3" fill="#3DA7E2" fill-opacity="0.9" rx="1" />
</g>
<g class="candle-group" style="animation-delay: 0.760s">
<line x1="134.9" y1="75.8" x2="134.9" y2="108.7" stroke="#1e293b" stroke-width="1" />
<rect x="133.0" y="82.0" width="3.8" height="19.9" fill="#475569" fill-opacity="0.9" rx="1" />
</g>
<g class="candle-group" style="animation-delay: 0.800s">
<line x1="140.8" y1="93.5" x2="140.8" y2="110.1" stroke="#1e293b" stroke-width="1" />
<rect x="138.9" y="100.7" width="3.8" height="1.2" fill="#3DA7E2" fill-opacity="0.9" rx="1" />
</g>
<g class="candle-group" style="animation-delay: 0.840s">
<line x1="146.7" y1="97.4" x2="146.7" y2="126.9" stroke="#1e293b" stroke-width="1" />
<rect x="144.8" y="100.7" width="3.8" height="17.8" fill="#475569" fill-opacity="0.9" rx="1" />
</g>
<g class="candle-group" style="animation-delay: 0.880s">
<line x1="152.6" y1="115.5" x2="152.6" y2="122.7" stroke="#1e293b" stroke-width="1" />
<rect x="150.7" y="118.1" width="3.8" height="1.0" fill="#3DA7E2" fill-opacity="0.9" rx="1" />
</g>
<g class="candle-group" style="animation-delay: 0.920s">
<line x1="158.5" y1="79.2" x2="158.5" y2="129.0" stroke="#1e293b" stroke-width="1" />
<rect x="156.6" y="91.1" width="3.8" height="27.0" fill="#3DA7E2" fill-opacity="0.9" rx="1" />
</g>
<g class="candle-group" style="animation-delay: 0.960s">
<line x1="164.4" y1="84.9" x2="164.4" y2="107.4" stroke="#1e293b" stroke-width="1" />
<rect x="162.5" y="91.1" width="3.8" height="5.7" fill="#475569" fill-opacity="0.9" rx="1" />
</g>
<g class="candle-group" style="animation-delay: 1.000s">
<line x1="170.3" y1="82.1" x2="170.3" y2="97.4" stroke="#1e293b" stroke-width="1" />
<rect x="168.4" y="91.7" width="3.8" height="5.1" fill="#3DA7E2" fill-opacity="0.9" rx="1" />
</g>
<g class="candle-group" style="animation-delay: 1.040s">
<line x1="176.2" y1="75.7" x2="176.2" y2="96.6" stroke="#1e293b" stroke-width="1" />
<rect x="174.3" y="78.7" width="3.8" height="13.0" fill="#3DA7E2" fill-opacity="0.9" rx="1" />
</g>
<g class="candle-group" style="animation-delay: 1.080s">
<line x1="182.1" y1="61.0" x2="182.1" y2="84.8" stroke="#1e293b" stroke-width="1" />
<rect x="180.2" y="75.2" width="3.8" height="3.5" fill="#3DA7E2" fill-opacity="0.9" rx="1" />
</g>
<g class="candle-group" style="animation-delay: 1.120s">
<line x1="188.0" y1="62.6" x2="188.0" y2="89.3" stroke="#1e293b" stroke-width="1" />
<rect x="186.1" y="65.7" width="3.8" height="9.5" fill="#3DA7E2" fill-opacity="0.9" rx="1" />
</g>
<g class="candle-group" style="animation-delay: 1.160s">
<line x1="193.9" y1="57.6" x2="193.9" y2="87.2" stroke="#1e293b" stroke-width="1" />
<rect x="192.0" y="65.7" width="3.8" height="11.3" fill="#475569" fill-opacity="0.9" rx="1" />
</g>
<g class="candle-group" style="animation-delay: 1.200s">
<line x1="199.8" y1="58.1" x2="199.8" y2="86.7" stroke="#1e293b" stroke-width="1" />
<rect x="197.9" y="64.7" width="3.8" height="12.3" fill="#3DA7E2" fill-opacity="0.9" rx="1" />
</g>
<g class="candle-group" style="animation-delay: 1.240s">
<line x1="205.7" y1="50.0" x2="205.7" y2="96.9" stroke="#1e293b" stroke-width="1" />
<rect x="203.8" y="64.7" width="3.8" height="23.8" fill="#475569" fill-opacity="0.9" rx="1" />
</g>
<g class="candle-group" style="animation-delay: 1.280s">
<line x1="211.6" y1="77.9" x2="211.6" y2="95.7" stroke="#1e293b" stroke-width="1" />
<rect x="209.7" y="81.7" width="3.8" height="6.9" fill="#3DA7E2" fill-opacity="0.9" rx="1" />
</g>
<g class="candle-group" style="animation-delay: 1.320s">
<line x1="217.5" y1="66.2" x2="217.5" y2="83.5" stroke="#1e293b" stroke-width="1" />
<rect x="215.6" y="72.3" width="3.8" height="9.3" fill="#3DA7E2" fill-opacity="0.9" rx="1" />
</g>
<g class="candle-group" style="animation-delay: 1.360s">
<line x1="223.4" y1="59.3" x2="223.4" y2="89.5" stroke="#1e293b" stroke-width="1" />
<rect x="221.5" y="72.3" width="3.8" height="14.0" fill="#475569" fill-opacity="0.9" rx="1" />
</g>
<g class="candle-group" style="animation-delay: 1.400s">
<line x1="229.3" y1="73.1" x2="229.3" y2="89.7" stroke="#1e293b" stroke-width="1" />
<rect x="227.3" y="83.8" width="3.8" height="2.6" fill="#3DA7E2" fill-opacity="0.9" rx="1" />
</g>
<g class="candle-group" style="animation-delay: 1.440s">
<line x1="235.2" y1="58.6" x2="235.2" y2="97.9" stroke="#1e293b" stroke-width="1" />
<rect x="233.2" y="65.8" width="3.8" height="18.0" fill="#3DA7E2" fill-opacity="0.9" rx="1" />
</g>
<g class="candle-group" style="animation-delay: 1.480s">
<line x1="241.1" y1="59.4" x2="241.1" y2="84.8" stroke="#1e293b" stroke-width="1" />
<rect x="239.1" y="65.8" width="3.8" height="13.6" fill="#475569" fill-opacity="0.9" rx="1" />
</g>
<g class="candle-group" style="animation-delay: 1.520s">
<line x1="246.9" y1="73.0" x2="246.9" y2="95.8" stroke="#1e293b" stroke-width="1" />
<rect x="245.0" y="79.4" width="3.8" height="10.0" fill="#475569" fill-opacity="0.9" rx="1" />
</g>
<g class="candle-group" style="animation-delay: 1.560s">
<line x1="252.8" y1="76.4" x2="252.8" y2="97.9" stroke="#1e293b" stroke-width="1" />
<rect x="250.9" y="89.4" width="3.8" height="3.7" fill="#475569" fill-opacity="0.9" rx="1" />
</g>
<g class="candle-group" style="animation-delay: 1.600s">
<line x1="258.7" y1="81.8" x2="258.7" y2="120.9" stroke="#1e293b" stroke-width="1" />
<rect x="256.8" y="93.0" width="3.8" height="21.4" fill="#475569" fill-opacity="0.9" rx="1" />
</g>
<g class="candle-group" style="animation-delay: 1.640s">
<line x1="264.6" y1="103.1" x2="264.6" y2="148.3" stroke="#1e293b" stroke-width="1" />
<rect x="262.7" y="114.4" width="3.8" height="23.0" fill="#475569" fill-opacity="0.9" rx="1" />
</g>
<g class="candle-group" style="animation-delay: 1.680s">
<line x1="270.5" y1="115.2" x2="270.5" y2="141.5" stroke="#1e293b" stroke-width="1" />
<rect x="268.6" y="127.5" width="3.8" height="10.0" fill="#3DA7E2" fill-opacity="0.9" rx="1" />
</g>
<g class="candle-group" style="animation-delay: 1.720s">
<line x1="276.4" y1="102.3" x2="276.4" y2="140.3" stroke="#1e293b" stroke-width="1" />
<rect x="274.5" y="107.7" width="3.8" height="19.7" fill="#3DA7E2" fill-opacity="0.9" rx="1" />
</g>
<g class="candle-group" style="animation-delay: 1.760s">
<line x1="282.3" y1="71.4" x2="282.3" y2="114.1" stroke="#1e293b" stroke-width="1" />
<rect x="280.4" y="79.7" width="3.8" height="28.0" fill="#3DA7E2" fill-opacity="0.9" rx="1" />
</g>
<g class="candle-group" style="animation-delay: 1.800s">
<line x1="288.2" y1="54.8" x2="288.2" y2="87.3" stroke="#1e293b" stroke-width="1" />
<rect x="286.3" y="65.6" width="3.8" height="14.2" fill="#3DA7E2" fill-opacity="0.9" rx="1" />
</g>
<g class="candle-group" style="animation-delay: 1.840s">
<line x1="294.1" y1="60.2" x2="294.1" y2="95.8" stroke="#1e293b" stroke-width="1" />
<rect x="292.2" y="65.6" width="3.8" height="20.1" fill="#475569" fill-opacity="0.9" rx="1" />
</g>
<g class="candle-group" style="animation-delay: 1.880s">
<line x1="300.0" y1="79.5" x2="300.0" y2="123.0" stroke="#1e293b" stroke-width="1" />
<rect x="298.1" y="85.6" width="3.8" height="23.6" fill="#475569" fill-opacity="0.9" rx="1" />
</g>
<g class="candle-group" style="animation-delay: 1.920s">
<line x1="305.9" y1="92.2" x2="305.9" y2="111.3" stroke="#1e293b" stroke-width="1" />
<rect x="304.0" y="96.1" width="3.8" height="13.1" fill="#3DA7E2" fill-opacity="0.9" rx="1" />
</g>
<g class="candle-group" style="animation-delay: 1.960s">
<line x1="311.8" y1="81.3" x2="311.8" y2="100.4" stroke="#1e293b" stroke-width="1" />
<rect x="309.9" y="90.5" width="3.8" height="5.6" fill="#3DA7E2" fill-opacity="0.9" rx="1" />
</g>
<g class="candle-group" style="animation-delay: 2.000s">
<line x1="317.7" y1="72.9" x2="317.7" y2="100.2" stroke="#1e293b" stroke-width="1" />
<rect x="315.8" y="87.8" width="3.8" height="2.7" fill="#3DA7E2" fill-opacity="0.9" rx="1" />
</g>
<g class="candle-group" style="animation-delay: 2.040s">
<line x1="323.6" y1="82.7" x2="323.6" y2="94.9" stroke="#1e293b" stroke-width="1" />
<rect x="321.7" y="83.7" width="3.8" height="4.1" fill="#3DA7E2" fill-opacity="0.9" rx="1" />
</g>
<g class="candle-group" style="animation-delay: 2.080s">
<line x1="329.5" y1="69.3" x2="329.5" y2="114.6" stroke="#1e293b" stroke-width="1" />
<rect x="327.6" y="83.7" width="3.8" height="23.2" fill="#475569" fill-opacity="0.9" rx="1" />
</g>
<g class="candle-group" style="animation-delay: 2.120s">
<line x1="335.4" y1="89.5" x2="335.4" y2="107.4" stroke="#1e293b" stroke-width="1" />
<rect x="333.5" y="99.7" width="3.8" height="7.2" fill="#3DA7E2" fill-opacity="0.9" rx="1" />
</g>
<g class="candle-group" style="animation-delay: 2.160s">
<line x1="341.3" y1="70.5" x2="341.3" y2="100.7" stroke="#1e293b" stroke-width="1" />
<rect x="339.3" y="81.0" width="3.8" height="18.7" fill="#3DA7E2" fill-opacity="0.9" rx="1" />
</g>
<g class="candle-group" style="animation-delay: 2.200s">
<line x1="347.2" y1="44.4" x2="347.2" y2="95.8" stroke="#1e293b" stroke-width="1" />
<rect x="345.2" y="57.4" width="3.8" height="23.6" fill="#3DA7E2" fill-opacity="0.9" rx="1" />
</g>
<g class="candle-group" style="animation-delay: 2.240s">
<line x1="353.1" y1="43.6" x2="353.1" y2="88.5" stroke="#1e293b" stroke-width="1" />
<rect x="351.1" y="57.4" width="3.8" height="19.5" fill="#475569" fill-opacity="0.9" rx="1" />
</g>
<g class="candle-group" style="animation-delay: 2.280s">
<line x1="358.9" y1="75.6" x2="358.9" y2="98.0" stroke="#1e293b" stroke-width="1" />
<rect x="357.0" y="76.8" width="3.8" height="11.0" fill="#475569" fill-opacity="0.9" rx="1" />
</g>
<g class="candle-group" style="animation-delay: 2.320s">
<line x1="364.8" y1="79.6" x2="364.8" y2="120.9" stroke="#1e293b" stroke-width="1" />
<rect x="362.9" y="87.8" width="3.8" height="21.0" fill="#475569" fill-opacity="0.9" rx="1" />
</g>
<g class="candle-group" style="animation-delay: 2.360s">
<line x1="370.7" y1="103.9" x2="370.7" y2="118.7" stroke="#1e293b" stroke-width="1" />
<rect x="368.8" y="108.9" width="3.8" height="3.6" fill="#475569" fill-opacity="0.9" rx="1" />
</g>
<g class="candle-group" style="animation-delay: 2.400s">
<line x1="376.6" y1="111.5" x2="376.6" y2="139.2" stroke="#1e293b" stroke-width="1" />
<rect x="374.7" y="112.4" width="3.8" height="18.4" fill="#475569" fill-opacity="0.9" rx="1" />
</g>
<g class="candle-group" style="animation-delay: 2.440s">
<line x1="382.5" y1="97.4" x2="382.5" y2="132.3" stroke="#1e293b" stroke-width="1" />
<rect x="380.6" y="112.2" width="3.8" height="18.6" fill="#3DA7E2" fill-opacity="0.9" rx="1" />
</g>
<g class="candle-group" style="animation-delay: 2.480s">
<line x1="388.4" y1="100.0" x2="388.4" y2="125.0" stroke="#1e293b" stroke-width="1" />
<rect x="386.5" y="112.2" width="3.8" height="8.4" fill="#475569" fill-opacity="0.9" rx="1" />
</g>
<g class="candle-group" style="animation-delay: 2.520s">
<line x1="394.3" y1="90.7" x2="394.3" y2="133.5" stroke="#1e293b" stroke-width="1" />
<rect x="392.4" y="104.8" width="3.8" height="15.9" fill="#3DA7E2" fill-opacity="0.9" rx="1" />
</g>
<g class="candle-group" style="animation-delay: 2.560s">
<line x1="400.2" y1="85.5" x2="400.2" y2="117.6" stroke="#1e293b" stroke-width="1" />
<rect x="398.3" y="96.4" width="3.8" height="8.4" fill="#3DA7E2" fill-opacity="0.9" rx="1" />
</g>
<g class="candle-group" style="animation-delay: 2.600s">
<line x1="406.1" y1="91.3" x2="406.1" y2="124.3" stroke="#1e293b" stroke-width="1" />
<rect x="404.2" y="96.4" width="3.8" height="16.9" fill="#475569" fill-opacity="0.9" rx="1" />
</g>
<g class="candle-group" style="animation-delay: 2.640s">
<line x1="412.0" y1="101.1" x2="412.0" y2="127.9" stroke="#1e293b" stroke-width="1" />
<rect x="410.1" y="112.6" width="3.8" height="1.0" fill="#3DA7E2" fill-opacity="0.9" rx="1" />
</g>
<g class="candle-group" style="animation-delay: 2.680s">
<line x1="417.9" y1="90.1" x2="417.9" y2="123.4" stroke="#1e293b" stroke-width="1" />
<rect x="416.0" y="99.0" width="3.8" height="13.6" fill="#3DA7E2" fill-opacity="0.9" rx="1" />
</g>
<g class="candle-group" style="animation-delay: 2.720s">
<line x1="423.8" y1="73.2" x2="423.8" y2="99.7" stroke="#1e293b" stroke-width="1" />
<rect x="421.9" y="74.7" width="3.8" height="24.2" fill="#3DA7E2" fill-opacity="0.9" rx="1" />
</g>
<g class="candle-group" style="animation-delay: 2.760s">
<line x1="429.7" y1="44.8" x2="429.7" y2="84.6" stroke="#1e293b" stroke-width="1" />
<rect x="427.8" y="57.6" width="3.8" height="17.2" fill="#3DA7E2" fill-opacity="0.9" rx="1" />
</g>
<g class="candle-group" style="animation-delay: 2.800s">
<line x1="435.6" y1="53.6" x2="435.6" y2="72.7" stroke="#1e293b" stroke-width="1" />
<rect x="433.7" y="57.6" width="3.8" height="1.0" fill="#475569" fill-opacity="0.9" rx="1" />
</g>
<g class="candle-group" style="animation-delay: 2.840s">
<line x1="441.5" y1="30.6" x2="441.5" y2="67.9" stroke="#1e293b" stroke-width="1" />
<rect x="439.6" y="45.3" width="3.8" height="12.6" fill="#3DA7E2" fill-opacity="0.9" rx="1" />
</g>
<g class="candle-group" style="animation-delay: 2.880s">
<line x1="447.4" y1="21.4" x2="447.4" y2="56.2" stroke="#1e293b" stroke-width="1" />
<rect x="445.5" y="24.9" width="3.8" height="20.5" fill="#3DA7E2" fill-opacity="0.9" rx="1" />
</g>
<g class="candle-group" style="animation-delay: 2.920s">
<line x1="453.3" y1="20.0" x2="453.3" y2="50.9" stroke="#1e293b" stroke-width="1" />
<rect x="451.3" y="24.9" width="3.8" height="19.3" fill="#475569" fill-opacity="0.9" rx="1" />
</g>
<g class="candle-group" style="animation-delay: 2.960s">
<line x1="459.2" y1="26.2" x2="459.2" y2="53.6" stroke="#1e293b" stroke-width="1" />
<rect x="457.2" y="41.1" width="3.8" height="3.1" fill="#3DA7E2" fill-opacity="0.9" rx="1" />
</g>
<g class="candle-group" style="animation-delay: 3.000s">
<line x1="465.1" y1="29.1" x2="465.1" y2="71.2" stroke="#1e293b" stroke-width="1" />
<rect x="463.1" y="41.1" width="3.8" height="18.7" fill="#475569" fill-opacity="0.9" rx="1" />
</g>
<g class="candle-group" style="animation-delay: 3.040s">
<line x1="470.9" y1="26.6" x2="470.9" y2="71.5" stroke="#1e293b" stroke-width="1" />
<rect x="469.0" y="40.6" width="3.8" height="19.2" fill="#3DA7E2" fill-opacity="0.9" rx="1" />
</g>
<g class="candle-group" style="animation-delay: 3.080s">
<line x1="476.8" y1="27.9" x2="476.8" y2="41.5" stroke="#1e293b" stroke-width="1" />
<rect x="474.9" y="37.8" width="3.8" height="2.8" fill="#3DA7E2" fill-opacity="0.9" rx="1" />
</g>
<g class="candle-group" style="animation-delay: 3.120s">
<line x1="482.7" y1="31.7" x2="482.7" y2="53.6" stroke="#1e293b" stroke-width="1" />
<rect x="480.8" y="37.8" width="3.8" height="4.7" fill="#475569" fill-opacity="0.9" rx="1" />
</g>
<g class="candle-group" style="animation-delay: 3.160s">
<line x1="488.6" y1="39.5" x2="488.6" y2="67.2" stroke="#1e293b" stroke-width="1" />
<rect x="486.7" y="42.5" width="3.8" height="21.1" fill="#475569" fill-opacity="0.9" rx="1" />
</g>
<g class="candle-group" style="animation-delay: 3.200s">
<line x1="494.5" y1="56.6" x2="494.5" y2="92.3" stroke="#1e293b" stroke-width="1" />
<rect x="492.6" y="63.6" width="3.8" height="13.8" fill="#475569" fill-opacity="0.9" rx="1" />
</g>
<g class="candle-group" style="animation-delay: 3.240s">
<line x1="500.4" y1="76.4" x2="500.4" y2="84.8" stroke="#1e293b" stroke-width="1" />
<rect x="498.5" y="77.5" width="3.8" height="7.1" fill="#475569" fill-opacity="0.9" rx="1" />
</g>
<g class="candle-group" style="animation-delay: 3.280s">
<line x1="506.3" y1="63.9" x2="506.3" y2="99.4" stroke="#1e293b" stroke-width="1" />
<rect x="504.4" y="69.8" width="3.8" height="14.7" fill="#3DA7E2" fill-opacity="0.9" rx="1" />
</g>
<g class="candle-group" style="animation-delay: 3.320s">
<line x1="512.2" y1="55.3" x2="512.2" y2="85.8" stroke="#1e293b" stroke-width="1" />
<rect x="510.3" y="69.8" width="3.8" height="11.3" fill="#475569" fill-opacity="0.9" rx="1" />
</g>
<g class="candle-group" style="animation-delay: 3.360s">
<line x1="518.1" y1="40.3" x2="518.1" y2="87.1" stroke="#1e293b" stroke-width="1" />
<rect x="516.2" y="54.2" width="3.8" height="26.9" fill="#3DA7E2" fill-opacity="0.9" rx="1" />
</g>
<g class="candle-group" style="animation-delay: 3.400s">
<line x1="524.0" y1="44.9" x2="524.0" y2="82.6" stroke="#1e293b" stroke-width="1" />
<rect x="522.1" y="54.2" width="3.8" height="19.6" fill="#475569" fill-opacity="0.9" rx="1" />
</g>
<g class="candle-group" style="animation-delay: 3.440s">
<line x1="529.9" y1="62.7" x2="529.9" y2="86.4" stroke="#1e293b" stroke-width="1" />
<rect x="528.0" y="64.8" width="3.8" height="9.0" fill="#3DA7E2" fill-opacity="0.9" rx="1" />
</g>
<g class="candle-group" style="animation-delay: 3.480s">
<line x1="535.8" y1="60.1" x2="535.8" y2="72.2" stroke="#1e293b" stroke-width="1" />
<rect x="533.9" y="64.8" width="3.8" height="6.3" fill="#475569" fill-opacity="0.9" rx="1" />
</g>
<g class="candle-group" style="animation-delay: 3.520s">
<line x1="541.7" y1="64.4" x2="541.7" y2="96.3" stroke="#1e293b" stroke-width="1" />
<rect x="539.8" y="71.1" width="3.8" height="23.2" fill="#475569" fill-opacity="0.9" rx="1" />
</g>
<g class="candle-group" style="animation-delay: 3.560s">
<line x1="547.6" y1="83.3" x2="547.6" y2="113.8" stroke="#1e293b" stroke-width="1" />
<rect x="545.7" y="94.3" width="3.8" height="8.2" fill="#475569" fill-opacity="0.9" rx="1" />
</g>
<g class="candle-group" style="animation-delay: 3.600s">
<line x1="553.5" y1="99.2" x2="553.5" y2="112.9" stroke="#1e293b" stroke-width="1" />
<rect x="551.6" y="102.5" width="3.8" height="1.0" fill="#475569" fill-opacity="0.9" rx="1" />
</g>
<g class="candle-group" style="animation-delay: 3.640s">
<line x1="559.4" y1="88.8" x2="559.4" y2="119.1" stroke="#1e293b" stroke-width="1" />
<rect x="557.5" y="103.5" width="3.8" height="4.2" fill="#475569" fill-opacity="0.9" rx="1" />
</g>
<g class="candle-group" style="animation-delay: 3.680s">
<line x1="565.3" y1="83.0" x2="565.3" y2="119.2" stroke="#1e293b" stroke-width="1" />
<rect x="563.3" y="87.0" width="3.8" height="20.6" fill="#3DA7E2" fill-opacity="0.9" rx="1" />
</g>
<g class="candle-group" style="animation-delay: 3.720s">
<line x1="571.2" y1="83.2" x2="571.2" y2="90.9" stroke="#1e293b" stroke-width="1" />
<rect x="569.2" y="87.0" width="3.8" height="2.2" fill="#475569" fill-opacity="0.9" rx="1" />
</g>
<g class="candle-group" style="animation-delay: 3.760s">
<line x1="577.1" y1="77.0" x2="577.1" y2="93.0" stroke="#1e293b" stroke-width="1" />
<rect x="575.1" y="86.7" width="3.8" height="2.5" fill="#3DA7E2" fill-opacity="0.9" rx="1" />
</g>
</g>
</svg>
