<?xml version="1.0" encoding="UTF-8"?><svg id="uuid-b27e1cd4-82a8-41c1-8e0b-cc5053329b51" xmlns="http://www.w3.org/2000/svg" xmlns:xlink="http://www.w3.org/1999/xlink" viewBox="0 0 37.35 45">
<title>PayPal 2024 icon logo - Brandlogos.net</title><defs><clipPath id="uuid-a44e4e19-5cfa-4d0b-904a-d3baa99153ff"><rect width="37.35" height="45" style="fill:none;"/></clipPath></defs><g style="clip-path:url(#uuid-a44e4e19-5cfa-4d0b-904a-d3baa99153ff);"><path d="M31.86,10.35c0,5.57-5.14,12.15-12.93,12.15h-7.5l-.37,2.32-1.75,11.18H0L5.61,0h15.1c5.08,0,9.08,2.83,10.56,6.77.42,1.14.63,2.36.6,3.58Z" style="fill:#002991;"/><path d="M37.23,20.7c-1.03,6.24-6.43,10.82-12.75,10.8h-5.21l-2.17,13.5H7.83l1.48-9,1.75-11.18.37-2.32h7.5c7.77,0,12.93-6.58,12.93-12.15,3.83,1.97,6.06,5.96,5.37,10.35Z" style="fill:#60cdff;"/><path d="M31.86,10.35c-1.6-.84-3.55-1.35-5.67-1.35h-12.64l-2.12,13.5h7.5c7.77,0,12.93-6.58,12.93-12.15Z" style="fill:#008cff;"/></g></svg>