<svg xmlns="http://www.w3.org/2000/svg" viewBox="0 0 1139 485" preserveAspectRatio="xMidYMid meet">
  <line x1="22.50" y1="40" x2="22.50" y2="69" stroke="#0ea5a4" stroke-width="1.2" stroke-linecap="round" />
  <rect x="19.50" y="61" width="6.00" height="7.00" fill="#0ea5a4" stroke="#0ea5a4" />
  <line x1="33.50" y1="39" x2="33.50" y2="70" stroke="#0ea5a4" stroke-width="1.2" stroke-linecap="round" />
  <rect x="30.50" y="68" width="6.00" height="1.00" fill="#0ea5a4" stroke="#0ea5a4" />
  <line x1="44.50" y1="40" x2="44.50" y2="69" stroke="#0ea5a4" stroke-width="1.2" stroke-linecap="round" />
  <rect x="41.50" y="61" width="6.00" height="4.00" fill="#0ea5a4" stroke="#0ea5a4" />
  <line x1="55.50" y1="39" x2="55.50" y2="70" stroke="#0ea5a4" stroke-width="1.2" stroke-linecap="round" />
  <rect x="52.50" y="68" width="6.00" height="1.00" fill="#0ea5a4" stroke="#0ea5a4" />
  <line x1="66.50" y1="40" x2="66.50" y2="70" stroke="#0ea5a4" stroke-width="1.2" stroke-linecap="round" />
  <rect x="63.50" y="68" width="6.00" height="1.00" fill="#0ea5a4" stroke="#0ea5a4" />
  <line x1="77.50" y1="40" x2="77.50" y2="81" stroke="#0ea5a4" stroke-width="1.2" stroke-linecap="round" />
  <rect x="74.50" y="40" width="6.00" height="40.00" fill="#0ea5a4" stroke="#0ea5a4" />
  <line x1="88.50" y1="39" x2="88.50" y2="81" stroke="#0ea5a4" stroke-width="1.2" stroke-linecap="round" />
  <rect x="85.50" y="39" width="6.00" height="21.00" fill="#0ea5a4" stroke="#0ea5a4" />
  <line x1="99.50" y1="39" x2="99.50" y2="70" stroke="#0ea5a4" stroke-width="1.2" stroke-linecap="round" />
  <rect x="96.50" y="46" width="6.00" height="23.00" fill="#0ea5a4" stroke="#0ea5a4" />
  <line x1="110.50" y1="28" x2="110.50" y2="69" stroke="#0ea5a4" stroke-width="1.2" stroke-linecap="round" />
  <rect x="107.50" y="28" width="6.00" height="40.00" fill="#0ea5a4" stroke="#0ea5a4" />
  <line x1="122.00" y1="28" x2="122.00" y2="351" stroke="#0ea5a4" stroke-width="1.2" stroke-linecap="round" />
  <rect x="118.50" y="48" width="7.00" height="298.00" fill="#0ea5a4" stroke="#0ea5a4" />
  <line x1="133.50" y1="32" x2="133.50" y2="317" stroke="#0ea5a4" stroke-width="1.2" stroke-linecap="round" />
  <rect x="130.50" y="35" width="6.00" height="29.00" fill="#0ea5a4" stroke="#0ea5a4" />
  <line x1="144.50" y1="40" x2="144.50" y2="317" stroke="#0ea5a4" stroke-width="1.2" stroke-linecap="round" />
  <rect x="141.50" y="50" width="6.00" height="14.00" fill="#0ea5a4" stroke="#0ea5a4" />
  <line x1="155.50" y1="39" x2="155.50" y2="330" stroke="#0ea5a4" stroke-width="1.2" stroke-linecap="round" />
  <rect x="152.50" y="42" width="6.00" height="22.00" fill="#0ea5a4" stroke="#0ea5a4" />
  <line x1="166.50" y1="40" x2="166.50" y2="301" stroke="#0ea5a4" stroke-width="1.2" stroke-linecap="round" />
  <rect x="163.50" y="49" width="6.00" height="13.00" fill="#0ea5a4" stroke="#0ea5a4" />
  <line x1="177.50" y1="40" x2="177.50" y2="308" stroke="#0ea5a4" stroke-width="1.2" stroke-linecap="round" />
  <rect x="174.50" y="43" width="6.00" height="7.00" fill="#0ea5a4" stroke="#0ea5a4" />
  <line x1="188.50" y1="30" x2="188.50" y2="308" stroke="#0ea5a4" stroke-width="1.2" stroke-linecap="round" />
  <rect x="185.50" y="54" width="6.00" height="250.00" fill="#0ea5a4" stroke="#0ea5a4" />
  <line x1="199.50" y1="28" x2="199.50" y2="305" stroke="#0ea5a4" stroke-width="1.2" stroke-linecap="round" />
  <rect x="196.50" y="31" width="6.00" height="14.00" fill="#0ea5a4" stroke="#0ea5a4" />
  <line x1="210.50" y1="8" x2="210.50" y2="303" stroke="#0ea5a4" stroke-width="1.2" stroke-linecap="round" />
  <rect x="207.50" y="26" width="6.00" height="22.00" fill="#0ea5a4" stroke="#0ea5a4" />
  <line x1="221.50" y1="6" x2="221.50" y2="294" stroke="#0ea5a4" stroke-width="1.2" stroke-linecap="round" />
  <rect x="218.50" y="45" width="6.00" height="123.00" fill="#0ea5a4" stroke="#0ea5a4" />
  <line x1="233.00" y1="45" x2="233.00" y2="281" stroke="#0ea5a4" stroke-width="1.2" stroke-linecap="round" />
  <rect x="229.50" y="177" width="7.00" height="101.00" fill="#0ea5a4" stroke="#0ea5a4" />
  <line x1="244.50" y1="157" x2="244.50" y2="290" stroke="#0ea5a4" stroke-width="1.2" stroke-linecap="round" />
  <rect x="241.50" y="158" width="6.00" height="30.00" fill="#0ea5a4" stroke="#0ea5a4" />
  <line x1="255.50" y1="165" x2="255.50" y2="305" stroke="#0ea5a4" stroke-width="1.2" stroke-linecap="round" />
  <rect x="252.50" y="173" width="6.00" height="7.00" fill="#0ea5a4" stroke="#0ea5a4" />
  <line x1="266.50" y1="165" x2="266.50" y2="305" stroke="#0ea5a4" stroke-width="1.2" stroke-linecap="round" />
  <rect x="263.50" y="166" width="6.00" height="25.00" fill="#0ea5a4" stroke="#0ea5a4" />
  <line x1="277.50" y1="166" x2="277.50" y2="324" stroke="#0ea5a4" stroke-width="1.2" stroke-linecap="round" />
  <rect x="274.50" y="183" width="6.00" height="4.00" fill="#0ea5a4" stroke="#0ea5a4" />
  <line x1="288.50" y1="161" x2="288.50" y2="322" stroke="#0ea5a4" stroke-width="1.2" stroke-linecap="round" />
  <rect x="285.50" y="167" width="6.00" height="4.00" fill="#0ea5a4" stroke="#0ea5a4" />
  <line x1="299.50" y1="157" x2="299.50" y2="322" stroke="#0ea5a4" stroke-width="1.2" stroke-linecap="round" />
  <rect x="296.50" y="159" width="6.00" height="16.00" fill="#0ea5a4" stroke="#0ea5a4" />
  <line x1="310.50" y1="166" x2="310.50" y2="346" stroke="#0ea5a4" stroke-width="1.2" stroke-linecap="round" />
  <rect x="307.50" y="168" width="6.00" height="18.00" fill="#0ea5a4" stroke="#0ea5a4" />
  <line x1="321.50" y1="159" x2="321.50" y2="359" stroke="#0ea5a4" stroke-width="1.2" stroke-linecap="round" />
  <rect x="318.50" y="166" width="6.00" height="145.00" fill="#0ea5a4" stroke="#0ea5a4" />
  <line x1="332.50" y1="158" x2="332.50" y2="359" stroke="#0ea5a4" stroke-width="1.2" stroke-linecap="round" />
  <rect x="329.50" y="165" width="6.00" height="5.00" fill="#0ea5a4" stroke="#0ea5a4" />
  <line x1="344.00" y1="157" x2="344.00" y2="354" stroke="#0ea5a4" stroke-width="1.2" stroke-linecap="round" />
  <rect x="340.50" y="159" width="7.00" height="10.00" fill="#0ea5a4" stroke="#0ea5a4" />
  <line x1="355.50" y1="157" x2="355.50" y2="349" stroke="#0ea5a4" stroke-width="1.2" stroke-linecap="round" />
  <rect x="352.50" y="159" width="6.00" height="29.00" fill="#0ea5a4" stroke="#0ea5a4" />
  <line x1="366.50" y1="157" x2="366.50" y2="361" stroke="#0ea5a4" stroke-width="1.2" stroke-linecap="round" />
  <rect x="363.50" y="185" width="6.00" height="5.00" fill="#0ea5a4" stroke="#0ea5a4" />
  <line x1="377.50" y1="157" x2="377.50" y2="361" stroke="#0ea5a4" stroke-width="1.2" stroke-linecap="round" />
  <rect x="374.50" y="159" width="6.00" height="31.00" fill="#0ea5a4" stroke="#0ea5a4" />
  <line x1="388.50" y1="165" x2="388.50" y2="362" stroke="#0ea5a4" stroke-width="1.2" stroke-linecap="round" />
  <rect x="385.50" y="167" width="6.00" height="5.00" fill="#0ea5a4" stroke="#0ea5a4" />
  <line x1="399.50" y1="166" x2="399.50" y2="348" stroke="#0ea5a4" stroke-width="1.2" stroke-linecap="round" />
  <rect x="396.50" y="168" width="6.00" height="4.00" fill="#0ea5a4" stroke="#0ea5a4" />
  <line x1="410.50" y1="165" x2="410.50" y2="348" stroke="#0ea5a4" stroke-width="1.2" stroke-linecap="round" />
  <rect x="407.50" y="167" width="6.00" height="4.00" fill="#0ea5a4" stroke="#0ea5a4" />
  <line x1="421.50" y1="165" x2="421.50" y2="343" stroke="#0ea5a4" stroke-width="1.2" stroke-linecap="round" />
  <rect x="418.50" y="171" width="6.00" height="14.00" fill="#0ea5a4" stroke="#0ea5a4" />
  <line x1="432.50" y1="165" x2="432.50" y2="341" stroke="#0ea5a4" stroke-width="1.2" stroke-linecap="round" />
  <rect x="429.50" y="171" width="6.00" height="18.00" fill="#0ea5a4" stroke="#0ea5a4" />
  <line x1="443.50" y1="166" x2="443.50" y2="341" stroke="#0ea5a4" stroke-width="1.2" stroke-linecap="round" />
  <rect x="440.50" y="168" width="6.00" height="8.00" fill="#0ea5a4" stroke="#0ea5a4" />
  <line x1="455.00" y1="165" x2="455.00" y2="349" stroke="#0ea5a4" stroke-width="1.2" stroke-linecap="round" />
  <rect x="451.50" y="167" width="7.00" height="4.00" fill="#0ea5a4" stroke="#0ea5a4" />
  <line x1="466.50" y1="166" x2="466.50" y2="365" stroke="#0ea5a4" stroke-width="1.2" stroke-linecap="round" />
  <rect x="463.50" y="332" width="6.00" height="15.00" fill="#0ea5a4" stroke="#0ea5a4" />
  <line x1="477.50" y1="166" x2="477.50" y2="379" stroke="#0ea5a4" stroke-width="1.2" stroke-linecap="round" />
  <rect x="474.50" y="179" width="6.00" height="5.00" fill="#0ea5a4" stroke="#0ea5a4" />
  <line x1="488.50" y1="166" x2="488.50" y2="379" stroke="#0ea5a4" stroke-width="1.2" stroke-linecap="round" />
  <rect x="485.50" y="168" width="6.00" height="5.00" fill="#0ea5a4" stroke="#0ea5a4" />
  <line x1="499.50" y1="165" x2="499.50" y2="386" stroke="#0ea5a4" stroke-width="1.2" stroke-linecap="round" />
  <rect x="496.50" y="173" width="6.00" height="11.00" fill="#0ea5a4" stroke="#0ea5a4" />
  <line x1="510.50" y1="165" x2="510.50" y2="403" stroke="#0ea5a4" stroke-width="1.2" stroke-linecap="round" />
  <rect x="507.50" y="167" width="6.00" height="18.00" fill="#0ea5a4" stroke="#0ea5a4" />
  <line x1="521.50" y1="166" x2="521.50" y2="403" stroke="#0ea5a4" stroke-width="1.2" stroke-linecap="round" />
  <rect x="518.50" y="174" width="6.00" height="196.00" fill="#0ea5a4" stroke="#0ea5a4" />
  <line x1="532.50" y1="165" x2="532.50" y2="405" stroke="#0ea5a4" stroke-width="1.2" stroke-linecap="round" />
  <rect x="529.50" y="168" width="6.00" height="6.00" fill="#0ea5a4" stroke="#0ea5a4" />
  <line x1="543.50" y1="165" x2="543.50" y2="394" stroke="#0ea5a4" stroke-width="1.2" stroke-linecap="round" />
  <rect x="540.50" y="356" width="6.00" height="6.00" fill="#0ea5a4" stroke="#0ea5a4" />
  <line x1="554.50" y1="365" x2="554.50" y2="419" stroke="#0ea5a4" stroke-width="1.2" stroke-linecap="round" />
  <rect x="551.50" y="380" width="6.00" height="4.00" fill="#0ea5a4" stroke="#0ea5a4" />
  <line x1="566.00" y1="166" x2="566.00" y2="419" stroke="#0ea5a4" stroke-width="1.2" stroke-linecap="round" />
  <rect x="562.50" y="169" width="7.00" height="19.00" fill="#0ea5a4" stroke="#0ea5a4" />
  <line x1="577.50" y1="165" x2="577.50" y2="415" stroke="#0ea5a4" stroke-width="1.2" stroke-linecap="round" />
  <rect x="574.50" y="168" width="6.00" height="225.00" fill="#0ea5a4" stroke="#0ea5a4" />
  <line x1="588.50" y1="165" x2="588.50" y2="401" stroke="#0ea5a4" stroke-width="1.2" stroke-linecap="round" />
  <rect x="585.50" y="167" width="6.00" height="6.00" fill="#0ea5a4" stroke="#0ea5a4" />
  <line x1="599.50" y1="166" x2="599.50" y2="401" stroke="#0ea5a4" stroke-width="1.2" stroke-linecap="round" />
  <rect x="596.50" y="174" width="6.00" height="12.00" fill="#0ea5a4" stroke="#0ea5a4" />
  <line x1="610.50" y1="165" x2="610.50" y2="379" stroke="#0ea5a4" stroke-width="1.2" stroke-linecap="round" />
  <rect x="607.50" y="167" width="6.00" height="22.00" fill="#0ea5a4" stroke="#0ea5a4" />
  <line x1="621.50" y1="166" x2="621.50" y2="394" stroke="#0ea5a4" stroke-width="1.2" stroke-linecap="round" />
  <rect x="618.50" y="174" width="6.00" height="11.00" fill="#0ea5a4" stroke="#0ea5a4" />
  <line x1="632.50" y1="166" x2="632.50" y2="393" stroke="#0ea5a4" stroke-width="1.2" stroke-linecap="round" />
  <rect x="629.50" y="168" width="6.00" height="6.00" fill="#0ea5a4" stroke="#0ea5a4" />
  <line x1="643.50" y1="165" x2="643.50" y2="400" stroke="#0ea5a4" stroke-width="1.2" stroke-linecap="round" />
  <rect x="640.50" y="167" width="6.00" height="6.00" fill="#0ea5a4" stroke="#0ea5a4" />
  <line x1="654.50" y1="165" x2="654.50" y2="425" stroke="#0ea5a4" stroke-width="1.2" stroke-linecap="round" />
  <rect x="651.50" y="168" width="6.00" height="26.00" fill="#0ea5a4" stroke="#0ea5a4" />
  <line x1="665.50" y1="166" x2="665.50" y2="418" stroke="#0ea5a4" stroke-width="1.2" stroke-linecap="round" />
  <rect x="662.50" y="169" width="6.00" height="19.00" fill="#0ea5a4" stroke="#0ea5a4" />
  <line x1="677.00" y1="165" x2="677.00" y2="418" stroke="#0ea5a4" stroke-width="1.2" stroke-linecap="round" />
  <rect x="673.50" y="174" width="7.00" height="13.00" fill="#0ea5a4" stroke="#0ea5a4" />
  <line x1="688.50" y1="165" x2="688.50" y2="416" stroke="#0ea5a4" stroke-width="1.2" stroke-linecap="round" />
  <rect x="685.50" y="168" width="6.00" height="18.00" fill="#0ea5a4" stroke="#0ea5a4" />
  <line x1="699.50" y1="166" x2="699.50" y2="414" stroke="#0ea5a4" stroke-width="1.2" stroke-linecap="round" />
  <rect x="696.50" y="169" width="6.00" height="6.00" fill="#0ea5a4" stroke="#0ea5a4" />
  <line x1="710.50" y1="165" x2="710.50" y2="414" stroke="#0ea5a4" stroke-width="1.2" stroke-linecap="round" />
  <rect x="707.50" y="168" width="6.00" height="6.00" fill="#0ea5a4" stroke="#0ea5a4" />
  <line x1="721.50" y1="166" x2="721.50" y2="417" stroke="#0ea5a4" stroke-width="1.2" stroke-linecap="round" />
  <rect x="718.50" y="395" width="6.00" height="18.00" fill="#0ea5a4" stroke="#0ea5a4" />
  <line x1="732.50" y1="170" x2="732.50" y2="440" stroke="#0ea5a4" stroke-width="1.2" stroke-linecap="round" />
  <rect x="729.50" y="423" width="6.00" height="6.00" fill="#0ea5a4" stroke="#0ea5a4" />
  <line x1="743.50" y1="165" x2="743.50" y2="439" stroke="#0ea5a4" stroke-width="1.2" stroke-linecap="round" />
  <rect x="740.50" y="168" width="6.00" height="20.00" fill="#0ea5a4" stroke="#0ea5a4" />
  <line x1="754.50" y1="165" x2="754.50" y2="439" stroke="#0ea5a4" stroke-width="1.2" stroke-linecap="round" />
  <rect x="751.50" y="175" width="6.00" height="7.00" fill="#0ea5a4" stroke="#0ea5a4" />
  <line x1="765.50" y1="166" x2="765.50" y2="421" stroke="#0ea5a4" stroke-width="1.2" stroke-linecap="round" />
  <rect x="762.50" y="169" width="6.00" height="236.00" fill="#0ea5a4" stroke="#0ea5a4" />
  <line x1="776.50" y1="157" x2="776.50" y2="416" stroke="#0ea5a4" stroke-width="1.2" stroke-linecap="round" />
  <rect x="773.50" y="166" width="6.00" height="7.00" fill="#0ea5a4" stroke="#0ea5a4" />
  <line x1="788.00" y1="157" x2="788.00" y2="416" stroke="#0ea5a4" stroke-width="1.2" stroke-linecap="round" />
  <rect x="784.50" y="173" width="7.00" height="13.00" fill="#0ea5a4" stroke="#0ea5a4" />
  <line x1="799.50" y1="166" x2="799.50" y2="418" stroke="#0ea5a4" stroke-width="1.2" stroke-linecap="round" />
  <rect x="796.50" y="169" width="6.00" height="19.00" fill="#0ea5a4" stroke="#0ea5a4" />
  <line x1="810.50" y1="165" x2="810.50" y2="406" stroke="#0ea5a4" stroke-width="1.2" stroke-linecap="round" />
  <rect x="807.50" y="168" width="6.00" height="18.00" fill="#0ea5a4" stroke="#0ea5a4" />
  <line x1="821.50" y1="165" x2="821.50" y2="405" stroke="#0ea5a4" stroke-width="1.2" stroke-linecap="round" />
  <rect x="818.50" y="180" width="6.00" height="6.00" fill="#0ea5a4" stroke="#0ea5a4" />
  <line x1="832.50" y1="166" x2="832.50" y2="412" stroke="#0ea5a4" stroke-width="1.2" stroke-linecap="round" />
  <rect x="829.50" y="169" width="6.00" height="18.00" fill="#0ea5a4" stroke="#0ea5a4" />
  <line x1="843.50" y1="165" x2="843.50" y2="383" stroke="#0ea5a4" stroke-width="1.2" stroke-linecap="round" />
  <rect x="840.50" y="167" width="6.00" height="213.00" fill="#0ea5a4" stroke="#0ea5a4" />
  <line x1="854.50" y1="166" x2="854.50" y2="365" stroke="#0ea5a4" stroke-width="1.2" stroke-linecap="round" />
  <rect x="851.50" y="173" width="6.00" height="15.00" fill="#0ea5a4" stroke="#0ea5a4" />
  <line x1="865.50" y1="165" x2="865.50" y2="365" stroke="#0ea5a4" stroke-width="1.2" stroke-linecap="round" />
  <rect x="862.50" y="167" width="6.00" height="5.00" fill="#0ea5a4" stroke="#0ea5a4" />
  <line x1="876.50" y1="165" x2="876.50" y2="368" stroke="#0ea5a4" stroke-width="1.2" stroke-linecap="round" />
  <rect x="873.50" y="177" width="6.00" height="168.00" fill="#0ea5a4" stroke="#0ea5a4" />
  <line x1="887.50" y1="165" x2="887.50" y2="366" stroke="#0ea5a4" stroke-width="1.2" stroke-linecap="round" />
  <rect x="884.50" y="167" width="6.00" height="20.00" fill="#0ea5a4" stroke="#0ea5a4" />
  <line x1="899.00" y1="165" x2="899.00" y2="366" stroke="#0ea5a4" stroke-width="1.2" stroke-linecap="round" />
  <rect x="895.50" y="177" width="7.00" height="10.00" fill="#0ea5a4" stroke="#0ea5a4" />
  <line x1="910.50" y1="166" x2="910.50" y2="401" stroke="#0ea5a4" stroke-width="1.2" stroke-linecap="round" />
  <rect x="907.50" y="168" width="6.00" height="6.00" fill="#0ea5a4" stroke="#0ea5a4" />
  <line x1="921.50" y1="165" x2="921.50" y2="398" stroke="#0ea5a4" stroke-width="1.2" stroke-linecap="round" />
  <rect x="918.50" y="167" width="6.00" height="222.00" fill="#0ea5a4" stroke="#0ea5a4" />
  <line x1="932.50" y1="167" x2="932.50" y2="373" stroke="#0ea5a4" stroke-width="1.2" stroke-linecap="round" />
  <rect x="929.50" y="174" width="6.00" height="16.00" fill="#0ea5a4" stroke="#0ea5a4" />
  <line x1="943.50" y1="349" x2="943.50" y2="368" stroke="#0ea5a4" stroke-width="1.2" stroke-linecap="round" />
  <rect x="940.50" y="366" width="6.00" height="1.00" fill="#0ea5a4" stroke="#0ea5a4" />
  <line x1="954.50" y1="347" x2="954.50" y2="367" stroke="#0ea5a4" stroke-width="1.2" stroke-linecap="round" />
  <rect x="951.50" y="356" width="6.00" height="10.00" fill="#0ea5a4" stroke="#0ea5a4" />
  <line x1="965.50" y1="346" x2="965.50" y2="361" stroke="#0ea5a4" stroke-width="1.2" stroke-linecap="round" />
  <rect x="962.50" y="359" width="6.00" height="1.00" fill="#0ea5a4" stroke="#0ea5a4" />
  <line x1="976.50" y1="346" x2="976.50" y2="361" stroke="#0ea5a4" stroke-width="1.2" stroke-linecap="round" />
  <rect x="973.50" y="359" width="6.00" height="1.00" fill="#0ea5a4" stroke="#0ea5a4" />
  <line x1="987.50" y1="343" x2="987.50" y2="379" stroke="#0ea5a4" stroke-width="1.2" stroke-linecap="round" />
  <rect x="984.50" y="363" width="6.00" height="15.00" fill="#0ea5a4" stroke="#0ea5a4" />
  <line x1="998.50" y1="353" x2="998.50" y2="402" stroke="#0ea5a4" stroke-width="1.2" stroke-linecap="round" />
  <rect x="995.50" y="369" width="6.00" height="11.00" fill="#0ea5a4" stroke="#0ea5a4" />
  <line x1="1010.00" y1="353" x2="1010.00" y2="402" stroke="#0ea5a4" stroke-width="1.2" stroke-linecap="round" />
  <rect x="1006.50" y="369" width="7.00" height="11.00" fill="#0ea5a4" stroke="#0ea5a4" />
  <line x1="1021.50" y1="361" x2="1021.50" y2="395" stroke="#0ea5a4" stroke-width="1.2" stroke-linecap="round" />
  <rect x="1018.50" y="383" width="6.00" height="11.00" fill="#0ea5a4" stroke="#0ea5a4" />
  <line x1="1076.50" y1="16" x2="1076.50" y2="68" stroke="#0ea5a4" stroke-width="1.2" stroke-linecap="round" />
  <rect x="1073.50" y="59" width="6.00" height="4.00" fill="#0ea5a4" stroke="#0ea5a4" />
  <line x1="1087.50" y1="15" x2="1087.50" y2="70" stroke="#0ea5a4" stroke-width="1.2" stroke-linecap="round" />
  <rect x="1084.50" y="15" width="6.00" height="51.00" fill="#0ea5a4" stroke="#0ea5a4" />
  <line x1="1098.50" y1="15" x2="1098.50" y2="70" stroke="#0ea5a4" stroke-width="1.2" stroke-linecap="round" />
  <rect x="1095.50" y="66" width="6.00" height="3.00" fill="#0ea5a4" stroke="#0ea5a4" />
  <line x1="1109.50" y1="15" x2="1109.50" y2="70" stroke="#0ea5a4" stroke-width="1.2" stroke-linecap="round" />
  <rect x="1106.50" y="66" width="6.00" height="3.00" fill="#0ea5a4" stroke="#0ea5a4" />
  <line x1="1121.00" y1="15" x2="1121.00" y2="70" stroke="#0ea5a4" stroke-width="1.2" stroke-linecap="round" />
  <rect x="1117.50" y="18" width="7.00" height="48.00" fill="#0ea5a4" stroke="#0ea5a4" />
</svg>