<svg xmlns="http://www.w3.org/2000/svg" viewBox="0 0 1200 360" preserveAspectRatio="xMidYMid meet">
  <line x1="45.55" y1="53.07" x2="45.55" y2="71.25" stroke="#374151" stroke-width="1.2" stroke-linecap="round" />
  <rect x="50.98" y="74.24" width="5.15" height="4.39" rx="1.5" fill="#000000" opacity="0.06" />
  <rect x="42.98" y="66.24" width="5.15" height="4.39" rx="1.5" fill="#0ea5a4" fill-opacity="0.95" stroke="none" />
  <line x1="56.65" y1="52.45" x2="56.65" y2="71.88" stroke="#374151" stroke-width="1.2" stroke-linecap="round" />
  <rect x="62.08" y="78.62" width="5.15" height="1.00" rx="1.5" fill="#000000" opacity="0.06" />
  <rect x="54.08" y="70.62" width="5.15" height="1.00" rx="1.5" fill="#0ea5a4" fill-opacity="0.95" stroke="none" />
  <line x1="67.75" y1="53.07" x2="67.75" y2="71.25" stroke="#374151" stroke-width="1.2" stroke-linecap="round" />
  <rect x="73.17" y="74.24" width="5.15" height="2.51" rx="1.5" fill="#000000" opacity="0.06" />
  <rect x="65.17" y="66.24" width="5.15" height="2.51" rx="1.5" fill="#0ea5a4" fill-opacity="0.95" stroke="none" />
  <line x1="78.85" y1="52.45" x2="78.85" y2="71.88" stroke="#374151" stroke-width="1.2" stroke-linecap="round" />
  <rect x="84.27" y="78.62" width="5.15" height="1.00" rx="1.5" fill="#000000" opacity="0.06" />
  <rect x="76.27" y="70.62" width="5.15" height="1.00" rx="1.5" fill="#0ea5a4" fill-opacity="0.95" stroke="none" />
  <line x1="89.95" y1="53.07" x2="89.95" y2="71.88" stroke="#374151" stroke-width="1.2" stroke-linecap="round" />
  <rect x="95.37" y="78.62" width="5.15" height="1.00" rx="1.5" fill="#000000" opacity="0.06" />
  <rect x="87.37" y="70.62" width="5.15" height="1.00" rx="1.5" fill="#0ea5a4" fill-opacity="0.95" stroke="none" />
  <line x1="101.05" y1="53.07" x2="101.05" y2="78.77" stroke="#374151" stroke-width="1.2" stroke-linecap="round" />
  <rect x="106.47" y="61.07" width="5.15" height="25.07" rx="1.5" fill="#000000" opacity="0.06" />
  <rect x="98.47" y="53.07" width="5.15" height="25.07" rx="1.5" fill="#0ea5a4" fill-opacity="0.95" stroke="none" />
  <line x1="112.14" y1="52.45" x2="112.14" y2="78.77" stroke="#374151" stroke-width="1.2" stroke-linecap="round" />
  <rect x="117.57" y="60.45" width="5.15" height="13.16" rx="1.5" fill="#000000" opacity="0.06" />
  <rect x="109.57" y="52.45" width="5.15" height="13.16" rx="1.5" fill="#0ea5a4" fill-opacity="0.95" stroke="none" />
  <line x1="123.24" y1="52.45" x2="123.24" y2="71.88" stroke="#374151" stroke-width="1.2" stroke-linecap="round" />
  <rect x="128.67" y="64.83" width="5.15" height="14.42" rx="1.5" fill="#000000" opacity="0.06" />
  <rect x="120.67" y="56.83" width="5.15" height="14.42" rx="1.5" fill="#0ea5a4" fill-opacity="0.95" stroke="none" />
  <line x1="134.34" y1="45.55" x2="134.34" y2="71.25" stroke="#374151" stroke-width="1.2" stroke-linecap="round" />
  <rect x="139.77" y="53.55" width="5.15" height="25.07" rx="1.5" fill="#000000" opacity="0.06" />
  <rect x="131.77" y="45.55" width="5.15" height="25.07" rx="1.5" fill="#0ea5a4" fill-opacity="0.95" stroke="none" />
  <line x1="145.95" y1="45.55" x2="145.95" y2="248.01" stroke="#374151" stroke-width="1.2" stroke-linecap="round" />
  <rect x="150.94" y="66.09" width="6.00" height="186.79" rx="1.5" fill="#000000" opacity="0.06" />
  <rect x="142.94" y="58.09" width="6.00" height="186.79" rx="1.5" fill="#0ea5a4" fill-opacity="0.95" stroke="none" />
  <line x1="157.55" y1="48.06" x2="157.55" y2="226.70" stroke="#374151" stroke-width="1.2" stroke-linecap="round" />
  <rect x="162.98" y="57.94" width="5.15" height="18.18" rx="1.5" fill="#000000" opacity="0.06" />
  <rect x="154.98" y="49.94" width="5.15" height="18.18" rx="1.5" fill="#0ea5a4" fill-opacity="0.95" stroke="none" />
  <line x1="168.65" y1="53.07" x2="168.65" y2="226.70" stroke="#374151" stroke-width="1.2" stroke-linecap="round" />
  <rect x="174.08" y="67.34" width="5.15" height="8.78" rx="1.5" fill="#000000" opacity="0.06" />
  <rect x="166.08" y="59.34" width="5.15" height="8.78" rx="1.5" fill="#0ea5a4" fill-opacity="0.95" stroke="none" />
  <line x1="179.75" y1="52.45" x2="179.75" y2="234.85" stroke="#374151" stroke-width="1.2" stroke-linecap="round" />
  <rect x="185.17" y="62.33" width="5.15" height="13.79" rx="1.5" fill="#000000" opacity="0.06" />
  <rect x="177.17" y="54.33" width="5.15" height="13.79" rx="1.5" fill="#0ea5a4" fill-opacity="0.95" stroke="none" />
  <line x1="190.85" y1="53.07" x2="190.85" y2="216.67" stroke="#374151" stroke-width="1.2" stroke-linecap="round" />
  <rect x="196.27" y="66.71" width="5.15" height="8.15" rx="1.5" fill="#000000" opacity="0.06" />
  <rect x="188.27" y="58.71" width="5.15" height="8.15" rx="1.5" fill="#0ea5a4" fill-opacity="0.95" stroke="none" />
  <line x1="201.95" y1="53.07" x2="201.95" y2="221.06" stroke="#374151" stroke-width="1.2" stroke-linecap="round" />
  <rect x="207.37" y="62.95" width="5.15" height="4.39" rx="1.5" fill="#000000" opacity="0.06" />
  <rect x="199.37" y="54.95" width="5.15" height="4.39" rx="1.5" fill="#0ea5a4" fill-opacity="0.95" stroke="none" />
  <line x1="213.05" y1="46.80" x2="213.05" y2="221.06" stroke="#374151" stroke-width="1.2" stroke-linecap="round" />
  <rect x="218.47" y="69.85" width="5.15" height="156.70" rx="1.5" fill="#000000" opacity="0.06" />
  <rect x="210.47" y="61.85" width="5.15" height="156.70" rx="1.5" fill="#0ea5a4" fill-opacity="0.95" stroke="none" />
  <line x1="224.14" y1="45.55" x2="224.14" y2="219.18" stroke="#374151" stroke-width="1.2" stroke-linecap="round" />
  <rect x="229.57" y="55.43" width="5.15" height="8.78" rx="1.5" fill="#000000" opacity="0.06" />
  <rect x="221.57" y="47.43" width="5.15" height="8.78" rx="1.5" fill="#0ea5a4" fill-opacity="0.95" stroke="none" />
  <line x1="235.24" y1="33.01" x2="235.24" y2="217.92" stroke="#374151" stroke-width="1.2" stroke-linecap="round" />
  <rect x="240.67" y="52.30" width="5.15" height="13.79" rx="1.5" fill="#000000" opacity="0.06" />
  <rect x="232.67" y="44.30" width="5.15" height="13.79" rx="1.5" fill="#0ea5a4" fill-opacity="0.95" stroke="none" />
  <line x1="246.34" y1="31.76" x2="246.34" y2="212.28" stroke="#374151" stroke-width="1.2" stroke-linecap="round" />
  <rect x="251.77" y="64.21" width="5.15" height="77.10" rx="1.5" fill="#000000" opacity="0.06" />
  <rect x="243.77" y="56.21" width="5.15" height="77.10" rx="1.5" fill="#0ea5a4" fill-opacity="0.95" stroke="none" />
  <line x1="257.95" y1="56.21" x2="257.95" y2="204.13" stroke="#374151" stroke-width="1.2" stroke-linecap="round" />
  <rect x="262.94" y="146.94" width="6.00" height="63.31" rx="1.5" fill="#000000" opacity="0.06" />
  <rect x="254.94" y="138.94" width="6.00" height="63.31" rx="1.5" fill="#0ea5a4" fill-opacity="0.95" stroke="none" />
  <line x1="269.55" y1="126.41" x2="269.55" y2="209.77" stroke="#374151" stroke-width="1.2" stroke-linecap="round" />
  <rect x="274.98" y="135.04" width="5.15" height="18.80" rx="1.5" fill="#000000" opacity="0.06" />
  <rect x="266.98" y="127.04" width="5.15" height="18.80" rx="1.5" fill="#0ea5a4" fill-opacity="0.95" stroke="none" />
  <line x1="280.65" y1="131.42" x2="280.65" y2="219.18" stroke="#374151" stroke-width="1.2" stroke-linecap="round" />
  <rect x="286.08" y="144.44" width="5.15" height="4.39" rx="1.5" fill="#000000" opacity="0.06" />
  <rect x="278.08" y="136.44" width="5.15" height="4.39" rx="1.5" fill="#0ea5a4" fill-opacity="0.95" stroke="none" />
  <line x1="291.75" y1="131.42" x2="291.75" y2="219.18" stroke="#374151" stroke-width="1.2" stroke-linecap="round" />
  <rect x="297.17" y="140.05" width="5.15" height="15.67" rx="1.5" fill="#000000" opacity="0.06" />
  <rect x="289.17" y="132.05" width="5.15" height="15.67" rx="1.5" fill="#0ea5a4" fill-opacity="0.95" stroke="none" />
  <line x1="302.85" y1="132.05" x2="302.85" y2="231.08" stroke="#374151" stroke-width="1.2" stroke-linecap="round" />
  <rect x="308.27" y="150.71" width="5.15" height="2.51" rx="1.5" fill="#000000" opacity="0.06" />
  <rect x="300.27" y="142.71" width="5.15" height="2.51" rx="1.5" fill="#0ea5a4" fill-opacity="0.95" stroke="none" />
  <line x1="313.95" y1="128.92" x2="313.95" y2="229.83" stroke="#374151" stroke-width="1.2" stroke-linecap="round" />
  <rect x="319.37" y="140.68" width="5.15" height="2.51" rx="1.5" fill="#000000" opacity="0.06" />
  <rect x="311.37" y="132.68" width="5.15" height="2.51" rx="1.5" fill="#0ea5a4" fill-opacity="0.95" stroke="none" />
  <line x1="325.05" y1="126.41" x2="325.05" y2="229.83" stroke="#374151" stroke-width="1.2" stroke-linecap="round" />
  <rect x="330.47" y="135.66" width="5.15" height="10.03" rx="1.5" fill="#000000" opacity="0.06" />
  <rect x="322.47" y="127.66" width="5.15" height="10.03" rx="1.5" fill="#0ea5a4" fill-opacity="0.95" stroke="none" />
  <line x1="336.14" y1="132.05" x2="336.14" y2="244.87" stroke="#374151" stroke-width="1.2" stroke-linecap="round" />
  <rect x="341.57" y="141.30" width="5.15" height="11.28" rx="1.5" fill="#000000" opacity="0.06" />
  <rect x="333.57" y="133.30" width="5.15" height="11.28" rx="1.5" fill="#0ea5a4" fill-opacity="0.95" stroke="none" />
  <line x1="347.24" y1="127.66" x2="347.24" y2="253.02" stroke="#374151" stroke-width="1.2" stroke-linecap="round" />
  <rect x="352.67" y="140.05" width="5.15" height="90.89" rx="1.5" fill="#000000" opacity="0.06" />
  <rect x="344.67" y="132.05" width="5.15" height="90.89" rx="1.5" fill="#0ea5a4" fill-opacity="0.95" stroke="none" />
  <line x1="358.34" y1="127.04" x2="358.34" y2="253.02" stroke="#374151" stroke-width="1.2" stroke-linecap="round" />
  <rect x="363.77" y="139.42" width="5.15" height="3.13" rx="1.5" fill="#000000" opacity="0.06" />
  <rect x="355.77" y="131.42" width="5.15" height="3.13" rx="1.5" fill="#0ea5a4" fill-opacity="0.95" stroke="none" />
  <line x1="369.95" y1="126.41" x2="369.95" y2="249.89" stroke="#374151" stroke-width="1.2" stroke-linecap="round" />
  <rect x="374.94" y="135.66" width="6.00" height="6.27" rx="1.5" fill="#000000" opacity="0.06" />
  <rect x="366.94" y="127.66" width="6.00" height="6.27" rx="1.5" fill="#0ea5a4" fill-opacity="0.95" stroke="none" />
  <line x1="381.55" y1="126.41" x2="381.55" y2="246.75" stroke="#374151" stroke-width="1.2" stroke-linecap="round" />
  <rect x="386.98" y="135.66" width="5.15" height="18.18" rx="1.5" fill="#000000" opacity="0.06" />
  <rect x="378.98" y="127.66" width="5.15" height="18.18" rx="1.5" fill="#0ea5a4" fill-opacity="0.95" stroke="none" />
  <line x1="392.65" y1="126.41" x2="392.65" y2="254.28" stroke="#374151" stroke-width="1.2" stroke-linecap="round" />
  <rect x="398.08" y="151.96" width="5.15" height="3.13" rx="1.5" fill="#000000" opacity="0.06" />
  <rect x="390.08" y="143.96" width="5.15" height="3.13" rx="1.5" fill="#0ea5a4" fill-opacity="0.95" stroke="none" />
  <line x1="403.75" y1="126.41" x2="403.75" y2="254.28" stroke="#374151" stroke-width="1.2" stroke-linecap="round" />
  <rect x="409.17" y="135.66" width="5.15" height="19.43" rx="1.5" fill="#000000" opacity="0.06" />
  <rect x="401.17" y="127.66" width="5.15" height="19.43" rx="1.5" fill="#0ea5a4" fill-opacity="0.95" stroke="none" />
  <line x1="414.85" y1="131.42" x2="414.85" y2="254.90" stroke="#374151" stroke-width="1.2" stroke-linecap="round" />
  <rect x="420.27" y="140.68" width="5.15" height="3.13" rx="1.5" fill="#000000" opacity="0.06" />
  <rect x="412.27" y="132.68" width="5.15" height="3.13" rx="1.5" fill="#0ea5a4" fill-opacity="0.95" stroke="none" />
  <line x1="425.95" y1="132.05" x2="425.95" y2="246.13" stroke="#374151" stroke-width="1.2" stroke-linecap="round" />
  <rect x="431.37" y="141.30" width="5.15" height="2.51" rx="1.5" fill="#000000" opacity="0.06" />
  <rect x="423.37" y="133.30" width="5.15" height="2.51" rx="1.5" fill="#0ea5a4" fill-opacity="0.95" stroke="none" />
  <line x1="437.05" y1="131.42" x2="437.05" y2="246.13" stroke="#374151" stroke-width="1.2" stroke-linecap="round" />
  <rect x="442.47" y="140.68" width="5.15" height="2.51" rx="1.5" fill="#000000" opacity="0.06" />
  <rect x="434.47" y="132.68" width="5.15" height="2.51" rx="1.5" fill="#0ea5a4" fill-opacity="0.95" stroke="none" />
  <line x1="448.14" y1="131.42" x2="448.14" y2="242.99" stroke="#374151" stroke-width="1.2" stroke-linecap="round" />
  <rect x="453.57" y="143.18" width="5.15" height="8.78" rx="1.5" fill="#000000" opacity="0.06" />
  <rect x="445.57" y="135.18" width="5.15" height="8.78" rx="1.5" fill="#0ea5a4" fill-opacity="0.95" stroke="none" />
  <line x1="459.24" y1="131.42" x2="459.24" y2="241.74" stroke="#374151" stroke-width="1.2" stroke-linecap="round" />
  <rect x="464.67" y="143.18" width="5.15" height="11.28" rx="1.5" fill="#000000" opacity="0.06" />
  <rect x="456.67" y="135.18" width="5.15" height="11.28" rx="1.5" fill="#0ea5a4" fill-opacity="0.95" stroke="none" />
  <line x1="470.34" y1="132.05" x2="470.34" y2="241.74" stroke="#374151" stroke-width="1.2" stroke-linecap="round" />
  <rect x="475.77" y="141.30" width="5.15" height="5.01" rx="1.5" fill="#000000" opacity="0.06" />
  <rect x="467.77" y="133.30" width="5.15" height="5.01" rx="1.5" fill="#0ea5a4" fill-opacity="0.95" stroke="none" />
  <line x1="481.95" y1="131.42" x2="481.95" y2="246.75" stroke="#374151" stroke-width="1.2" stroke-linecap="round" />
  <rect x="486.94" y="140.68" width="6.00" height="2.51" rx="1.5" fill="#000000" opacity="0.06" />
  <rect x="478.94" y="132.68" width="6.00" height="2.51" rx="1.5" fill="#0ea5a4" fill-opacity="0.95" stroke="none" />
  <line x1="493.55" y1="132.05" x2="493.55" y2="256.78" stroke="#374151" stroke-width="1.2" stroke-linecap="round" />
  <rect x="498.98" y="244.10" width="5.15" height="9.40" rx="1.5" fill="#000000" opacity="0.06" />
  <rect x="490.98" y="236.10" width="5.15" height="9.40" rx="1.5" fill="#0ea5a4" fill-opacity="0.95" stroke="none" />
  <line x1="504.65" y1="132.05" x2="504.65" y2="265.56" stroke="#374151" stroke-width="1.2" stroke-linecap="round" />
  <rect x="510.08" y="148.20" width="5.15" height="3.13" rx="1.5" fill="#000000" opacity="0.06" />
  <rect x="502.08" y="140.20" width="5.15" height="3.13" rx="1.5" fill="#0ea5a4" fill-opacity="0.95" stroke="none" />
  <line x1="515.75" y1="132.05" x2="515.75" y2="265.56" stroke="#374151" stroke-width="1.2" stroke-linecap="round" />
  <rect x="521.17" y="141.30" width="5.15" height="3.13" rx="1.5" fill="#000000" opacity="0.06" />
  <rect x="513.17" y="133.30" width="5.15" height="3.13" rx="1.5" fill="#0ea5a4" fill-opacity="0.95" stroke="none" />
  <line x1="526.85" y1="131.42" x2="526.85" y2="269.95" stroke="#374151" stroke-width="1.2" stroke-linecap="round" />
  <rect x="532.27" y="144.44" width="5.15" height="6.89" rx="1.5" fill="#000000" opacity="0.06" />
  <rect x="524.27" y="136.44" width="5.15" height="6.89" rx="1.5" fill="#0ea5a4" fill-opacity="0.95" stroke="none" />
  <line x1="537.95" y1="131.42" x2="537.95" y2="280.60" stroke="#374151" stroke-width="1.2" stroke-linecap="round" />
  <rect x="543.37" y="140.68" width="5.15" height="11.28" rx="1.5" fill="#000000" opacity="0.06" />
  <rect x="535.37" y="132.68" width="5.15" height="11.28" rx="1.5" fill="#0ea5a4" fill-opacity="0.95" stroke="none" />
  <line x1="549.05" y1="132.05" x2="549.05" y2="280.60" stroke="#374151" stroke-width="1.2" stroke-linecap="round" />
  <rect x="554.47" y="145.06" width="5.15" height="122.85" rx="1.5" fill="#000000" opacity="0.06" />
  <rect x="546.47" y="137.06" width="5.15" height="122.85" rx="1.5" fill="#0ea5a4" fill-opacity="0.95" stroke="none" />
  <line x1="560.14" y1="131.42" x2="560.14" y2="281.86" stroke="#374151" stroke-width="1.2" stroke-linecap="round" />
  <rect x="565.57" y="141.30" width="5.15" height="3.76" rx="1.5" fill="#000000" opacity="0.06" />
  <rect x="557.57" y="133.30" width="5.15" height="3.76" rx="1.5" fill="#0ea5a4" fill-opacity="0.95" stroke="none" />
  <line x1="571.24" y1="131.42" x2="571.24" y2="274.96" stroke="#374151" stroke-width="1.2" stroke-linecap="round" />
  <rect x="576.67" y="259.14" width="5.15" height="3.76" rx="1.5" fill="#000000" opacity="0.06" />
  <rect x="568.67" y="251.14" width="5.15" height="3.76" rx="1.5" fill="#0ea5a4" fill-opacity="0.95" stroke="none" />
  <line x1="582.34" y1="256.78" x2="582.34" y2="290.63" stroke="#374151" stroke-width="1.2" stroke-linecap="round" />
  <rect x="587.77" y="274.19" width="5.15" height="2.51" rx="1.5" fill="#000000" opacity="0.06" />
  <rect x="579.77" y="266.19" width="5.15" height="2.51" rx="1.5" fill="#0ea5a4" fill-opacity="0.95" stroke="none" />
  <line x1="593.95" y1="132.05" x2="593.95" y2="290.63" stroke="#374151" stroke-width="1.2" stroke-linecap="round" />
  <rect x="598.94" y="141.93" width="6.00" height="11.91" rx="1.5" fill="#000000" opacity="0.06" />
  <rect x="590.94" y="133.93" width="6.00" height="11.91" rx="1.5" fill="#0ea5a4" fill-opacity="0.95" stroke="none" />
  <line x1="605.55" y1="131.42" x2="605.55" y2="288.12" stroke="#374151" stroke-width="1.2" stroke-linecap="round" />
  <rect x="610.98" y="141.30" width="5.15" height="141.03" rx="1.5" fill="#000000" opacity="0.06" />
  <rect x="602.98" y="133.30" width="5.15" height="141.03" rx="1.5" fill="#0ea5a4" fill-opacity="0.95" stroke="none" />
  <line x1="616.65" y1="131.42" x2="616.65" y2="279.35" stroke="#374151" stroke-width="1.2" stroke-linecap="round" />
  <rect x="622.08" y="140.68" width="5.15" height="3.76" rx="1.5" fill="#000000" opacity="0.06" />
  <rect x="614.08" y="132.68" width="5.15" height="3.76" rx="1.5" fill="#0ea5a4" fill-opacity="0.95" stroke="none" />
  <line x1="627.75" y1="132.05" x2="627.75" y2="279.35" stroke="#374151" stroke-width="1.2" stroke-linecap="round" />
  <rect x="633.17" y="145.06" width="5.15" height="7.52" rx="1.5" fill="#000000" opacity="0.06" />
  <rect x="625.17" y="137.06" width="5.15" height="7.52" rx="1.5" fill="#0ea5a4" fill-opacity="0.95" stroke="none" />
  <line x1="638.85" y1="131.42" x2="638.85" y2="265.56" stroke="#374151" stroke-width="1.2" stroke-linecap="round" />
  <rect x="644.27" y="140.68" width="5.15" height="13.79" rx="1.5" fill="#000000" opacity="0.06" />
  <rect x="636.27" y="132.68" width="5.15" height="13.79" rx="1.5" fill="#0ea5a4" fill-opacity="0.95" stroke="none" />
  <line x1="649.95" y1="132.05" x2="649.95" y2="274.96" stroke="#374151" stroke-width="1.2" stroke-linecap="round" />
  <rect x="655.37" y="145.06" width="5.15" height="6.89" rx="1.5" fill="#000000" opacity="0.06" />
  <rect x="647.37" y="137.06" width="5.15" height="6.89" rx="1.5" fill="#0ea5a4" fill-opacity="0.95" stroke="none" />
  <line x1="661.05" y1="132.05" x2="661.05" y2="274.33" stroke="#374151" stroke-width="1.2" stroke-linecap="round" />
  <rect x="666.47" y="141.30" width="5.15" height="3.76" rx="1.5" fill="#000000" opacity="0.06" />
  <rect x="658.47" y="133.30" width="5.15" height="3.76" rx="1.5" fill="#0ea5a4" fill-opacity="0.95" stroke="none" />
  <line x1="672.14" y1="131.42" x2="672.14" y2="278.72" stroke="#374151" stroke-width="1.2" stroke-linecap="round" />
  <rect x="677.57" y="140.68" width="5.15" height="3.76" rx="1.5" fill="#000000" opacity="0.06" />
  <rect x="669.57" y="132.68" width="5.15" height="3.76" rx="1.5" fill="#0ea5a4" fill-opacity="0.95" stroke="none" />
  <line x1="683.24" y1="131.42" x2="683.24" y2="294.39" stroke="#374151" stroke-width="1.2" stroke-linecap="round" />
  <rect x="688.67" y="141.30" width="5.15" height="16.30" rx="1.5" fill="#000000" opacity="0.06" />
  <rect x="680.67" y="133.30" width="5.15" height="16.30" rx="1.5" fill="#0ea5a4" fill-opacity="0.95" stroke="none" />
  <line x1="694.34" y1="132.05" x2="694.34" y2="290.00" stroke="#374151" stroke-width="1.2" stroke-linecap="round" />
  <rect x="699.77" y="141.93" width="5.15" height="11.91" rx="1.5" fill="#000000" opacity="0.06" />
  <rect x="691.77" y="133.93" width="5.15" height="11.91" rx="1.5" fill="#0ea5a4" fill-opacity="0.95" stroke="none" />
  <line x1="705.95" y1="131.42" x2="705.95" y2="290.00" stroke="#374151" stroke-width="1.2" stroke-linecap="round" />
  <rect x="710.94" y="145.06" width="6.00" height="8.15" rx="1.5" fill="#000000" opacity="0.06" />
  <rect x="702.94" y="137.06" width="6.00" height="8.15" rx="1.5" fill="#0ea5a4" fill-opacity="0.95" stroke="none" />
  <line x1="717.55" y1="131.42" x2="717.55" y2="288.75" stroke="#374151" stroke-width="1.2" stroke-linecap="round" />
  <rect x="722.98" y="141.30" width="5.15" height="11.28" rx="1.5" fill="#000000" opacity="0.06" />
  <rect x="714.98" y="133.30" width="5.15" height="11.28" rx="1.5" fill="#0ea5a4" fill-opacity="0.95" stroke="none" />
  <line x1="728.65" y1="132.05" x2="728.65" y2="287.50" stroke="#374151" stroke-width="1.2" stroke-linecap="round" />
  <rect x="734.08" y="141.93" width="5.15" height="3.76" rx="1.5" fill="#000000" opacity="0.06" />
  <rect x="726.08" y="133.93" width="5.15" height="3.76" rx="1.5" fill="#0ea5a4" fill-opacity="0.95" stroke="none" />
  <line x1="739.75" y1="131.42" x2="739.75" y2="287.50" stroke="#374151" stroke-width="1.2" stroke-linecap="round" />
  <rect x="745.17" y="141.30" width="5.15" height="3.76" rx="1.5" fill="#000000" opacity="0.06" />
  <rect x="737.17" y="133.30" width="5.15" height="3.76" rx="1.5" fill="#0ea5a4" fill-opacity="0.95" stroke="none" />
  <line x1="750.85" y1="132.05" x2="750.85" y2="289.38" stroke="#374151" stroke-width="1.2" stroke-linecap="round" />
  <rect x="756.27" y="283.59" width="5.15" height="11.28" rx="1.5" fill="#000000" opacity="0.06" />
  <rect x="748.27" y="275.59" width="5.15" height="11.28" rx="1.5" fill="#0ea5a4" fill-opacity="0.95" stroke="none" />
  <line x1="761.95" y1="134.56" x2="761.95" y2="303.79" stroke="#374151" stroke-width="1.2" stroke-linecap="round" />
  <rect x="767.37" y="301.14" width="5.15" height="3.76" rx="1.5" fill="#000000" opacity="0.06" />
  <rect x="759.37" y="293.14" width="5.15" height="3.76" rx="1.5" fill="#0ea5a4" fill-opacity="0.95" stroke="none" />
  <line x1="773.05" y1="131.42" x2="773.05" y2="303.17" stroke="#374151" stroke-width="1.2" stroke-linecap="round" />
  <rect x="778.47" y="141.30" width="5.15" height="12.54" rx="1.5" fill="#000000" opacity="0.06" />
  <rect x="770.47" y="133.30" width="5.15" height="12.54" rx="1.5" fill="#0ea5a4" fill-opacity="0.95" stroke="none" />
  <line x1="784.14" y1="131.42" x2="784.14" y2="303.17" stroke="#374151" stroke-width="1.2" stroke-linecap="round" />
  <rect x="789.57" y="145.69" width="5.15" height="4.39" rx="1.5" fill="#000000" opacity="0.06" />
  <rect x="781.57" y="137.69" width="5.15" height="4.39" rx="1.5" fill="#0ea5a4" fill-opacity="0.95" stroke="none" />
  <line x1="795.24" y1="132.05" x2="795.24" y2="291.88" stroke="#374151" stroke-width="1.2" stroke-linecap="round" />
  <rect x="800.67" y="141.93" width="5.15" height="147.93" rx="1.5" fill="#000000" opacity="0.06" />
  <rect x="792.67" y="133.93" width="5.15" height="147.93" rx="1.5" fill="#0ea5a4" fill-opacity="0.95" stroke="none" />
  <line x1="806.34" y1="126.41" x2="806.34" y2="288.75" stroke="#374151" stroke-width="1.2" stroke-linecap="round" />
  <rect x="811.77" y="140.05" width="5.15" height="4.39" rx="1.5" fill="#000000" opacity="0.06" />
  <rect x="803.77" y="132.05" width="5.15" height="4.39" rx="1.5" fill="#0ea5a4" fill-opacity="0.95" stroke="none" />
  <line x1="817.95" y1="126.41" x2="817.95" y2="288.75" stroke="#374151" stroke-width="1.2" stroke-linecap="round" />
  <rect x="822.94" y="144.44" width="6.00" height="8.15" rx="1.5" fill="#000000" opacity="0.06" />
  <rect x="814.94" y="136.44" width="6.00" height="8.15" rx="1.5" fill="#0ea5a4" fill-opacity="0.95" stroke="none" />
  <line x1="829.55" y1="132.05" x2="829.55" y2="290.00" stroke="#374151" stroke-width="1.2" stroke-linecap="round" />
  <rect x="834.98" y="141.93" width="5.15" height="11.91" rx="1.5" fill="#000000" opacity="0.06" />
  <rect x="826.98" y="133.93" width="5.15" height="11.91" rx="1.5" fill="#0ea5a4" fill-opacity="0.95" stroke="none" />
  <line x1="840.65" y1="131.42" x2="840.65" y2="282.48" stroke="#374151" stroke-width="1.2" stroke-linecap="round" />
  <rect x="846.08" y="141.30" width="5.15" height="11.28" rx="1.5" fill="#000000" opacity="0.06" />
  <rect x="838.08" y="133.30" width="5.15" height="11.28" rx="1.5" fill="#0ea5a4" fill-opacity="0.95" stroke="none" />
  <line x1="851.75" y1="131.42" x2="851.75" y2="281.86" stroke="#374151" stroke-width="1.2" stroke-linecap="round" />
  <rect x="857.17" y="148.82" width="5.15" height="3.76" rx="1.5" fill="#000000" opacity="0.06" />
  <rect x="849.17" y="140.82" width="5.15" height="3.76" rx="1.5" fill="#0ea5a4" fill-opacity="0.95" stroke="none" />
  <line x1="862.85" y1="132.05" x2="862.85" y2="286.24" stroke="#374151" stroke-width="1.2" stroke-linecap="round" />
  <rect x="868.27" y="141.93" width="5.15" height="11.28" rx="1.5" fill="#000000" opacity="0.06" />
  <rect x="860.27" y="133.93" width="5.15" height="11.28" rx="1.5" fill="#0ea5a4" fill-opacity="0.95" stroke="none" />
  <line x1="873.95" y1="131.42" x2="873.95" y2="268.07" stroke="#374151" stroke-width="1.2" stroke-linecap="round" />
  <rect x="879.37" y="140.68" width="5.15" height="133.51" rx="1.5" fill="#000000" opacity="0.06" />
  <rect x="871.37" y="132.68" width="5.15" height="133.51" rx="1.5" fill="#0ea5a4" fill-opacity="0.95" stroke="none" />
  <line x1="885.05" y1="132.05" x2="885.05" y2="256.78" stroke="#374151" stroke-width="1.2" stroke-linecap="round" />
  <rect x="890.47" y="144.44" width="5.15" height="9.40" rx="1.5" fill="#000000" opacity="0.06" />
  <rect x="882.47" y="136.44" width="5.15" height="9.40" rx="1.5" fill="#0ea5a4" fill-opacity="0.95" stroke="none" />
  <line x1="896.14" y1="131.42" x2="896.14" y2="256.78" stroke="#374151" stroke-width="1.2" stroke-linecap="round" />
  <rect x="901.57" y="140.68" width="5.15" height="3.13" rx="1.5" fill="#000000" opacity="0.06" />
  <rect x="893.57" y="132.68" width="5.15" height="3.13" rx="1.5" fill="#0ea5a4" fill-opacity="0.95" stroke="none" />
  <line x1="907.24" y1="131.42" x2="907.24" y2="258.66" stroke="#374151" stroke-width="1.2" stroke-linecap="round" />
  <rect x="912.67" y="146.94" width="5.15" height="105.30" rx="1.5" fill="#000000" opacity="0.06" />
  <rect x="904.67" y="138.94" width="5.15" height="105.30" rx="1.5" fill="#0ea5a4" fill-opacity="0.95" stroke="none" />
  <line x1="918.34" y1="131.42" x2="918.34" y2="257.41" stroke="#374151" stroke-width="1.2" stroke-linecap="round" />
  <rect x="923.77" y="140.68" width="5.15" height="12.54" rx="1.5" fill="#000000" opacity="0.06" />
  <rect x="915.77" y="132.68" width="5.15" height="12.54" rx="1.5" fill="#0ea5a4" fill-opacity="0.95" stroke="none" />
  <line x1="929.95" y1="131.42" x2="929.95" y2="257.41" stroke="#374151" stroke-width="1.2" stroke-linecap="round" />
  <rect x="934.94" y="146.94" width="6.00" height="6.27" rx="1.5" fill="#000000" opacity="0.06" />
  <rect x="926.94" y="138.94" width="6.00" height="6.27" rx="1.5" fill="#0ea5a4" fill-opacity="0.95" stroke="none" />
  <line x1="941.55" y1="132.05" x2="941.55" y2="279.35" stroke="#374151" stroke-width="1.2" stroke-linecap="round" />
  <rect x="946.98" y="141.30" width="5.15" height="3.76" rx="1.5" fill="#000000" opacity="0.06" />
  <rect x="938.98" y="133.30" width="5.15" height="3.76" rx="1.5" fill="#0ea5a4" fill-opacity="0.95" stroke="none" />
  <line x1="952.65" y1="131.42" x2="952.65" y2="277.47" stroke="#374151" stroke-width="1.2" stroke-linecap="round" />
  <rect x="958.08" y="140.68" width="5.15" height="139.15" rx="1.5" fill="#000000" opacity="0.06" />
  <rect x="950.08" y="132.68" width="5.15" height="139.15" rx="1.5" fill="#0ea5a4" fill-opacity="0.95" stroke="none" />
  <line x1="963.75" y1="132.68" x2="963.75" y2="261.80" stroke="#374151" stroke-width="1.2" stroke-linecap="round" />
  <rect x="969.17" y="145.06" width="5.15" height="10.03" rx="1.5" fill="#000000" opacity="0.06" />
  <rect x="961.17" y="137.06" width="5.15" height="10.03" rx="1.5" fill="#0ea5a4" fill-opacity="0.95" stroke="none" />
  <line x1="974.85" y1="246.75" x2="974.85" y2="258.66" stroke="#374151" stroke-width="1.2" stroke-linecap="round" />
  <rect x="980.27" y="265.41" width="5.15" height="1.00" rx="1.5" fill="#000000" opacity="0.06" />
  <rect x="972.27" y="257.41" width="5.15" height="1.00" rx="1.5" fill="#0ea5a4" fill-opacity="0.95" stroke="none" />
  <line x1="985.95" y1="245.50" x2="985.95" y2="258.04" stroke="#374151" stroke-width="1.2" stroke-linecap="round" />
  <rect x="991.37" y="259.14" width="5.15" height="6.27" rx="1.5" fill="#000000" opacity="0.06" />
  <rect x="983.37" y="251.14" width="5.15" height="6.27" rx="1.5" fill="#0ea5a4" fill-opacity="0.95" stroke="none" />
  <line x1="997.05" y1="244.87" x2="997.05" y2="254.28" stroke="#374151" stroke-width="1.2" stroke-linecap="round" />
  <rect x="1002.47" y="261.02" width="5.15" height="1.00" rx="1.5" fill="#000000" opacity="0.06" />
  <rect x="994.47" y="253.02" width="5.15" height="1.00" rx="1.5" fill="#0ea5a4" fill-opacity="0.95" stroke="none" />
  <line x1="1008.14" y1="244.87" x2="1008.14" y2="254.28" stroke="#374151" stroke-width="1.2" stroke-linecap="round" />
  <rect x="1013.57" y="261.02" width="5.15" height="1.00" rx="1.5" fill="#000000" opacity="0.06" />
  <rect x="1005.57" y="253.02" width="5.15" height="1.00" rx="1.5" fill="#0ea5a4" fill-opacity="0.95" stroke="none" />
  <line x1="1019.24" y1="242.99" x2="1019.24" y2="265.56" stroke="#374151" stroke-width="1.2" stroke-linecap="round" />
  <rect x="1024.67" y="263.53" width="5.15" height="9.40" rx="1.5" fill="#000000" opacity="0.06" />
  <rect x="1016.67" y="255.53" width="5.15" height="9.40" rx="1.5" fill="#0ea5a4" fill-opacity="0.95" stroke="none" />
  <line x1="1030.34" y1="249.26" x2="1030.34" y2="279.98" stroke="#374151" stroke-width="1.2" stroke-linecap="round" />
  <rect x="1035.77" y="267.29" width="5.15" height="6.89" rx="1.5" fill="#000000" opacity="0.06" />
  <rect x="1027.77" y="259.29" width="5.15" height="6.89" rx="1.5" fill="#0ea5a4" fill-opacity="0.95" stroke="none" />
  <line x1="1041.95" y1="249.26" x2="1041.95" y2="279.98" stroke="#374151" stroke-width="1.2" stroke-linecap="round" />
  <rect x="1046.94" y="267.29" width="6.00" height="6.89" rx="1.5" fill="#000000" opacity="0.06" />
  <rect x="1038.94" y="259.29" width="6.00" height="6.89" rx="1.5" fill="#0ea5a4" fill-opacity="0.95" stroke="none" />
  <line x1="1053.55" y1="254.28" x2="1053.55" y2="275.59" stroke="#374151" stroke-width="1.2" stroke-linecap="round" />
  <rect x="1058.98" y="276.07" width="5.15" height="6.89" rx="1.5" fill="#000000" opacity="0.06" />
  <rect x="1050.98" y="268.07" width="5.15" height="6.89" rx="1.5" fill="#0ea5a4" fill-opacity="0.95" stroke="none" />
  <line x1="1109.05" y1="38.03" x2="1109.05" y2="70.62" stroke="#374151" stroke-width="1.2" stroke-linecap="round" />
  <rect x="1114.47" y="72.98" width="5.15" height="2.51" rx="1.5" fill="#000000" opacity="0.06" />
  <rect x="1106.47" y="64.98" width="5.15" height="2.51" rx="1.5" fill="#0ea5a4" fill-opacity="0.95" stroke="none" />
  <line x1="1120.14" y1="37.40" x2="1120.14" y2="71.88" stroke="#374151" stroke-width="1.2" stroke-linecap="round" />
  <rect x="1125.57" y="45.40" width="5.15" height="31.97" rx="1.5" fill="#000000" opacity="0.06" />
  <rect x="1117.57" y="37.40" width="5.15" height="31.97" rx="1.5" fill="#0ea5a4" fill-opacity="0.95" stroke="none" />
  <line x1="1131.24" y1="37.40" x2="1131.24" y2="71.88" stroke="#374151" stroke-width="1.2" stroke-linecap="round" />
  <rect x="1136.67" y="77.37" width="5.15" height="1.88" rx="1.5" fill="#000000" opacity="0.06" />
  <rect x="1128.67" y="69.37" width="5.15" height="1.88" rx="1.5" fill="#0ea5a4" fill-opacity="0.95" stroke="none" />
  <line x1="1142.34" y1="37.40" x2="1142.34" y2="71.88" stroke="#374151" stroke-width="1.2" stroke-linecap="round" />
  <rect x="1147.77" y="77.37" width="5.15" height="1.88" rx="1.5" fill="#000000" opacity="0.06" />
  <rect x="1139.77" y="69.37" width="5.15" height="1.88" rx="1.5" fill="#0ea5a4" fill-opacity="0.95" stroke="none" />
  <line x1="1153.95" y1="37.40" x2="1153.95" y2="71.88" stroke="#374151" stroke-width="1.2" stroke-linecap="round" />
  <rect x="1158.94" y="47.28" width="6.00" height="30.09" rx="1.5" fill="#000000" opacity="0.06" />
  <rect x="1150.94" y="39.28" width="6.00" height="30.09" rx="1.5" fill="#0ea5a4" fill-opacity="0.95" stroke="none" />
</svg>