<svg xmlns="http://www.w3.org/2000/svg" viewBox="0 0 1200 360" preserveAspectRatio="xMidYMid meet">
  <line x1="45.55" y1="306.93" x2="45.55" y2="288.75" stroke="#374151" stroke-width="1.0" stroke-linecap="round" />
  <rect x="54.98" y="305.76" width="5.15" height="1.00" rx="2" fill="#000000" opacity="0.03" />
  <rect x="48.98" y="299.76" width="5.15" height="1.00" rx="1.8" fill="#000000" opacity="0.06" />
  <rect x="42.98" y="293.76" width="5.15" height="1.00" rx="2" fill="#6b7280" fill-opacity="0.92" stroke="none" />
  <line x1="56.65" y1="307.55" x2="56.65" y2="288.12" stroke="#374151" stroke-width="1.0" stroke-linecap="round" />
  <rect x="66.08" y="301.38" width="5.15" height="1.00" rx="2" fill="#000000" opacity="0.03" />
  <rect x="60.08" y="295.38" width="5.15" height="1.00" rx="1.8" fill="#000000" opacity="0.06" />
  <rect x="54.08" y="289.38" width="5.15" height="1.00" rx="2" fill="#6b7280" fill-opacity="0.92" stroke="none" />
  <line x1="67.75" y1="306.93" x2="67.75" y2="288.75" stroke="#374151" stroke-width="1.0" stroke-linecap="round" />
  <rect x="77.17" y="305.76" width="5.15" height="1.00" rx="2" fill="#000000" opacity="0.03" />
  <rect x="71.17" y="299.76" width="5.15" height="1.00" rx="1.8" fill="#000000" opacity="0.06" />
  <rect x="65.17" y="293.76" width="5.15" height="1.00" rx="2" fill="#6b7280" fill-opacity="0.92" stroke="none" />
  <line x1="78.85" y1="307.55" x2="78.85" y2="288.12" stroke="#374151" stroke-width="1.0" stroke-linecap="round" />
  <rect x="88.27" y="301.38" width="5.15" height="1.00" rx="2" fill="#000000" opacity="0.03" />
  <rect x="82.27" y="295.38" width="5.15" height="1.00" rx="1.8" fill="#000000" opacity="0.06" />
  <rect x="76.27" y="289.38" width="5.15" height="1.00" rx="2" fill="#6b7280" fill-opacity="0.92" stroke="none" />
  <line x1="89.95" y1="306.93" x2="89.95" y2="288.12" stroke="#374151" stroke-width="1.0" stroke-linecap="round" />
  <rect x="99.37" y="301.38" width="5.15" height="1.00" rx="2" fill="#000000" opacity="0.03" />
  <rect x="93.37" y="295.38" width="5.15" height="1.00" rx="1.8" fill="#000000" opacity="0.06" />
  <rect x="87.37" y="289.38" width="5.15" height="1.00" rx="2" fill="#6b7280" fill-opacity="0.92" stroke="none" />
  <line x1="101.05" y1="306.93" x2="101.05" y2="281.23" stroke="#374151" stroke-width="1.0" stroke-linecap="round" />
  <rect x="110.47" y="318.93" width="5.15" height="1.00" rx="2" fill="#000000" opacity="0.03" />
  <rect x="104.47" y="312.93" width="5.15" height="1.00" rx="1.8" fill="#000000" opacity="0.06" />
  <rect x="98.47" y="306.93" width="5.15" height="1.00" rx="2" fill="#6b7280" fill-opacity="0.92" stroke="none" />
  <line x1="112.14" y1="307.55" x2="112.14" y2="281.23" stroke="#374151" stroke-width="1.0" stroke-linecap="round" />
  <rect x="121.57" y="319.55" width="5.15" height="1.00" rx="2" fill="#000000" opacity="0.03" />
  <rect x="115.57" y="313.55" width="5.15" height="1.00" rx="1.8" fill="#000000" opacity="0.06" />
  <rect x="109.57" y="307.55" width="5.15" height="1.00" rx="2" fill="#6b7280" fill-opacity="0.92" stroke="none" />
  <line x1="123.24" y1="307.55" x2="123.24" y2="288.12" stroke="#374151" stroke-width="1.0" stroke-linecap="round" />
  <rect x="132.67" y="315.17" width="5.15" height="1.00" rx="2" fill="#000000" opacity="0.03" />
  <rect x="126.67" y="309.17" width="5.15" height="1.00" rx="1.8" fill="#000000" opacity="0.06" />
  <rect x="120.67" y="303.17" width="5.15" height="1.00" rx="2" fill="#6b7280" fill-opacity="0.92" stroke="none" />
  <line x1="134.34" y1="314.45" x2="134.34" y2="288.75" stroke="#374151" stroke-width="1.0" stroke-linecap="round" />
  <rect x="143.77" y="326.45" width="5.15" height="1.00" rx="2" fill="#000000" opacity="0.03" />
  <rect x="137.77" y="320.45" width="5.15" height="1.00" rx="1.8" fill="#000000" opacity="0.06" />
  <rect x="131.77" y="314.45" width="5.15" height="1.00" rx="2" fill="#6b7280" fill-opacity="0.92" stroke="none" />
  <line x1="145.95" y1="314.45" x2="145.95" y2="111.99" stroke="#374151" stroke-width="1.0" stroke-linecap="round" />
  <rect x="154.94" y="313.91" width="6.00" height="1.00" rx="2" fill="#000000" opacity="0.03" />
  <rect x="148.94" y="307.91" width="6.00" height="1.00" rx="1.8" fill="#000000" opacity="0.06" />
  <rect x="142.94" y="301.91" width="6.00" height="1.00" rx="2" fill="#6b7280" fill-opacity="0.92" stroke="none" />
  <line x1="157.55" y1="311.94" x2="157.55" y2="133.30" stroke="#374151" stroke-width="1.0" stroke-linecap="round" />
  <rect x="166.98" y="322.06" width="5.15" height="1.00" rx="2" fill="#000000" opacity="0.03" />
  <rect x="160.98" y="316.06" width="5.15" height="1.00" rx="1.8" fill="#000000" opacity="0.06" />
  <rect x="154.98" y="310.06" width="5.15" height="1.00" rx="2" fill="#6b7280" fill-opacity="0.92" stroke="none" />
  <line x1="168.65" y1="306.93" x2="168.65" y2="133.30" stroke="#374151" stroke-width="1.0" stroke-linecap="round" />
  <rect x="178.08" y="312.66" width="5.15" height="1.00" rx="2" fill="#000000" opacity="0.03" />
  <rect x="172.08" y="306.66" width="5.15" height="1.00" rx="1.8" fill="#000000" opacity="0.06" />
  <rect x="166.08" y="300.66" width="5.15" height="1.00" rx="2" fill="#6b7280" fill-opacity="0.92" stroke="none" />
  <line x1="179.75" y1="307.55" x2="179.75" y2="125.15" stroke="#374151" stroke-width="1.0" stroke-linecap="round" />
  <rect x="189.17" y="317.67" width="5.15" height="1.00" rx="2" fill="#000000" opacity="0.03" />
  <rect x="183.17" y="311.67" width="5.15" height="1.00" rx="1.8" fill="#000000" opacity="0.06" />
  <rect x="177.17" y="305.67" width="5.15" height="1.00" rx="2" fill="#6b7280" fill-opacity="0.92" stroke="none" />
  <line x1="190.85" y1="306.93" x2="190.85" y2="143.33" stroke="#374151" stroke-width="1.0" stroke-linecap="round" />
  <rect x="200.27" y="313.29" width="5.15" height="1.00" rx="2" fill="#000000" opacity="0.03" />
  <rect x="194.27" y="307.29" width="5.15" height="1.00" rx="1.8" fill="#000000" opacity="0.06" />
  <rect x="188.27" y="301.29" width="5.15" height="1.00" rx="2" fill="#6b7280" fill-opacity="0.92" stroke="none" />
  <line x1="201.95" y1="306.93" x2="201.95" y2="138.94" stroke="#374151" stroke-width="1.0" stroke-linecap="round" />
  <rect x="211.37" y="317.05" width="5.15" height="1.00" rx="2" fill="#000000" opacity="0.03" />
  <rect x="205.37" y="311.05" width="5.15" height="1.00" rx="1.8" fill="#000000" opacity="0.06" />
  <rect x="199.37" y="305.05" width="5.15" height="1.00" rx="2" fill="#6b7280" fill-opacity="0.92" stroke="none" />
  <line x1="213.05" y1="313.20" x2="213.05" y2="138.94" stroke="#374151" stroke-width="1.0" stroke-linecap="round" />
  <rect x="222.47" y="310.15" width="5.15" height="1.00" rx="2" fill="#000000" opacity="0.03" />
  <rect x="216.47" y="304.15" width="5.15" height="1.00" rx="1.8" fill="#000000" opacity="0.06" />
  <rect x="210.47" y="298.15" width="5.15" height="1.00" rx="2" fill="#6b7280" fill-opacity="0.92" stroke="none" />
  <line x1="224.14" y1="314.45" x2="224.14" y2="140.82" stroke="#374151" stroke-width="1.0" stroke-linecap="round" />
  <rect x="233.57" y="324.57" width="5.15" height="1.00" rx="2" fill="#000000" opacity="0.03" />
  <rect x="227.57" y="318.57" width="5.15" height="1.00" rx="1.8" fill="#000000" opacity="0.06" />
  <rect x="221.57" y="312.57" width="5.15" height="1.00" rx="2" fill="#6b7280" fill-opacity="0.92" stroke="none" />
  <line x1="235.24" y1="326.99" x2="235.24" y2="142.08" stroke="#374151" stroke-width="1.0" stroke-linecap="round" />
  <rect x="244.67" y="327.70" width="5.15" height="1.00" rx="2" fill="#000000" opacity="0.03" />
  <rect x="238.67" y="321.70" width="5.15" height="1.00" rx="1.8" fill="#000000" opacity="0.06" />
  <rect x="232.67" y="315.70" width="5.15" height="1.00" rx="2" fill="#6b7280" fill-opacity="0.92" stroke="none" />
  <line x1="246.34" y1="328.24" x2="246.34" y2="147.72" stroke="#374151" stroke-width="1.0" stroke-linecap="round" />
  <rect x="255.77" y="315.79" width="5.15" height="1.00" rx="2" fill="#000000" opacity="0.03" />
  <rect x="249.77" y="309.79" width="5.15" height="1.00" rx="1.8" fill="#000000" opacity="0.06" />
  <rect x="243.77" y="303.79" width="5.15" height="1.00" rx="2" fill="#6b7280" fill-opacity="0.92" stroke="none" />
  <line x1="257.95" y1="303.79" x2="257.95" y2="155.87" stroke="#374151" stroke-width="1.0" stroke-linecap="round" />
  <rect x="266.94" y="233.06" width="6.00" height="1.00" rx="2" fill="#000000" opacity="0.03" />
  <rect x="260.94" y="227.06" width="6.00" height="1.00" rx="1.8" fill="#000000" opacity="0.06" />
  <rect x="254.94" y="221.06" width="6.00" height="1.00" rx="2" fill="#6b7280" fill-opacity="0.92" stroke="none" />
  <line x1="269.55" y1="233.59" x2="269.55" y2="150.23" stroke="#374151" stroke-width="1.0" stroke-linecap="round" />
  <rect x="278.98" y="244.96" width="5.15" height="1.00" rx="2" fill="#000000" opacity="0.03" />
  <rect x="272.98" y="238.96" width="5.15" height="1.00" rx="1.8" fill="#000000" opacity="0.06" />
  <rect x="266.98" y="232.96" width="5.15" height="1.00" rx="2" fill="#6b7280" fill-opacity="0.92" stroke="none" />
  <line x1="280.65" y1="228.58" x2="280.65" y2="140.82" stroke="#374151" stroke-width="1.0" stroke-linecap="round" />
  <rect x="290.08" y="235.56" width="5.15" height="1.00" rx="2" fill="#000000" opacity="0.03" />
  <rect x="284.08" y="229.56" width="5.15" height="1.00" rx="1.8" fill="#000000" opacity="0.06" />
  <rect x="278.08" y="223.56" width="5.15" height="1.00" rx="2" fill="#6b7280" fill-opacity="0.92" stroke="none" />
  <line x1="291.75" y1="228.58" x2="291.75" y2="140.82" stroke="#374151" stroke-width="1.0" stroke-linecap="round" />
  <rect x="301.17" y="239.95" width="5.15" height="1.00" rx="2" fill="#000000" opacity="0.03" />
  <rect x="295.17" y="233.95" width="5.15" height="1.00" rx="1.8" fill="#000000" opacity="0.06" />
  <rect x="289.17" y="227.95" width="5.15" height="1.00" rx="2" fill="#6b7280" fill-opacity="0.92" stroke="none" />
  <line x1="302.85" y1="227.95" x2="302.85" y2="128.92" stroke="#374151" stroke-width="1.0" stroke-linecap="round" />
  <rect x="312.27" y="229.29" width="5.15" height="1.00" rx="2" fill="#000000" opacity="0.03" />
  <rect x="306.27" y="223.29" width="5.15" height="1.00" rx="1.8" fill="#000000" opacity="0.06" />
  <rect x="300.27" y="217.29" width="5.15" height="1.00" rx="2" fill="#6b7280" fill-opacity="0.92" stroke="none" />
  <line x1="313.95" y1="231.08" x2="313.95" y2="130.17" stroke="#374151" stroke-width="1.0" stroke-linecap="round" />
  <rect x="323.37" y="239.32" width="5.15" height="1.00" rx="2" fill="#000000" opacity="0.03" />
  <rect x="317.37" y="233.32" width="5.15" height="1.00" rx="1.8" fill="#000000" opacity="0.06" />
  <rect x="311.37" y="227.32" width="5.15" height="1.00" rx="2" fill="#6b7280" fill-opacity="0.92" stroke="none" />
  <line x1="325.05" y1="233.59" x2="325.05" y2="130.17" stroke="#374151" stroke-width="1.0" stroke-linecap="round" />
  <rect x="334.47" y="244.34" width="5.15" height="1.00" rx="2" fill="#000000" opacity="0.03" />
  <rect x="328.47" y="238.34" width="5.15" height="1.00" rx="1.8" fill="#000000" opacity="0.06" />
  <rect x="322.47" y="232.34" width="5.15" height="1.00" rx="2" fill="#6b7280" fill-opacity="0.92" stroke="none" />
  <line x1="336.14" y1="227.95" x2="336.14" y2="115.13" stroke="#374151" stroke-width="1.0" stroke-linecap="round" />
  <rect x="345.57" y="238.70" width="5.15" height="1.00" rx="2" fill="#000000" opacity="0.03" />
  <rect x="339.57" y="232.70" width="5.15" height="1.00" rx="1.8" fill="#000000" opacity="0.06" />
  <rect x="333.57" y="226.70" width="5.15" height="1.00" rx="2" fill="#6b7280" fill-opacity="0.92" stroke="none" />
  <line x1="347.24" y1="232.34" x2="347.24" y2="106.98" stroke="#374151" stroke-width="1.0" stroke-linecap="round" />
  <rect x="356.67" y="239.95" width="5.15" height="1.00" rx="2" fill="#000000" opacity="0.03" />
  <rect x="350.67" y="233.95" width="5.15" height="1.00" rx="1.8" fill="#000000" opacity="0.06" />
  <rect x="344.67" y="227.95" width="5.15" height="1.00" rx="2" fill="#6b7280" fill-opacity="0.92" stroke="none" />
  <line x1="358.34" y1="232.96" x2="358.34" y2="106.98" stroke="#374151" stroke-width="1.0" stroke-linecap="round" />
  <rect x="367.77" y="240.58" width="5.15" height="1.00" rx="2" fill="#000000" opacity="0.03" />
  <rect x="361.77" y="234.58" width="5.15" height="1.00" rx="1.8" fill="#000000" opacity="0.06" />
  <rect x="355.77" y="228.58" width="5.15" height="1.00" rx="2" fill="#6b7280" fill-opacity="0.92" stroke="none" />
  <line x1="369.95" y1="233.59" x2="369.95" y2="110.11" stroke="#374151" stroke-width="1.0" stroke-linecap="round" />
  <rect x="378.94" y="244.34" width="6.00" height="1.00" rx="2" fill="#000000" opacity="0.03" />
  <rect x="372.94" y="238.34" width="6.00" height="1.00" rx="1.8" fill="#000000" opacity="0.06" />
  <rect x="366.94" y="232.34" width="6.00" height="1.00" rx="2" fill="#6b7280" fill-opacity="0.92" stroke="none" />
  <line x1="381.55" y1="233.59" x2="381.55" y2="113.25" stroke="#374151" stroke-width="1.0" stroke-linecap="round" />
  <rect x="390.98" y="244.34" width="5.15" height="1.00" rx="2" fill="#000000" opacity="0.03" />
  <rect x="384.98" y="238.34" width="5.15" height="1.00" rx="1.8" fill="#000000" opacity="0.06" />
  <rect x="378.98" y="232.34" width="5.15" height="1.00" rx="2" fill="#6b7280" fill-opacity="0.92" stroke="none" />
  <line x1="392.65" y1="233.59" x2="392.65" y2="105.72" stroke="#374151" stroke-width="1.0" stroke-linecap="round" />
  <rect x="402.08" y="228.04" width="5.15" height="1.00" rx="2" fill="#000000" opacity="0.03" />
  <rect x="396.08" y="222.04" width="5.15" height="1.00" rx="1.8" fill="#000000" opacity="0.06" />
  <rect x="390.08" y="216.04" width="5.15" height="1.00" rx="2" fill="#6b7280" fill-opacity="0.92" stroke="none" />
  <line x1="403.75" y1="233.59" x2="403.75" y2="105.72" stroke="#374151" stroke-width="1.0" stroke-linecap="round" />
  <rect x="413.17" y="244.34" width="5.15" height="1.00" rx="2" fill="#000000" opacity="0.03" />
  <rect x="407.17" y="238.34" width="5.15" height="1.00" rx="1.8" fill="#000000" opacity="0.06" />
  <rect x="401.17" y="232.34" width="5.15" height="1.00" rx="2" fill="#6b7280" fill-opacity="0.92" stroke="none" />
  <line x1="414.85" y1="228.58" x2="414.85" y2="105.10" stroke="#374151" stroke-width="1.0" stroke-linecap="round" />
  <rect x="424.27" y="239.32" width="5.15" height="1.00" rx="2" fill="#000000" opacity="0.03" />
  <rect x="418.27" y="233.32" width="5.15" height="1.00" rx="1.8" fill="#000000" opacity="0.06" />
  <rect x="412.27" y="227.32" width="5.15" height="1.00" rx="2" fill="#6b7280" fill-opacity="0.92" stroke="none" />
  <line x1="425.95" y1="227.95" x2="425.95" y2="113.87" stroke="#374151" stroke-width="1.0" stroke-linecap="round" />
  <rect x="435.37" y="238.70" width="5.15" height="1.00" rx="2" fill="#000000" opacity="0.03" />
  <rect x="429.37" y="232.70" width="5.15" height="1.00" rx="1.8" fill="#000000" opacity="0.06" />
  <rect x="423.37" y="226.70" width="5.15" height="1.00" rx="2" fill="#6b7280" fill-opacity="0.92" stroke="none" />
  <line x1="437.05" y1="228.58" x2="437.05" y2="113.87" stroke="#374151" stroke-width="1.0" stroke-linecap="round" />
  <rect x="446.47" y="239.32" width="5.15" height="1.00" rx="2" fill="#000000" opacity="0.03" />
  <rect x="440.47" y="233.32" width="5.15" height="1.00" rx="1.8" fill="#000000" opacity="0.06" />
  <rect x="434.47" y="227.32" width="5.15" height="1.00" rx="2" fill="#6b7280" fill-opacity="0.92" stroke="none" />
  <line x1="448.14" y1="228.58" x2="448.14" y2="117.01" stroke="#374151" stroke-width="1.0" stroke-linecap="round" />
  <rect x="457.57" y="236.82" width="5.15" height="1.00" rx="2" fill="#000000" opacity="0.03" />
  <rect x="451.57" y="230.82" width="5.15" height="1.00" rx="1.8" fill="#000000" opacity="0.06" />
  <rect x="445.57" y="224.82" width="5.15" height="1.00" rx="2" fill="#6b7280" fill-opacity="0.92" stroke="none" />
  <line x1="459.24" y1="228.58" x2="459.24" y2="118.26" stroke="#374151" stroke-width="1.0" stroke-linecap="round" />
  <rect x="468.67" y="236.82" width="5.15" height="1.00" rx="2" fill="#000000" opacity="0.03" />
  <rect x="462.67" y="230.82" width="5.15" height="1.00" rx="1.8" fill="#000000" opacity="0.06" />
  <rect x="456.67" y="224.82" width="5.15" height="1.00" rx="2" fill="#6b7280" fill-opacity="0.92" stroke="none" />
  <line x1="470.34" y1="227.95" x2="470.34" y2="118.26" stroke="#374151" stroke-width="1.0" stroke-linecap="round" />
  <rect x="479.77" y="238.70" width="5.15" height="1.00" rx="2" fill="#000000" opacity="0.03" />
  <rect x="473.77" y="232.70" width="5.15" height="1.00" rx="1.8" fill="#000000" opacity="0.06" />
  <rect x="467.77" y="226.70" width="5.15" height="1.00" rx="2" fill="#6b7280" fill-opacity="0.92" stroke="none" />
  <line x1="481.95" y1="228.58" x2="481.95" y2="113.25" stroke="#374151" stroke-width="1.0" stroke-linecap="round" />
  <rect x="490.94" y="239.32" width="6.00" height="1.00" rx="2" fill="#000000" opacity="0.03" />
  <rect x="484.94" y="233.32" width="6.00" height="1.00" rx="1.8" fill="#000000" opacity="0.06" />
  <rect x="478.94" y="227.32" width="6.00" height="1.00" rx="2" fill="#6b7280" fill-opacity="0.92" stroke="none" />
  <line x1="493.55" y1="227.95" x2="493.55" y2="103.22" stroke="#374151" stroke-width="1.0" stroke-linecap="round" />
  <rect x="502.98" y="135.90" width="5.15" height="1.00" rx="2" fill="#000000" opacity="0.03" />
  <rect x="496.98" y="129.90" width="5.15" height="1.00" rx="1.8" fill="#000000" opacity="0.06" />
  <rect x="490.98" y="123.90" width="5.15" height="1.00" rx="2" fill="#6b7280" fill-opacity="0.92" stroke="none" />
  <line x1="504.65" y1="227.95" x2="504.65" y2="94.44" stroke="#374151" stroke-width="1.0" stroke-linecap="round" />
  <rect x="514.08" y="231.80" width="5.15" height="1.00" rx="2" fill="#000000" opacity="0.03" />
  <rect x="508.08" y="225.80" width="5.15" height="1.00" rx="1.8" fill="#000000" opacity="0.06" />
  <rect x="502.08" y="219.80" width="5.15" height="1.00" rx="2" fill="#6b7280" fill-opacity="0.92" stroke="none" />
  <line x1="515.75" y1="227.95" x2="515.75" y2="94.44" stroke="#374151" stroke-width="1.0" stroke-linecap="round" />
  <rect x="525.17" y="238.70" width="5.15" height="1.00" rx="2" fill="#000000" opacity="0.03" />
  <rect x="519.17" y="232.70" width="5.15" height="1.00" rx="1.8" fill="#000000" opacity="0.06" />
  <rect x="513.17" y="226.70" width="5.15" height="1.00" rx="2" fill="#6b7280" fill-opacity="0.92" stroke="none" />
  <line x1="526.85" y1="228.58" x2="526.85" y2="90.05" stroke="#374151" stroke-width="1.0" stroke-linecap="round" />
  <rect x="536.27" y="235.56" width="5.15" height="1.00" rx="2" fill="#000000" opacity="0.03" />
  <rect x="530.27" y="229.56" width="5.15" height="1.00" rx="1.8" fill="#000000" opacity="0.06" />
  <rect x="524.27" y="223.56" width="5.15" height="1.00" rx="2" fill="#6b7280" fill-opacity="0.92" stroke="none" />
  <line x1="537.95" y1="228.58" x2="537.95" y2="79.40" stroke="#374151" stroke-width="1.0" stroke-linecap="round" />
  <rect x="547.37" y="239.32" width="5.15" height="1.00" rx="2" fill="#000000" opacity="0.03" />
  <rect x="541.37" y="233.32" width="5.15" height="1.00" rx="1.8" fill="#000000" opacity="0.06" />
  <rect x="535.37" y="227.32" width="5.15" height="1.00" rx="2" fill="#6b7280" fill-opacity="0.92" stroke="none" />
  <line x1="549.05" y1="227.95" x2="549.05" y2="79.40" stroke="#374151" stroke-width="1.0" stroke-linecap="round" />
  <rect x="558.47" y="234.94" width="5.15" height="1.00" rx="2" fill="#000000" opacity="0.03" />
  <rect x="552.47" y="228.94" width="5.15" height="1.00" rx="1.8" fill="#000000" opacity="0.06" />
  <rect x="546.47" y="222.94" width="5.15" height="1.00" rx="2" fill="#6b7280" fill-opacity="0.92" stroke="none" />
  <line x1="560.14" y1="228.58" x2="560.14" y2="78.14" stroke="#374151" stroke-width="1.0" stroke-linecap="round" />
  <rect x="569.57" y="238.70" width="5.15" height="1.00" rx="2" fill="#000000" opacity="0.03" />
  <rect x="563.57" y="232.70" width="5.15" height="1.00" rx="1.8" fill="#000000" opacity="0.06" />
  <rect x="557.57" y="226.70" width="5.15" height="1.00" rx="2" fill="#6b7280" fill-opacity="0.92" stroke="none" />
  <line x1="571.24" y1="228.58" x2="571.24" y2="85.04" stroke="#374151" stroke-width="1.0" stroke-linecap="round" />
  <rect x="580.67" y="120.86" width="5.15" height="1.00" rx="2" fill="#000000" opacity="0.03" />
  <rect x="574.67" y="114.86" width="5.15" height="1.00" rx="1.8" fill="#000000" opacity="0.06" />
  <rect x="568.67" y="108.86" width="5.15" height="1.00" rx="2" fill="#6b7280" fill-opacity="0.92" stroke="none" />
  <line x1="582.34" y1="103.22" x2="582.34" y2="69.37" stroke="#374151" stroke-width="1.0" stroke-linecap="round" />
  <rect x="591.77" y="105.81" width="5.15" height="1.00" rx="2" fill="#000000" opacity="0.03" />
  <rect x="585.77" y="99.81" width="5.15" height="1.00" rx="1.8" fill="#000000" opacity="0.06" />
  <rect x="579.77" y="93.81" width="5.15" height="1.00" rx="2" fill="#6b7280" fill-opacity="0.92" stroke="none" />
  <line x1="593.95" y1="227.95" x2="593.95" y2="69.37" stroke="#374151" stroke-width="1.0" stroke-linecap="round" />
  <rect x="602.94" y="238.07" width="6.00" height="1.00" rx="2" fill="#000000" opacity="0.03" />
  <rect x="596.94" y="232.07" width="6.00" height="1.00" rx="1.8" fill="#000000" opacity="0.06" />
  <rect x="590.94" y="226.07" width="6.00" height="1.00" rx="2" fill="#6b7280" fill-opacity="0.92" stroke="none" />
  <line x1="605.55" y1="228.58" x2="605.55" y2="71.88" stroke="#374151" stroke-width="1.0" stroke-linecap="round" />
  <rect x="614.98" y="238.70" width="5.15" height="1.00" rx="2" fill="#000000" opacity="0.03" />
  <rect x="608.98" y="232.70" width="5.15" height="1.00" rx="1.8" fill="#000000" opacity="0.06" />
  <rect x="602.98" y="226.70" width="5.15" height="1.00" rx="2" fill="#6b7280" fill-opacity="0.92" stroke="none" />
  <line x1="616.65" y1="228.58" x2="616.65" y2="80.65" stroke="#374151" stroke-width="1.0" stroke-linecap="round" />
  <rect x="626.08" y="239.32" width="5.15" height="1.00" rx="2" fill="#000000" opacity="0.03" />
  <rect x="620.08" y="233.32" width="5.15" height="1.00" rx="1.8" fill="#000000" opacity="0.06" />
  <rect x="614.08" y="227.32" width="5.15" height="1.00" rx="2" fill="#6b7280" fill-opacity="0.92" stroke="none" />
  <line x1="627.75" y1="227.95" x2="627.75" y2="80.65" stroke="#374151" stroke-width="1.0" stroke-linecap="round" />
  <rect x="637.17" y="234.94" width="5.15" height="1.00" rx="2" fill="#000000" opacity="0.03" />
  <rect x="631.17" y="228.94" width="5.15" height="1.00" rx="1.8" fill="#000000" opacity="0.06" />
  <rect x="625.17" y="222.94" width="5.15" height="1.00" rx="2" fill="#6b7280" fill-opacity="0.92" stroke="none" />
  <line x1="638.85" y1="228.58" x2="638.85" y2="94.44" stroke="#374151" stroke-width="1.0" stroke-linecap="round" />
  <rect x="648.27" y="239.32" width="5.15" height="1.00" rx="2" fill="#000000" opacity="0.03" />
  <rect x="642.27" y="233.32" width="5.15" height="1.00" rx="1.8" fill="#000000" opacity="0.06" />
  <rect x="636.27" y="227.32" width="5.15" height="1.00" rx="2" fill="#6b7280" fill-opacity="0.92" stroke="none" />
  <line x1="649.95" y1="227.95" x2="649.95" y2="85.04" stroke="#374151" stroke-width="1.0" stroke-linecap="round" />
  <rect x="659.37" y="234.94" width="5.15" height="1.00" rx="2" fill="#000000" opacity="0.03" />
  <rect x="653.37" y="228.94" width="5.15" height="1.00" rx="1.8" fill="#000000" opacity="0.06" />
  <rect x="647.37" y="222.94" width="5.15" height="1.00" rx="2" fill="#6b7280" fill-opacity="0.92" stroke="none" />
  <line x1="661.05" y1="227.95" x2="661.05" y2="85.67" stroke="#374151" stroke-width="1.0" stroke-linecap="round" />
  <rect x="670.47" y="238.70" width="5.15" height="1.00" rx="2" fill="#000000" opacity="0.03" />
  <rect x="664.47" y="232.70" width="5.15" height="1.00" rx="1.8" fill="#000000" opacity="0.06" />
  <rect x="658.47" y="226.70" width="5.15" height="1.00" rx="2" fill="#6b7280" fill-opacity="0.92" stroke="none" />
  <line x1="672.14" y1="228.58" x2="672.14" y2="81.28" stroke="#374151" stroke-width="1.0" stroke-linecap="round" />
  <rect x="681.57" y="239.32" width="5.15" height="1.00" rx="2" fill="#000000" opacity="0.03" />
  <rect x="675.57" y="233.32" width="5.15" height="1.00" rx="1.8" fill="#000000" opacity="0.06" />
  <rect x="669.57" y="227.32" width="5.15" height="1.00" rx="2" fill="#6b7280" fill-opacity="0.92" stroke="none" />
  <line x1="683.24" y1="228.58" x2="683.24" y2="65.61" stroke="#374151" stroke-width="1.0" stroke-linecap="round" />
  <rect x="692.67" y="238.70" width="5.15" height="1.00" rx="2" fill="#000000" opacity="0.03" />
  <rect x="686.67" y="232.70" width="5.15" height="1.00" rx="1.8" fill="#000000" opacity="0.06" />
  <rect x="680.67" y="226.70" width="5.15" height="1.00" rx="2" fill="#6b7280" fill-opacity="0.92" stroke="none" />
  <line x1="694.34" y1="227.95" x2="694.34" y2="70.00" stroke="#374151" stroke-width="1.0" stroke-linecap="round" />
  <rect x="703.77" y="238.07" width="5.15" height="1.00" rx="2" fill="#000000" opacity="0.03" />
  <rect x="697.77" y="232.07" width="5.15" height="1.00" rx="1.8" fill="#000000" opacity="0.06" />
  <rect x="691.77" y="226.07" width="5.15" height="1.00" rx="2" fill="#6b7280" fill-opacity="0.92" stroke="none" />
  <line x1="705.95" y1="228.58" x2="705.95" y2="70.00" stroke="#374151" stroke-width="1.0" stroke-linecap="round" />
  <rect x="714.94" y="234.94" width="6.00" height="1.00" rx="2" fill="#000000" opacity="0.03" />
  <rect x="708.94" y="228.94" width="6.00" height="1.00" rx="1.8" fill="#000000" opacity="0.06" />
  <rect x="702.94" y="222.94" width="6.00" height="1.00" rx="2" fill="#6b7280" fill-opacity="0.92" stroke="none" />
  <line x1="717.55" y1="228.58" x2="717.55" y2="71.25" stroke="#374151" stroke-width="1.0" stroke-linecap="round" />
  <rect x="726.98" y="238.70" width="5.15" height="1.00" rx="2" fill="#000000" opacity="0.03" />
  <rect x="720.98" y="232.70" width="5.15" height="1.00" rx="1.8" fill="#000000" opacity="0.06" />
  <rect x="714.98" y="226.70" width="5.15" height="1.00" rx="2" fill="#6b7280" fill-opacity="0.92" stroke="none" />
  <line x1="728.65" y1="227.95" x2="728.65" y2="72.50" stroke="#374151" stroke-width="1.0" stroke-linecap="round" />
  <rect x="738.08" y="238.07" width="5.15" height="1.00" rx="2" fill="#000000" opacity="0.03" />
  <rect x="732.08" y="232.07" width="5.15" height="1.00" rx="1.8" fill="#000000" opacity="0.06" />
  <rect x="726.08" y="226.07" width="5.15" height="1.00" rx="2" fill="#6b7280" fill-opacity="0.92" stroke="none" />
  <line x1="739.75" y1="228.58" x2="739.75" y2="72.50" stroke="#374151" stroke-width="1.0" stroke-linecap="round" />
  <rect x="749.17" y="238.70" width="5.15" height="1.00" rx="2" fill="#000000" opacity="0.03" />
  <rect x="743.17" y="232.70" width="5.15" height="1.00" rx="1.8" fill="#000000" opacity="0.06" />
  <rect x="737.17" y="226.70" width="5.15" height="1.00" rx="2" fill="#6b7280" fill-opacity="0.92" stroke="none" />
  <line x1="750.85" y1="227.95" x2="750.85" y2="70.62" stroke="#374151" stroke-width="1.0" stroke-linecap="round" />
  <rect x="760.27" y="96.41" width="5.15" height="1.00" rx="2" fill="#000000" opacity="0.03" />
  <rect x="754.27" y="90.41" width="5.15" height="1.00" rx="1.8" fill="#000000" opacity="0.06" />
  <rect x="748.27" y="84.41" width="5.15" height="1.00" rx="2" fill="#6b7280" fill-opacity="0.92" stroke="none" />
  <line x1="761.95" y1="225.44" x2="761.95" y2="56.21" stroke="#374151" stroke-width="1.0" stroke-linecap="round" />
  <rect x="771.37" y="78.86" width="5.15" height="1.00" rx="2" fill="#000000" opacity="0.03" />
  <rect x="765.37" y="72.86" width="5.15" height="1.00" rx="1.8" fill="#000000" opacity="0.06" />
  <rect x="759.37" y="66.86" width="5.15" height="1.00" rx="2" fill="#6b7280" fill-opacity="0.92" stroke="none" />
  <line x1="773.05" y1="228.58" x2="773.05" y2="56.83" stroke="#374151" stroke-width="1.0" stroke-linecap="round" />
  <rect x="782.47" y="238.70" width="5.15" height="1.00" rx="2" fill="#000000" opacity="0.03" />
  <rect x="776.47" y="232.70" width="5.15" height="1.00" rx="1.8" fill="#000000" opacity="0.06" />
  <rect x="770.47" y="226.70" width="5.15" height="1.00" rx="2" fill="#6b7280" fill-opacity="0.92" stroke="none" />
  <line x1="784.14" y1="228.58" x2="784.14" y2="56.83" stroke="#374151" stroke-width="1.0" stroke-linecap="round" />
  <rect x="793.57" y="234.31" width="5.15" height="1.00" rx="2" fill="#000000" opacity="0.03" />
  <rect x="787.57" y="228.31" width="5.15" height="1.00" rx="1.8" fill="#000000" opacity="0.06" />
  <rect x="781.57" y="222.31" width="5.15" height="1.00" rx="2" fill="#6b7280" fill-opacity="0.92" stroke="none" />
  <line x1="795.24" y1="227.95" x2="795.24" y2="68.12" stroke="#374151" stroke-width="1.0" stroke-linecap="round" />
  <rect x="804.67" y="238.07" width="5.15" height="1.00" rx="2" fill="#000000" opacity="0.03" />
  <rect x="798.67" y="232.07" width="5.15" height="1.00" rx="1.8" fill="#000000" opacity="0.06" />
  <rect x="792.67" y="226.07" width="5.15" height="1.00" rx="2" fill="#6b7280" fill-opacity="0.92" stroke="none" />
  <line x1="806.34" y1="233.59" x2="806.34" y2="71.25" stroke="#374151" stroke-width="1.0" stroke-linecap="round" />
  <rect x="815.77" y="239.95" width="5.15" height="1.00" rx="2" fill="#000000" opacity="0.03" />
  <rect x="809.77" y="233.95" width="5.15" height="1.00" rx="1.8" fill="#000000" opacity="0.06" />
  <rect x="803.77" y="227.95" width="5.15" height="1.00" rx="2" fill="#6b7280" fill-opacity="0.92" stroke="none" />
  <line x1="817.95" y1="233.59" x2="817.95" y2="71.25" stroke="#374151" stroke-width="1.0" stroke-linecap="round" />
  <rect x="826.94" y="235.56" width="6.00" height="1.00" rx="2" fill="#000000" opacity="0.03" />
  <rect x="820.94" y="229.56" width="6.00" height="1.00" rx="1.8" fill="#000000" opacity="0.06" />
  <rect x="814.94" y="223.56" width="6.00" height="1.00" rx="2" fill="#6b7280" fill-opacity="0.92" stroke="none" />
  <line x1="829.55" y1="227.95" x2="829.55" y2="70.00" stroke="#374151" stroke-width="1.0" stroke-linecap="round" />
  <rect x="838.98" y="238.07" width="5.15" height="1.00" rx="2" fill="#000000" opacity="0.03" />
  <rect x="832.98" y="232.07" width="5.15" height="1.00" rx="1.8" fill="#000000" opacity="0.06" />
  <rect x="826.98" y="226.07" width="5.15" height="1.00" rx="2" fill="#6b7280" fill-opacity="0.92" stroke="none" />
  <line x1="840.65" y1="228.58" x2="840.65" y2="77.52" stroke="#374151" stroke-width="1.0" stroke-linecap="round" />
  <rect x="850.08" y="238.70" width="5.15" height="1.00" rx="2" fill="#000000" opacity="0.03" />
  <rect x="844.08" y="232.70" width="5.15" height="1.00" rx="1.8" fill="#000000" opacity="0.06" />
  <rect x="838.08" y="226.70" width="5.15" height="1.00" rx="2" fill="#6b7280" fill-opacity="0.92" stroke="none" />
  <line x1="851.75" y1="228.58" x2="851.75" y2="78.14" stroke="#374151" stroke-width="1.0" stroke-linecap="round" />
  <rect x="861.17" y="231.18" width="5.15" height="1.00" rx="2" fill="#000000" opacity="0.03" />
  <rect x="855.17" y="225.18" width="5.15" height="1.00" rx="1.8" fill="#000000" opacity="0.06" />
  <rect x="849.17" y="219.18" width="5.15" height="1.00" rx="2" fill="#6b7280" fill-opacity="0.92" stroke="none" />
  <line x1="862.85" y1="227.95" x2="862.85" y2="73.76" stroke="#374151" stroke-width="1.0" stroke-linecap="round" />
  <rect x="872.27" y="238.07" width="5.15" height="1.00" rx="2" fill="#000000" opacity="0.03" />
  <rect x="866.27" y="232.07" width="5.15" height="1.00" rx="1.8" fill="#000000" opacity="0.06" />
  <rect x="860.27" y="226.07" width="5.15" height="1.00" rx="2" fill="#6b7280" fill-opacity="0.92" stroke="none" />
  <line x1="873.95" y1="228.58" x2="873.95" y2="91.93" stroke="#374151" stroke-width="1.0" stroke-linecap="round" />
  <rect x="883.37" y="239.32" width="5.15" height="1.00" rx="2" fill="#000000" opacity="0.03" />
  <rect x="877.37" y="233.32" width="5.15" height="1.00" rx="1.8" fill="#000000" opacity="0.06" />
  <rect x="871.37" y="227.32" width="5.15" height="1.00" rx="2" fill="#6b7280" fill-opacity="0.92" stroke="none" />
  <line x1="885.05" y1="227.95" x2="885.05" y2="103.22" stroke="#374151" stroke-width="1.0" stroke-linecap="round" />
  <rect x="894.47" y="235.56" width="5.15" height="1.00" rx="2" fill="#000000" opacity="0.03" />
  <rect x="888.47" y="229.56" width="5.15" height="1.00" rx="1.8" fill="#000000" opacity="0.06" />
  <rect x="882.47" y="223.56" width="5.15" height="1.00" rx="2" fill="#6b7280" fill-opacity="0.92" stroke="none" />
  <line x1="896.14" y1="228.58" x2="896.14" y2="103.22" stroke="#374151" stroke-width="1.0" stroke-linecap="round" />
  <rect x="905.57" y="239.32" width="5.15" height="1.00" rx="2" fill="#000000" opacity="0.03" />
  <rect x="899.57" y="233.32" width="5.15" height="1.00" rx="1.8" fill="#000000" opacity="0.06" />
  <rect x="893.57" y="227.32" width="5.15" height="1.00" rx="2" fill="#6b7280" fill-opacity="0.92" stroke="none" />
  <line x1="907.24" y1="228.58" x2="907.24" y2="101.34" stroke="#374151" stroke-width="1.0" stroke-linecap="round" />
  <rect x="916.67" y="233.06" width="5.15" height="1.00" rx="2" fill="#000000" opacity="0.03" />
  <rect x="910.67" y="227.06" width="5.15" height="1.00" rx="1.8" fill="#000000" opacity="0.06" />
  <rect x="904.67" y="221.06" width="5.15" height="1.00" rx="2" fill="#6b7280" fill-opacity="0.92" stroke="none" />
  <line x1="918.34" y1="228.58" x2="918.34" y2="102.59" stroke="#374151" stroke-width="1.0" stroke-linecap="round" />
  <rect x="927.77" y="239.32" width="5.15" height="1.00" rx="2" fill="#000000" opacity="0.03" />
  <rect x="921.77" y="233.32" width="5.15" height="1.00" rx="1.8" fill="#000000" opacity="0.06" />
  <rect x="915.77" y="227.32" width="5.15" height="1.00" rx="2" fill="#6b7280" fill-opacity="0.92" stroke="none" />
  <line x1="929.95" y1="228.58" x2="929.95" y2="102.59" stroke="#374151" stroke-width="1.0" stroke-linecap="round" />
  <rect x="938.94" y="233.06" width="6.00" height="1.00" rx="2" fill="#000000" opacity="0.03" />
  <rect x="932.94" y="227.06" width="6.00" height="1.00" rx="1.8" fill="#000000" opacity="0.06" />
  <rect x="926.94" y="221.06" width="6.00" height="1.00" rx="2" fill="#6b7280" fill-opacity="0.92" stroke="none" />
  <line x1="941.55" y1="227.95" x2="941.55" y2="80.65" stroke="#374151" stroke-width="1.0" stroke-linecap="round" />
  <rect x="950.98" y="238.70" width="5.15" height="1.00" rx="2" fill="#000000" opacity="0.03" />
  <rect x="944.98" y="232.70" width="5.15" height="1.00" rx="1.8" fill="#000000" opacity="0.06" />
  <rect x="938.98" y="226.70" width="5.15" height="1.00" rx="2" fill="#6b7280" fill-opacity="0.92" stroke="none" />
  <line x1="952.65" y1="228.58" x2="952.65" y2="82.53" stroke="#374151" stroke-width="1.0" stroke-linecap="round" />
  <rect x="962.08" y="239.32" width="5.15" height="1.00" rx="2" fill="#000000" opacity="0.03" />
  <rect x="956.08" y="233.32" width="5.15" height="1.00" rx="1.8" fill="#000000" opacity="0.06" />
  <rect x="950.08" y="227.32" width="5.15" height="1.00" rx="2" fill="#6b7280" fill-opacity="0.92" stroke="none" />
  <line x1="963.75" y1="227.32" x2="963.75" y2="98.20" stroke="#374151" stroke-width="1.0" stroke-linecap="round" />
  <rect x="973.17" y="234.94" width="5.15" height="1.00" rx="2" fill="#000000" opacity="0.03" />
  <rect x="967.17" y="228.94" width="5.15" height="1.00" rx="1.8" fill="#000000" opacity="0.06" />
  <rect x="961.17" y="222.94" width="5.15" height="1.00" rx="2" fill="#6b7280" fill-opacity="0.92" stroke="none" />
  <line x1="974.85" y1="113.25" x2="974.85" y2="101.34" stroke="#374151" stroke-width="1.0" stroke-linecap="round" />
  <rect x="984.27" y="114.59" width="5.15" height="1.00" rx="2" fill="#000000" opacity="0.03" />
  <rect x="978.27" y="108.59" width="5.15" height="1.00" rx="1.8" fill="#000000" opacity="0.06" />
  <rect x="972.27" y="102.59" width="5.15" height="1.00" rx="2" fill="#6b7280" fill-opacity="0.92" stroke="none" />
  <line x1="985.95" y1="114.50" x2="985.95" y2="101.96" stroke="#374151" stroke-width="1.0" stroke-linecap="round" />
  <rect x="995.37" y="120.86" width="5.15" height="1.00" rx="2" fill="#000000" opacity="0.03" />
  <rect x="989.37" y="114.86" width="5.15" height="1.00" rx="1.8" fill="#000000" opacity="0.06" />
  <rect x="983.37" y="108.86" width="5.15" height="1.00" rx="2" fill="#6b7280" fill-opacity="0.92" stroke="none" />
  <line x1="997.05" y1="115.13" x2="997.05" y2="105.72" stroke="#374151" stroke-width="1.0" stroke-linecap="round" />
  <rect x="1006.47" y="118.98" width="5.15" height="1.00" rx="2" fill="#000000" opacity="0.03" />
  <rect x="1000.47" y="112.98" width="5.15" height="1.00" rx="1.8" fill="#000000" opacity="0.06" />
  <rect x="994.47" y="106.98" width="5.15" height="1.00" rx="2" fill="#6b7280" fill-opacity="0.92" stroke="none" />
  <line x1="1008.14" y1="115.13" x2="1008.14" y2="105.72" stroke="#374151" stroke-width="1.0" stroke-linecap="round" />
  <rect x="1017.57" y="118.98" width="5.15" height="1.00" rx="2" fill="#000000" opacity="0.03" />
  <rect x="1011.57" y="112.98" width="5.15" height="1.00" rx="1.8" fill="#000000" opacity="0.06" />
  <rect x="1005.57" y="106.98" width="5.15" height="1.00" rx="2" fill="#6b7280" fill-opacity="0.92" stroke="none" />
  <line x1="1019.24" y1="117.01" x2="1019.24" y2="94.44" stroke="#374151" stroke-width="1.0" stroke-linecap="round" />
  <rect x="1028.67" y="116.47" width="5.15" height="1.00" rx="2" fill="#000000" opacity="0.03" />
  <rect x="1022.67" y="110.47" width="5.15" height="1.00" rx="1.8" fill="#000000" opacity="0.06" />
  <rect x="1016.67" y="104.47" width="5.15" height="1.00" rx="2" fill="#6b7280" fill-opacity="0.92" stroke="none" />
  <line x1="1030.34" y1="110.74" x2="1030.34" y2="80.02" stroke="#374151" stroke-width="1.0" stroke-linecap="round" />
  <rect x="1039.77" y="112.71" width="5.15" height="1.00" rx="2" fill="#000000" opacity="0.03" />
  <rect x="1033.77" y="106.71" width="5.15" height="1.00" rx="1.8" fill="#000000" opacity="0.06" />
  <rect x="1027.77" y="100.71" width="5.15" height="1.00" rx="2" fill="#6b7280" fill-opacity="0.92" stroke="none" />
  <line x1="1041.95" y1="110.74" x2="1041.95" y2="80.02" stroke="#374151" stroke-width="1.0" stroke-linecap="round" />
  <rect x="1050.94" y="112.71" width="6.00" height="1.00" rx="2" fill="#000000" opacity="0.03" />
  <rect x="1044.94" y="106.71" width="6.00" height="1.00" rx="1.8" fill="#000000" opacity="0.06" />
  <rect x="1038.94" y="100.71" width="6.00" height="1.00" rx="2" fill="#6b7280" fill-opacity="0.92" stroke="none" />
  <line x1="1053.55" y1="105.72" x2="1053.55" y2="84.41" stroke="#374151" stroke-width="1.0" stroke-linecap="round" />
  <rect x="1062.98" y="103.93" width="5.15" height="1.00" rx="2" fill="#000000" opacity="0.03" />
  <rect x="1056.98" y="97.93" width="5.15" height="1.00" rx="1.8" fill="#000000" opacity="0.06" />
  <rect x="1050.98" y="91.93" width="5.15" height="1.00" rx="2" fill="#6b7280" fill-opacity="0.92" stroke="none" />
  <line x1="1109.05" y1="321.97" x2="1109.05" y2="289.38" stroke="#374151" stroke-width="1.0" stroke-linecap="round" />
  <rect x="1118.47" y="307.02" width="5.15" height="1.00" rx="2" fill="#000000" opacity="0.03" />
  <rect x="1112.47" y="301.02" width="5.15" height="1.00" rx="1.8" fill="#000000" opacity="0.06" />
  <rect x="1106.47" y="295.02" width="5.15" height="1.00" rx="2" fill="#6b7280" fill-opacity="0.92" stroke="none" />
  <line x1="1120.14" y1="322.60" x2="1120.14" y2="288.12" stroke="#374151" stroke-width="1.0" stroke-linecap="round" />
  <rect x="1129.57" y="334.60" width="5.15" height="1.00" rx="2" fill="#000000" opacity="0.03" />
  <rect x="1123.57" y="328.60" width="5.15" height="1.00" rx="1.8" fill="#000000" opacity="0.06" />
  <rect x="1117.57" y="322.60" width="5.15" height="1.00" rx="2" fill="#6b7280" fill-opacity="0.92" stroke="none" />
  <line x1="1131.24" y1="322.60" x2="1131.24" y2="288.12" stroke="#374151" stroke-width="1.0" stroke-linecap="round" />
  <rect x="1140.67" y="302.63" width="5.15" height="1.00" rx="2" fill="#000000" opacity="0.03" />
  <rect x="1134.67" y="296.63" width="5.15" height="1.00" rx="1.8" fill="#000000" opacity="0.06" />
  <rect x="1128.67" y="290.63" width="5.15" height="1.00" rx="2" fill="#6b7280" fill-opacity="0.92" stroke="none" />
  <line x1="1142.34" y1="322.60" x2="1142.34" y2="288.12" stroke="#374151" stroke-width="1.0" stroke-linecap="round" />
  <rect x="1151.77" y="302.63" width="5.15" height="1.00" rx="2" fill="#000000" opacity="0.03" />
  <rect x="1145.77" y="296.63" width="5.15" height="1.00" rx="1.8" fill="#000000" opacity="0.06" />
  <rect x="1139.77" y="290.63" width="5.15" height="1.00" rx="2" fill="#6b7280" fill-opacity="0.92" stroke="none" />
  <line x1="1153.95" y1="322.60" x2="1153.95" y2="288.12" stroke="#374151" stroke-width="1.0" stroke-linecap="round" />
  <rect x="1162.94" y="332.72" width="6.00" height="1.00" rx="2" fill="#000000" opacity="0.03" />
  <rect x="1156.94" y="326.72" width="6.00" height="1.00" rx="1.8" fill="#000000" opacity="0.06" />
  <rect x="1150.94" y="320.72" width="6.00" height="1.00" rx="2" fill="#6b7280" fill-opacity="0.92" stroke="none" />
</svg>