<svg xmlns="http://www.w3.org/2000/svg" viewBox="0 0 1200 360" role="img" aria-labelledby="title desc">
  <title id="title">capitovo Candlestick Illustration</title>
  <desc id="desc">Minimalistische Kerzen mit diagonalen Schatten, wie in der Designvorlage dargestellt.</desc>
  <defs>
    <linearGradient id="bgFade" x1="0" y1="0" x2="0" y2="1">
      <stop offset="0%" stop-color="#fdfdfd" />
      <stop offset="100%" stop-color="#f5f6f8" />
    </linearGradient>
    <path id="shadow-shape" d="M-6 -4 L10 2 L10 18 L-6 10 Z" fill="#d3d9e3" opacity="0.55" />
  </defs>

  <rect width="1200" height="360" fill="url(#bgFade)" />

  <g transform="translate(40 58)">
    <path d="M40 152 C160 48 320 32 440 144 C520 220 660 232 760 148 C876 48 1030 60 1120 140" fill="none" stroke="#e3e7ee" stroke-width="6" stroke-linecap="round" />
    <path d="M40 152 C160 48 320 32 440 144 C520 220 660 232 760 148 C876 48 1030 60 1120 140" fill="none" stroke="#d7dce5" stroke-width="2" stroke-linecap="round" stroke-dasharray="4 12" />

    <g stroke="#0f172a" stroke-width="1.6" stroke-linecap="round">
      <g transform="translate(40 0)">
        <use href="#shadow-shape" transform="translate(0 136)" />
        <line x1="0" y1="40" x2="0" y2="136" />
        <rect x="-4" y="48" width="8" height="26" rx="2.4" fill="#1b7ad8" />
      </g>
      <g transform="translate(70 0)">
        <use href="#shadow-shape" transform="translate(0 140)" />
        <line x1="0" y1="44" x2="0" y2="140" />
        <rect x="-4" y="50" width="8" height="22" rx="2.4" fill="#98a4b5" />
      </g>
      <g transform="translate(100 0)">
        <use href="#shadow-shape" transform="translate(0 144)" />
        <line x1="0" y1="48" x2="0" y2="144" />
        <rect x="-4" y="60" width="8" height="24" rx="2.4" fill="#1b7ad8" />
      </g>
      <g transform="translate(130 0)">
        <use href="#shadow-shape" transform="translate(0 148)" />
        <line x1="0" y1="52" x2="0" y2="148" />
        <rect x="-4" y="60" width="8" height="26" rx="2.4" fill="#1b7ad8" />
      </g>
      <g transform="translate(160 0)">
        <use href="#shadow-shape" transform="translate(0 152)" />
        <line x1="0" y1="56" x2="0" y2="152" />
        <rect x="-4" y="62" width="8" height="22" rx="2.4" fill="#98a4b5" />
      </g>
      <g transform="translate(190 0)">
        <use href="#shadow-shape" transform="translate(0 156)" />
        <line x1="0" y1="60" x2="0" y2="156" />
        <rect x="-4" y="72" width="8" height="24" rx="2.4" fill="#1b7ad8" />
      </g>
      <g transform="translate(220 0)">
        <use href="#shadow-shape" transform="translate(0 160)" />
        <line x1="0" y1="64" x2="0" y2="160" />
        <rect x="-4" y="72" width="8" height="26" rx="2.4" fill="#1b7ad8" />
      </g>
      <g transform="translate(250 0)">
        <use href="#shadow-shape" transform="translate(0 164)" />
        <line x1="0" y1="68" x2="0" y2="164" />
        <rect x="-4" y="74" width="8" height="22" rx="2.4" fill="#98a4b5" />
      </g>
      <g transform="translate(280 0)">
        <use href="#shadow-shape" transform="translate(0 168)" />
        <line x1="0" y1="72" x2="0" y2="168" />
        <rect x="-4" y="84" width="8" height="24" rx="2.4" fill="#1b7ad8" />
      </g>
      <g transform="translate(310 0)">
        <use href="#shadow-shape" transform="translate(0 172)" />
        <line x1="0" y1="76" x2="0" y2="172" />
        <rect x="-4" y="84" width="8" height="26" rx="2.4" fill="#1b7ad8" />
      </g>
      <g transform="translate(340 0)">
        <use href="#shadow-shape" transform="translate(0 176)" />
        <line x1="0" y1="80" x2="0" y2="176" />
        <rect x="-4" y="86" width="8" height="22" rx="2.4" fill="#98a4b5" />
      </g>
      <g transform="translate(370 0)">
        <use href="#shadow-shape" transform="translate(0 180)" />
        <line x1="0" y1="84" x2="0" y2="180" />
        <rect x="-4" y="96" width="8" height="24" rx="2.4" fill="#1b7ad8" />
      </g>
      <g transform="translate(400 0)">
        <use href="#shadow-shape" transform="translate(0 184)" />
        <line x1="0" y1="88" x2="0" y2="184" />
        <rect x="-4" y="96" width="8" height="26" rx="2.4" fill="#1b7ad8" />
      </g>
      <g transform="translate(430 0)">
        <use href="#shadow-shape" transform="translate(0 188)" />
        <line x1="0" y1="92" x2="0" y2="188" />
        <rect x="-4" y="98" width="8" height="22" rx="2.4" fill="#98a4b5" />
      </g>
      <g transform="translate(460 0)">
        <use href="#shadow-shape" transform="translate(0 192)" />
        <line x1="0" y1="96" x2="0" y2="192" />
        <rect x="-4" y="108" width="8" height="24" rx="2.4" fill="#1b7ad8" />
      </g>
      <g transform="translate(490 0)">
        <use href="#shadow-shape" transform="translate(0 196)" />
        <line x1="0" y1="100" x2="0" y2="196" />
        <rect x="-4" y="108" width="8" height="26" rx="2.4" fill="#1b7ad8" />
      </g>
      <g transform="translate(520 0)">
        <use href="#shadow-shape" transform="translate(0 200)" />
        <line x1="0" y1="104" x2="0" y2="200" />
        <rect x="-4" y="110" width="8" height="22" rx="2.4" fill="#98a4b5" />
      </g>
      <g transform="translate(550 0)">
        <use href="#shadow-shape" transform="translate(0 196)" />
        <line x1="0" y1="100" x2="0" y2="196" />
        <rect x="-4" y="112" width="8" height="24" rx="2.4" fill="#1b7ad8" />
      </g>
      <g transform="translate(580 0)">
        <use href="#shadow-shape" transform="translate(0 192)" />
        <line x1="0" y1="96" x2="0" y2="192" />
        <rect x="-4" y="104" width="8" height="26" rx="2.4" fill="#1b7ad8" />
      </g>
      <g transform="translate(610 0)">
        <use href="#shadow-shape" transform="translate(0 188)" />
        <line x1="0" y1="92" x2="0" y2="188" />
        <rect x="-4" y="98" width="8" height="22" rx="2.4" fill="#98a4b5" />
      </g>
      <g transform="translate(640 0)">
        <use href="#shadow-shape" transform="translate(0 184)" />
        <line x1="0" y1="88" x2="0" y2="184" />
        <rect x="-4" y="100" width="8" height="24" rx="2.4" fill="#1b7ad8" />
      </g>
      <g transform="translate(670 0)">
        <use href="#shadow-shape" transform="translate(0 180)" />
        <line x1="0" y1="84" x2="0" y2="180" />
        <rect x="-4" y="92" width="8" height="26" rx="2.4" fill="#1b7ad8" />
      </g>
      <g transform="translate(700 0)">
        <use href="#shadow-shape" transform="translate(0 176)" />
        <line x1="0" y1="80" x2="0" y2="176" />
        <rect x="-4" y="86" width="8" height="22" rx="2.4" fill="#98a4b5" />
      </g>
      <g transform="translate(730 0)">
        <use href="#shadow-shape" transform="translate(0 172)" />
        <line x1="0" y1="76" x2="0" y2="172" />
        <rect x="-4" y="88" width="8" height="24" rx="2.4" fill="#1b7ad8" />
      </g>
      <g transform="translate(760 0)">
        <use href="#shadow-shape" transform="translate(0 168)" />
        <line x1="0" y1="72" x2="0" y2="168" />
        <rect x="-4" y="80" width="8" height="26" rx="2.4" fill="#1b7ad8" />
      </g>
      <g transform="translate(790 0)">
        <use href="#shadow-shape" transform="translate(0 164)" />
        <line x1="0" y1="68" x2="0" y2="164" />
        <rect x="-4" y="74" width="8" height="22" rx="2.4" fill="#98a4b5" />
      </g>
      <g transform="translate(820 0)">
        <use href="#shadow-shape" transform="translate(0 160)" />
        <line x1="0" y1="64" x2="0" y2="160" />
        <rect x="-4" y="76" width="8" height="24" rx="2.4" fill="#1b7ad8" />
      </g>
      <g transform="translate(850 0)">
        <use href="#shadow-shape" transform="translate(0 156)" />
        <line x1="0" y1="60" x2="0" y2="156" />
        <rect x="-4" y="68" width="8" height="26" rx="2.4" fill="#1b7ad8" />
      </g>
      <g transform="translate(880 0)">
        <use href="#shadow-shape" transform="translate(0 152)" />
        <line x1="0" y1="56" x2="0" y2="152" />
        <rect x="-4" y="62" width="8" height="22" rx="2.4" fill="#98a4b5" />
      </g>
      <g transform="translate(910 0)">
        <use href="#shadow-shape" transform="translate(0 148)" />
        <line x1="0" y1="52" x2="0" y2="148" />
        <rect x="-4" y="64" width="8" height="24" rx="2.4" fill="#1b7ad8" />
      </g>
      <g transform="translate(940 0)">
        <use href="#shadow-shape" transform="translate(0 144)" />
        <line x1="0" y1="48" x2="0" y2="144" />
        <rect x="-4" y="56" width="8" height="26" rx="2.4" fill="#1b7ad8" />
      </g>
      <g transform="translate(970 0)">
        <use href="#shadow-shape" transform="translate(0 140)" />
        <line x1="0" y1="44" x2="0" y2="140" />
        <rect x="-4" y="50" width="8" height="22" rx="2.4" fill="#98a4b5" />
      </g>
      <g transform="translate(1000 0)">
        <use href="#shadow-shape" transform="translate(0 136)" />
        <line x1="0" y1="40" x2="0" y2="136" />
        <rect x="-4" y="52" width="8" height="24" rx="2.4" fill="#1b7ad8" />
      </g>
    </g>
  </g>
</svg>