<svg xmlns="http://www.w3.org/2000/svg" viewBox="0 0 1200 360" role="img" aria-labelledby="title desc">
  <title id="title">capitovo Candlestick Illustration</title>
  <desc id="desc">Stilisierte Börsenkerzen in einem weichen Auf und Ab mit blauen Akzenten und Schatten.</desc>
  <defs>
    <linearGradient id="bodyGrey" x1="0" y1="0" x2="0" y2="1">
      <stop offset="0%" stop-color="#d8deea" />
      <stop offset="55%" stop-color="#8a94aa" />
      <stop offset="100%" stop-color="#51596a" />
    </linearGradient>
    <linearGradient id="bodyBlue" x1="0" y1="0" x2="0" y2="1">
      <stop offset="0%" stop-color="#8fd0ff" />
      <stop offset="55%" stop-color="#3c8ed7" />
      <stop offset="100%" stop-color="#215eaa" />
    </linearGradient>
    <linearGradient id="wick" x1="0" y1="0" x2="0" y2="1">
      <stop offset="0%" stop-color="#2a3142" stop-opacity="0.75" />
      <stop offset="100%" stop-color="#151924" stop-opacity="0.95" />
    </linearGradient>
    <filter id="candleShadow" x="-20%" y="-20%" width="140%" height="160%">
      <feDropShadow dx="10" dy="16" stdDeviation="8" flood-color="#101623" flood-opacity="0.18" />
    </filter>
  </defs>

  <rect width="1200" height="360" fill="#ffffff" />

  <g transform="translate(70 48)">
    <g fill="none" stroke="#f1f4f9" stroke-width="1">
      <path d="M-20 252 Q 140 168 260 168 T 520 250 T 780 292 T 1040 210 T 1260 180" opacity="0.35" />
    </g>

    <g filter="url(#candleShadow)">
      <g transform="translate(0,205)">
        <g transform="translate(0 0)">
          <line x1="0" y1="-102" x2="0" y2="12" stroke="url(#wick)" stroke-width="4" stroke-linecap="round" />
          <rect x="-8" y="-68" width="16" height="68" rx="4" fill="url(#bodyGrey)" />
        </g>
        <g transform="translate(36 -7)">
          <line x1="0" y1="-114" x2="0" y2="12" stroke="url(#wick)" stroke-width="4" stroke-linecap="round" />
          <rect x="-8" y="-74" width="16" height="74" rx="4" fill="url(#bodyGrey)" />
        </g>
        <g transform="translate(72 -13)">
          <line x1="0" y1="-126" x2="0" y2="12" stroke="url(#wick)" stroke-width="4" stroke-linecap="round" />
          <rect x="-8" y="-80" width="16" height="80" rx="4" fill="url(#bodyBlue)" />
        </g>
        <g transform="translate(108 -17)">
          <line x1="0" y1="-132" x2="0" y2="12" stroke="url(#wick)" stroke-width="4" stroke-linecap="round" />
          <rect x="-8" y="-84" width="16" height="84" rx="4" fill="url(#bodyGrey)" />
        </g>
        <g transform="translate(144 -20)">
          <line x1="0" y1="-128" x2="0" y2="12" stroke="url(#wick)" stroke-width="4" stroke-linecap="round" />
          <rect x="-8" y="-78" width="16" height="78" rx="4" fill="url(#bodyGrey)" />
        </g>
        <g transform="translate(180 -15)">
          <line x1="0" y1="-120" x2="0" y2="12" stroke="url(#wick)" stroke-width="4" stroke-linecap="round" />
          <rect x="-8" y="-70" width="16" height="70" rx="4" fill="url(#bodyBlue)" />
        </g>
        <g transform="translate(216  -5)">
          <line x1="0" y1="-108" x2="0" y2="12" stroke="url(#wick)" stroke-width="4" stroke-linecap="round" />
          <rect x="-8" y="-64" width="16" height="64" rx="4" fill="url(#bodyGrey)" />
        </g>
        <g transform="translate(252 5)">
          <line x1="0" y1="-100" x2="0" y2="12" stroke="url(#wick)" stroke-width="4" stroke-linecap="round" />
          <rect x="-8" y="-58" width="16" height="58" rx="4" fill="url(#bodyBlue)" />
        </g>
        <g transform="translate(288 15)">
          <line x1="0" y1="-96" x2="0" y2="12" stroke="url(#wick)" stroke-width="4" stroke-linecap="round" />
          <rect x="-8" y="-60" width="16" height="60" rx="4" fill="url(#bodyGrey)" />
        </g>
        <g transform="translate(324 27)">
          <line x1="0" y1="-102" x2="0" y2="12" stroke="url(#wick)" stroke-width="4" stroke-linecap="round" />
          <rect x="-8" y="-66" width="16" height="66" rx="4" fill="url(#bodyGrey)" />
        </g>
        <g transform="translate(360 35)">
          <line x1="0" y1="-106" x2="0" y2="12" stroke="url(#wick)" stroke-width="4" stroke-linecap="round" />
          <rect x="-8" y="-68" width="16" height="68" rx="4" fill="url(#bodyBlue)" />
        </g>
        <g transform="translate(396 47)">
          <line x1="0" y1="-112" x2="0" y2="12" stroke="url(#wick)" stroke-width="4" stroke-linecap="round" />
          <rect x="-8" y="-74" width="16" height="74" rx="4" fill="url(#bodyGrey)" />
        </g>
        <g transform="translate(432 55)">
          <line x1="0" y1="-116" x2="0" y2="12" stroke="url(#wick)" stroke-width="4" stroke-linecap="round" />
          <rect x="-8" y="-76" width="16" height="76" rx="4" fill="url(#bodyGrey)" />
        </g>
        <g transform="translate(468 63)">
          <line x1="0" y1="-112" x2="0" y2="12" stroke="url(#wick)" stroke-width="4" stroke-linecap="round" />
          <rect x="-8" y="-72" width="16" height="72" rx="4" fill="url(#bodyBlue)" />
        </g>
        <g transform="translate(504 71)">
          <line x1="0" y1="-110" x2="0" y2="12" stroke="url(#wick)" stroke-width="4" stroke-linecap="round" />
          <rect x="-8" y="-70" width="16" height="70" rx="4" fill="url(#bodyGrey)" />
        </g>
        <g transform="translate(540 77)">
          <line x1="0" y1="-106" x2="0" y2="12" stroke="url(#wick)" stroke-width="4" stroke-linecap="round" />
          <rect x="-8" y="-68" width="16" height="68" rx="4" fill="url(#bodyGrey)" />
        </g>
        <g transform="translate(576 83)">
          <line x1="0" y1="-100" x2="0" y2="12" stroke="url(#wick)" stroke-width="4" stroke-linecap="round" />
          <rect x="-8" y="-64" width="16" height="64" rx="4" fill="url(#bodyBlue)" />
        </g>
        <g transform="translate(612 77)">
          <line x1="0" y1="-104" x2="0" y2="12" stroke="url(#wick)" stroke-width="4" stroke-linecap="round" />
          <rect x="-8" y="-66" width="16" height="66" rx="4" fill="url(#bodyGrey)" />
        </g>
        <g transform="translate(648 70)">
          <line x1="0" y1="-110" x2="0" y2="12" stroke="url(#wick)" stroke-width="4" stroke-linecap="round" />
          <rect x="-8" y="-70" width="16" height="70" rx="4" fill="url(#bodyGrey)" />
        </g>
        <g transform="translate(684 61)">
          <line x1="0" y1="-112" x2="0" y2="12" stroke="url(#wick)" stroke-width="4" stroke-linecap="round" />
          <rect x="-8" y="-72" width="16" height="72" rx="4" fill="url(#bodyBlue)" />
        </g>
        <g transform="translate(720 50)">
          <line x1="0" y1="-114" x2="0" y2="12" stroke="url(#wick)" stroke-width="4" stroke-linecap="round" />
          <rect x="-8" y="-74" width="16" height="74" rx="4" fill="url(#bodyGrey)" />
        </g>
        <g transform="translate(756 39)">
          <line x1="0" y1="-112" x2="0" y2="12" stroke="url(#wick)" stroke-width="4" stroke-linecap="round" />
          <rect x="-8" y="-70" width="16" height="70" rx="4" fill="url(#bodyGrey)" />
        </g>
        <g transform="translate(792 27)">
          <line x1="0" y1="-106" x2="0" y2="12" stroke="url(#wick)" stroke-width="4" stroke-linecap="round" />
          <rect x="-8" y="-66" width="16" height="66" rx="4" fill="url(#bodyBlue)" />
        </g>
        <g transform="translate(828 15)">
          <line x1="0" y1="-104" x2="0" y2="12" stroke="url(#wick)" stroke-width="4" stroke-linecap="round" />
          <rect x="-8" y="-64" width="16" height="64" rx="4" fill="url(#bodyGrey)" />
        </g>
        <g transform="translate(864 3)">
          <line x1="0" y1="-112" x2="0" y2="12" stroke="url(#wick)" stroke-width="4" stroke-linecap="round" />
          <rect x="-8" y="-68" width="16" height="68" rx="4" fill="url(#bodyBlue)" />
        </g>
        <g transform="translate(900 -7)">
          <line x1="0" y1="-120" x2="0" y2="12" stroke="url(#wick)" stroke-width="4" stroke-linecap="round" />
          <rect x="-8" y="-72" width="16" height="72" rx="4" fill="url(#bodyGrey)" />
        </g>
        <g transform="translate(936 -15)">
          <line x1="0" y1="-124" x2="0" y2="12" stroke="url(#wick)" stroke-width="4" stroke-linecap="round" />
          <rect x="-8" y="-74" width="16" height="74" rx="4" fill="url(#bodyGrey)" />
        </g>
        <g transform="translate(972 -23)">
          <line x1="0" y1="-130" x2="0" y2="12" stroke="url(#wick)" stroke-width="4" stroke-linecap="round" />
          <rect x="-8" y="-78" width="16" height="78" rx="4" fill="url(#bodyBlue)" />
        </g>
        <g transform="translate(1008 -27)">
          <line x1="0" y1="-132" x2="0" y2="12" stroke="url(#wick)" stroke-width="4" stroke-linecap="round" />
          <rect x="-8" y="-80" width="16" height="80" rx="4" fill="url(#bodyGrey)" />
        </g>
        <g transform="translate(1044 -25)">
          <line x1="0" y1="-126" x2="0" y2="12" stroke="url(#wick)" stroke-width="4" stroke-linecap="round" />
          <rect x="-8" y="-76" width="16" height="76" rx="4" fill="url(#bodyGrey)" />
        </g>
        <g transform="translate(1080 -19)">
          <line x1="0" y1="-120" x2="0" y2="12" stroke="url(#wick)" stroke-width="4" stroke-linecap="round" />
          <rect x="-8" y="-72" width="16" height="72" rx="4" fill="url(#bodyBlue)" />
        </g>
        <g transform="translate(1116 -11)">
          <line x1="0" y1="-116" x2="0" y2="12" stroke="url(#wick)" stroke-width="4" stroke-linecap="round" />
          <rect x="-8" y="-70" width="16" height="70" rx="4" fill="url(#bodyGrey)" />
        </g>
      </g>
    </g>
  </g>
</svg>