<svg xmlns="http://www.w3.org/2000/svg" viewBox="0 0 1139 485" preserveAspectRatio="xMidYMid meet">
  <path d="M 251.00 180.83 L 252.00 178.17 L 253.00 175.33 L 254.00 176.17 L 255.00 176.00 L 256.00 176.00 L 257.00 177.00 L 258.00 178.00 L 259.00 178.83 L 260.00 178.67 L 261.00 178.50 L 262.00 178.50 L 263.00 178.50 L 264.00 178.50 L 265.00 178.33 L 266.00 178.33 L 267.00 178.50 L 268.00 178.83 L 269.00 179.00 L 270.00 179.17 L 271.00 179.50 L 272.00 176.83 L 273.00 176.83 L 274.00 179.83 L 275.00 186.17 L 276.00 185.33 L 277.00 185.67 L 278.00 181.83 L 279.00 182.50 L 280.00 178.83 L 281.00 179.00 L 282.00 178.83 L 283.00 180.83 L 284.00 180.33 L 285.00 179.17 L 286.00 174.17 L 287.00 171.50 L 288.00 169.50 L 289.00 169.00 L 290.00 168.67 L 291.00 168.67 L 292.00 170.50 L 293.00 174.00 L 294.00 175.67 L 295.00 175.83 L 296.00 174.33 L 297.00 174.50 L 298.00 174.50 L 299.00 169.00 L 300.00 167.17 L 301.00 168.17 L 302.00 174.50 L 303.00 177.17 L 304.00 179.67 L 305.00 179.83 L 306.00 183.50 L 307.00 181.17 L 308.00 180.67 L 309.00 177.00 L 310.00 176.50 L 311.00 177.83 L 312.00 177.83 L 313.00 180.00 L 314.00 179.17 L 315.00 182.17 L 316.00 183.67 L 317.00 180.83 L 318.00 175.17 L 319.00 172.33 L 320.00 174.33 L 321.00 176.33 L 322.00 175.00 L 323.00 175.17 L 324.00 175.33 L 325.00 170.33 L 326.00 170.83 L 327.00 171.83 L 328.00 178.17 L 329.00 178.83 L 330.00 181.50 L 331.00 184.83 L 332.00 181.50 L 333.00 175.67 L 334.00 172.67 L 335.00 174.67 L 336.00 176.67 L 337.00 175.00 L 338.00 174.83 L 339.00 174.67 L 340.00 174.33 L 341.00 176.83 L 342.00 173.50 L 343.00 170.33 L 344.00 164.50 L 345.00 164.50 L 346.00 168.17 L 347.00 175.17 L 348.00 183.17 L 349.00 184.17 L 350.00 181.83 L 351.00 178.50 L 352.00 178.67 L 353.00 178.83 L 354.00 177.83 L 355.00 180.83 L 356.00 184.00 L 357.00 188.50 L 358.00 188.83 L 359.00 188.83 L 360.00 188.50 L 361.00 188.00 L 362.00 183.50 L 363.00 180.33 L 364.00 177.50 L 365.00 178.83 L 366.00 179.00 L 367.00 179.00 L 368.00 178.83 L 369.00 178.67 L 370.00 178.50" fill="none" stroke="#0ea5a4" stroke-width="2.85" stroke-linecap="round" stroke-linejoin="round" />
</svg>